<svg xmlns="http://www.w3.org/2000/svg" width="58.349" height="58.204" viewBox="0 0 58.349 58.204">
  <g id="Group_1" data-name="Group 1" transform="translate(-278 -605)">
    <path id="Path_17" data-name="Path 17" d="M95.67,162.934A5.966,5.966,0,1,1,101,160.012,5.966,5.966,0,0,1,95.67,162.934Z" transform="translate(195.149 493.589)" fill="#15e5c6"/>
    <path id="Path_18" data-name="Path 18" d="M85.7,126.85a5.946,5.946,0,1,1-4.257,1.72,6,6,0,0,1,4.257-1.72Z" transform="translate(198.32 501.386)" fill="#15e5c6"/>
    <path id="Path_19" data-name="Path 19" d="M160.12,132.776a6,6,0,1,1-5.929-6.071A6,6,0,0,1,160.12,132.776Z" transform="translate(176.229 501.433)" fill="#15e5c6"/>
    <path id="Path_20" data-name="Path 20" d="M144.147,162.936a5.973,5.973,0,1,1,5.96-6.034A5.973,5.973,0,0,1,144.147,162.936Z" transform="translate(179.443 493.594)" fill="#15e5c6"/>
    <path id="Path_21" data-name="Path 21" d="M114,166.882a5.959,5.959,0,1,1,5.837,5.92A5.959,5.959,0,0,1,114,166.882Z" transform="translate(187.242 490.4)" fill="#15e5c6"/>
    <path id="Path_22" data-name="Path 22" d="M144.181,114.533a5.987,5.987,0,1,1,5.932-6.095A6.048,6.048,0,0,1,144.181,114.533Z" transform="translate(179.45 509.227)" fill="#15e5c6"/>
    <path id="Path_23" data-name="Path 23" d="M125.865,98.6a5.954,5.954,0,1,1-5.844-6.061A5.954,5.954,0,0,1,125.865,98.6Z" transform="translate(187.255 512.461)" fill="#15e5c6"/>
    <path id="Path_24" data-name="Path 24" d="M101.687,108.553a5.993,5.993,0,1,1-6.041-5.993,5.993,5.993,0,0,1,6.041,5.993Z" transform="translate(195.086 509.227)" fill="#15e5c6"/>
    <path id="Path_25" data-name="Path 25" d="M120.817,132.148a4.1,4.1,0,1,1,4.151-4.016A4.1,4.1,0,0,1,120.817,132.148Z" transform="translate(186.351 502.325)" fill="#15e5c6"/>
    <path id="Path_26" data-name="Path 26" d="M125.712,142.161a9.206,9.206,0,0,1-.968.108H114.626a5.458,5.458,0,0,1,5.357-5.77,5.6,5.6,0,0,1,5.729,5.662Z" transform="translate(187.043 498.272)" fill="#15e5c6"/>
    <path id="Path_27" data-name="Path 27" d="M134.249,120.1a10.159,10.159,0,0,1,1.456-1.754c.3-.257.982-.081,1.483-.095-.041.5.108,1.172-.156,1.476a17.878,17.878,0,0,1-2.357,1.9c.928.359,1.354.406,1.585.677s.589.779.508,1.09a1.314,1.314,0,0,1-.941.752,3.569,3.569,0,0,1-4.266-3.047,6.773,6.773,0,0,1,.379-2.072Z" transform="translate(181.574 504.178)" fill="#15e5c6"/>
    <path id="Path_28" data-name="Path 28" d="M133.714,148.082c-.095.3-.1.677-.3.867-.332.3-.84.711-1.172.63a1.286,1.286,0,0,1-.677-1.1c-.074-2.675.677-3.684,3.244-4.1a5.011,5.011,0,0,1,1.849.488l-1,1.883a17.083,17.083,0,0,1,1.619,1.835c.23.318.095.9.129,1.354-.508,0-1.205.237-1.476,0a16.341,16.341,0,0,1-1.768-2.235Z" transform="translate(181.573 495.731)" fill="#15e5c6"/>
    <path id="Path_29" data-name="Path 29" d="M122.359,153.285a13.063,13.063,0,0,1-.041,2.323c-.074.433-.6.786-.921,1.178-.352-.406-.921-.772-1.009-1.226a15.27,15.27,0,0,1-.047-2.817c-.528.257-.867.549-1.205.555a1.47,1.47,0,0,1-1.117-.413,1.307,1.307,0,0,1,.122-1.185,3.518,3.518,0,0,1,5.154-.874,6.379,6.379,0,0,1,1.205,1.734Z" transform="translate(185.974 493.893)" fill="#15e5c6"/>
    <path id="Path_30" data-name="Path 30" d="M140.421,132.977a6.773,6.773,0,0,1,1.869.041,6.055,6.055,0,0,1,1.564,1,6.583,6.583,0,0,1-1.652.948,10.022,10.022,0,0,1-2.275.041,3.833,3.833,0,0,1,.46,1.226,1.47,1.47,0,0,1-.474,1.09,1.354,1.354,0,0,1-1.178-.217c-1.91-1.625-2.14-3.318-.677-5.309a4.677,4.677,0,0,1,1.652-.968Z" transform="translate(179.783 500.102)" fill="#15e5c6"/>
    <path id="Path_31" data-name="Path 31" d="M102.375,133.2a5.492,5.492,0,0,1-.508-1.47.948.948,0,0,1,1.551-.833,3.637,3.637,0,0,1,.968,5.181,6.962,6.962,0,0,1-1.74,1.246l-.8-2.126a9.548,9.548,0,0,1-2.214-.047c-.461-.1-.813-.677-1.212-1.07.406-.3.772-.779,1.212-.853a17.155,17.155,0,0,1,2.743-.027Z" transform="translate(192.271 500.152)" fill="#15e5c6"/>
    <path id="Path_32" data-name="Path 32" d="M119.983,114.714a9.677,9.677,0,0,1,.041-2.14c.095-.488.623-.887.955-1.354.345.427.887.806.982,1.28a14.363,14.363,0,0,1,.047,2.675,3.386,3.386,0,0,1,1.124-.406,1.91,1.91,0,0,1,1.239.46c.163.2,0,.887-.244,1.165-1.591,1.815-3.264,2.1-5.066.786a6.4,6.4,0,0,1-1.212-1.734Z" transform="translate(185.999 506.431)" fill="#15e5c6"/>
    <path id="Path_33" data-name="Path 33" d="M108.811,120.968c.339-.894.386-1.354.637-1.585a1.571,1.571,0,0,1,1.124-.433c.251,0,.576.521.63.847a3.589,3.589,0,0,1-2.987,4.348,6.562,6.562,0,0,1-2.1-.413l1.131-2.2a11.559,11.559,0,0,1-1.761-1.524c-.257-.312-.108-.975-.142-1.476.5,0,1.158-.149,1.463.108A18.734,18.734,0,0,1,108.811,120.968Z" transform="translate(190.04 504.086)" fill="#15e5c6"/>
    <path id="Path_34" data-name="Path 34" d="M108.793,147.92a18.846,18.846,0,0,1-1.768,2.221c-.244.237-.874.081-1.354.108,0-.5-.23-1.178,0-1.463a18.962,18.962,0,0,1,2.336-2.032,7.6,7.6,0,0,1-1.591-.677c-.251-.217-.535-.725-.44-.962a1.422,1.422,0,0,1,.914-.772,3.772,3.772,0,0,1,4.51,3.948,1.889,1.889,0,0,1-.677,1.117,9.888,9.888,0,0,1-1.707-.914Z" transform="translate(189.963 495.763)" fill="#15e5c6"/>
  </g>
</svg>
