<svg xmlns="http://www.w3.org/2000/svg" width="43.927" height="49.962" viewBox="0 0 43.927 49.962">
  <g id="Group_2" data-name="Group 2" transform="translate(-280.19 -800.861)">
    <path id="Path_9" data-name="Path 9" d="M121.952,352.7l-5.206,5.273c-1.6-1.986-3.2-2.519-5.969-1.382s-3.481,2.688-3.307,5.247h-7.243c.056-2.437-.45-4.141-3.286-5.227-2.744-1.055-4.392-.763-5.984,1.346l-5.088-5.191c1.536-1.536,2.672-3.036,1.27-5.861-1.239-2.5-2.421-3.793-5.268-3.338v-7.028h9.281c-.9,5.119.189,9.7,4.28,13.217a12.634,12.634,0,0,0,9.629,3.071c7.714-.625,12.168-6.89,11.523-16.33H125.8v7.049c-2.713-.333-4.126.64-5.242,3.332S119.787,351.156,121.952,352.7Z" transform="translate(198.32 488.984)" fill="#15e5c6"/>
    <path id="Path_10" data-name="Path 10" d="M114.54,336.253c2.943,0,5.887.051,8.825,0,1.188-.036,1.643.44,1.787,1.536.619,4.663-.845,8.487-4.807,11.073a10.206,10.206,0,0,1-11.738.051c-4-2.559-5.493-6.348-4.919-11.011.138-1.131.543-1.71,1.853-1.664C108.535,336.319,111.535,336.253,114.54,336.253Z" transform="translate(187.729 489.113)" fill="#15e5c6"/>
    <path id="Path_11" data-name="Path 11" d="M108.755,322.843c-.445-5.257,3.21-9.373,8.19-9.373s8.6,4.1,8.19,9.373Z" transform="translate(185.216 500.225)" fill="#15e5c6"/>
    <path id="Path_12" data-name="Path 12" d="M119.652,288.4a5.3,5.3,0,1,1-3.792,1.591A5.3,5.3,0,0,1,119.652,288.4Z" transform="translate(182.468 512.462)" fill="#15e5c6"/>
    <path id="Path_13" data-name="Path 13" d="M94.391,324.916H84.342a5.959,5.959,0,0,1,2.887-6.491,6.03,6.03,0,0,1,7.075.619,2.611,2.611,0,0,1,.619,1.853C94.847,322.249,94.581,323.585,94.391,324.916Z" transform="translate(197.184 498.228)" fill="#15e5c6"/>
    <path id="Path_14" data-name="Path 14" d="M144.83,324.872c-.246-1.536-.563-2.918-.66-4.336a2.217,2.217,0,0,1,.753-1.536,6.087,6.087,0,0,1,6.783-.691c2.4,1.249,3.532,3.491,3.245,6.583Z" transform="translate(167.912 498.216)" fill="#15e5c6"/>
    <path id="Path_15" data-name="Path 15" d="M149.646,298a3.988,3.988,0,0,1,3.865,4.059,4.029,4.029,0,0,1-4.1,3.865,3.947,3.947,0,0,1-3.819-4.1A3.906,3.906,0,0,1,149.646,298Z" transform="translate(167.216 507.778)" fill="#15e5c6"/>
    <path id="Path_16" data-name="Path 16" d="M96.559,301.869a3.916,3.916,0,1,1-1.2-2.774,3.942,3.942,0,0,1,1.2,2.774Z" transform="translate(194.914 507.776)" fill="#15e5c6"/>
  </g>
</svg>
