<svg xmlns="http://www.w3.org/2000/svg" width="51.511" height="31.402" viewBox="0 0 51.511 31.402">
  <g id="Group_4" data-name="Group 4" transform="translate(-491.32 -821.325)">
    <path id="Path_1" data-name="Path 1" d="M339.145,335.032c-.451,2.282-1.384,2.773-4.356,2.435-1.353,2.8-1.538,2.917-4.167,2.629a3.045,3.045,0,0,1-2.543,2.931c-.861.176-1.831-.2-2.967-1.231.924-.9,1.858-1.745,2.76-2.642a2.372,2.372,0,0,0,.478-2.886,3.288,3.288,0,0,0-3.382-1.8c-.636-1.709-1.6-3.021-3.522-2.877a16.688,16.688,0,0,0-1.632-2.169,2.832,2.832,0,0,0-1.565-.631.97.97,0,0,1-.974-.73c-.568-1.488-2.255-2.981-4.058-1.849a8.188,8.188,0,0,0-1.258,1.123c-.7.676-1.38,1.38-2.092,2.047a2.412,2.412,0,0,1-.681.307c-.041-.293-.2-.631-.1-.861,1.2-2.863,2.435-5.709,3.666-8.568.631-1.456,1.29-2.9,1.912-4.369.167-.388.374-.451.8-.473,1.447-.135,2.877-.4,4.311-.636,1.533-.257,3.057-.609,4.6-.794a7.72,7.72,0,0,1,2.011.3c-1.488,1.447-2.89,2.706-4.194,4.09a32.167,32.167,0,0,0-2.408,2.99,2.172,2.172,0,0,0,0,2.656,7.314,7.314,0,0,0,3.4,2.895,2.182,2.182,0,0,0,2.065-.176c1.353-.816,2.706-1.677,4.058-2.489,2.381-1.411,2.007-1.29,3.837.239,3.012,2.516,5.93,5.145,8.888,7.724.135.117.271.234.415.343.767.586.825.951.162,1.664a2.99,2.99,0,0,1-2.642.938C339.69,335.136,339.442,335.082,339.145,335.032Z" transform="translate(189.507 509.659)" fill="#15e5c6"/>
    <path id="Path_2" data-name="Path 2" d="M349.588,314.457c1.384.365,2.769.74,4.139,1.154a1.046,1.046,0,0,1,.573.523c1.862,4.139,3.689,8.292,5.56,12.432a.9.9,0,0,1-.334,1.294c-.609.451-1.208.87-1.8,1.353a.907.907,0,0,1-1.353-.086q-3.851-3.436-7.742-6.818c-.794-.69-1.646-1.308-2.476-1.952a1.826,1.826,0,0,0-2.16-.167c-1.2.685-2.376,1.42-3.567,2.133-.658.392-1.33.771-1.984,1.172a1.312,1.312,0,0,1-1.583-.036,17.775,17.775,0,0,1-2.3-2,1.41,1.41,0,0,1,0-2.255c1.8-1.971,3.661-3.869,5.528-5.772a19.476,19.476,0,0,1,1.542-1.276,3.481,3.481,0,0,1,2.566-.843A52.665,52.665,0,0,1,349.588,314.457Z" transform="translate(175.813 510.023)" fill="#15e5c6"/>
    <path id="Path_3" data-name="Path 3" d="M385.329,309.33a4.71,4.71,0,0,1,.83,1c1.118,2.448,2.187,4.915,3.274,7.377.947,2.155,1.9,4.311,2.832,6.475.406.933.248,1.326-.694,1.754q-1.569.717-3.156,1.4c-.979.419-1.353.266-1.8-.726q-1.989-4.509-3.964-9.018-1.046-2.394-2.1-4.784c-.379-.875-.221-1.33.645-1.732,1.136-.532,2.291-1.033,3.436-1.538C384.787,309.479,384.963,309.443,385.329,309.33Z" transform="translate(150.358 512.206)" fill="#15e5c6"/>
    <path id="Path_4" data-name="Path 4" d="M293,324.415c.158-.451.23-.681.334-.9q2.981-6.8,5.975-13.591c.51-1.154.9-1.285,2.038-.771,1.028.451,2.065.9,3.089,1.384.83.388.979.821.6,1.668q-3.012,6.863-6.042,13.731c-.487,1.109-.861,1.254-1.966.767s-2.083-.875-3.089-1.389A4.51,4.51,0,0,1,293,324.415Z" transform="translate(198.32 512.461)" fill="#15e5c6"/>
    <path id="Path_5" data-name="Path 5" d="M308.63,347.661a4.641,4.641,0,0,1,.591-1.01q1.943-1.97,3.946-3.873c.8-.758,1.493-.667,2.385.234s.983,1.614.221,2.39c-1.312,1.33-2.66,2.629-4,3.923a1.389,1.389,0,0,1-1.686.329A2.958,2.958,0,0,1,308.63,347.661Z" transform="translate(189.738 494.121)" fill="#15e5c6"/>
    <path id="Path_6" data-name="Path 6" d="M319.218,356.143a2.255,2.255,0,0,1-2.115-1.4,1.437,1.437,0,0,1,.415-1.8c1.272-1.227,2.516-2.476,3.8-3.693.9-.866,1.637-.776,2.615.266a1.5,1.5,0,0,1-.086,2.449c-1.231,1.195-2.44,2.408-3.689,3.585a4.96,4.96,0,0,1-.938.6Z" transform="translate(185.179 490.613)" fill="#15e5c6"/>
    <path id="Path_7" data-name="Path 7" d="M341.24,363.509a5.376,5.376,0,0,1-.667,1.141c-1.24,1.258-2.516,2.48-3.8,3.693-.9.852-1.578.812-2.439-.09-1-1.055-1.019-1.691-.086-2.615q1.8-1.772,3.607-3.553a1.588,1.588,0,0,1,1.781-.564A3.084,3.084,0,0,1,341.24,363.509Z" transform="translate(176.045 483.603)" fill="#15e5c6"/>
    <path id="Path_8" data-name="Path 8" d="M330.668,355a2.742,2.742,0,0,1,2.025,1.623,1.528,1.528,0,0,1-.577,1.768c-1.245,1.217-2.494,2.435-3.752,3.639-.843.8-1.565.717-2.507-.257a1.528,1.528,0,0,1-.059-2.422c1.276-1.263,2.557-2.521,3.86-3.756A5.094,5.094,0,0,1,330.668,355Z" transform="translate(180.623 487.129)" fill="#15e5c6"/>
  </g>
</svg>
