<svg width="136" height="170" viewBox="0 0 136 170" fill="none" xmlns="http://www.w3.org/2000/svg">
<path d="M0.0605464 16.9145C22.3589 11.1953 44.051 5.30683 65.9273 0.280319C70.301 -0.726594 75.4421 1.21473 80.0997 2.38275C95.8682 6.32986 111.568 10.5589 127.298 14.651C135.884 16.8904 135.907 16.8662 135.907 26.6212C135.922 45.4545 135.631 64.2878 135.984 83.1131C136.406 105.966 128.648 125.065 113.417 141.095C101.792 153.323 88.195 162.522 73.0787 169.087C70.0862 170.384 65.6895 170.263 62.6662 168.95C47.5423 162.377 33.9838 153.114 22.3742 140.878C7.38845 125.073 -0.261728 106.183 0.006834 83.693C0.267723 61.6134 0.0605464 39.5338 0.0605464 16.9145ZM68.3981 148.788C77.8285 142.078 86.1002 137.003 93.4895 130.776C108.322 118.283 116.148 102.083 115.373 81.6309C114.951 70.5951 115.32 59.5271 115.312 48.4672C115.297 33.9112 115.297 33.8871 101.961 30.4555C91.011 27.6361 80.046 24.8973 68.4058 21.9491C68.3981 64.1106 68.3981 105.104 68.3981 148.788Z" fill="url(#paint0_angular_2_10219)"/>
<defs>
<radialGradient id="paint0_angular_2_10219" cx="0" cy="0" r="1" gradientUnits="userSpaceOnUse" gradientTransform="translate(68 85) rotate(90) scale(85 68)">
<stop stop-color="#4E3FFF"/>
<stop offset="0.270833" stop-color="#191267"/>
<stop offset="0.291667" stop-color="#F9D100"/>
<stop offset="0.567708" stop-color="#BB0693"/>
<stop offset="0.59375" stop-color="#1A8ECF"/>
<stop offset="1" stop-color="#04002F"/>
</radialGradient>
</defs>
</svg>
