<svg xmlns="http://www.w3.org/2000/svg" xmlns:xlink="http://www.w3.org/1999/xlink" width="146" height="150.001" viewBox="0 0 146 150.001">
  <defs>
    <filter id="Android" x="0" y="0" width="146" height="150.001" filterUnits="userSpaceOnUse">
      <feOffset dy="10" input="SourceAlpha"/>
      <feGaussianBlur stdDeviation="15" result="blur"/>
      <feFlood flood-color="#27ebc1" flood-opacity="0.4"/>
      <feComposite operator="in" in2="blur"/>
      <feComposite in="SourceGraphic"/>
    </filter>
  </defs>
  <g transform="matrix(1, 0, 0, 1, 0, 0)" filter="url(#Android)">
    <path id="Android-2" data-name="Android" d="M25.763,86h-.048a3.592,3.592,0,0,1-2.338-.844,3.707,3.707,0,0,1-1.4-2.906V74.127H14.182V82.25a3.819,3.819,0,0,1-7.637,0V74.127H2A2.041,2.041,0,0,1,.182,71.94V46.005H35.818v25.95A2.025,2.025,0,0,1,34,74.127H29.614V82.25A3.775,3.775,0,0,1,25.8,86Zm12.6-23.747v-15a3.819,3.819,0,0,1,7.637,0v15a3.819,3.819,0,0,1-7.637,0Zm-48.363,0v-15a3.775,3.775,0,0,1,3.818-3.749,3.776,3.776,0,0,1,3.819,3.749v15A3.775,3.775,0,0,1-6.182,66,3.775,3.775,0,0,1-10,62.253ZM.182,43.521C.341,41.178,1.487,33.163,9.155,29.9L6.243,26.523c-.064-.109.032-.266.207-.391s.365-.14.429-.062l3.023,3.5a22.142,22.142,0,0,1,8.081-1.327,21.976,21.976,0,0,1,8.05,1.374l3.055-3.562c.048-.094.255-.062.429.063.175.14.27.312.207.391l-2.943,3.421c7.7,3.328,8.829,11.233,8.972,13.593Zm23.5-7.89a2.149,2.149,0,1,0,2.147-2.077A2.123,2.123,0,0,0,23.68,35.631Zm-15.655,0a2.149,2.149,0,1,0,2.147-2.077A2.123,2.123,0,0,0,8.025,35.631Z" transform="translate(55 9)" fill="#27ebc1"/>
  </g>
</svg>
