<svg xmlns="http://www.w3.org/2000/svg" xmlns:xlink="http://www.w3.org/1999/xlink" width="150" height="150" viewBox="0 0 150 150">
  <defs>
    <filter id="APK" x="0" y="0" width="150" height="150" filterUnits="userSpaceOnUse">
      <feOffset dy="10" input="SourceAlpha"/>
      <feGaussianBlur stdDeviation="15" result="blur"/>
      <feFlood flood-color="#27ebc1" flood-opacity="0.4"/>
      <feComposite operator="in" in2="blur"/>
      <feComposite in="SourceGraphic"/>
    </filter>
  </defs>
  <g transform="matrix(1, 0, 0, 1, 0, 0)" filter="url(#APK)">
    <path id="APK-2" data-name="APK" d="M62,11V5H53V2H44a12,12,0,0,0-11.58,9H17V29.3a15,15,0,0,0-5.25,2.19L9.41,29.15,5.15,33.38l2.34,2.34A15,15,0,0,0,5.3,41H2v6H5.3a15,15,0,0,0,2.19,5.25L5.15,54.59l4.23,4.23,2.34-2.34A15,15,0,0,0,17,58.7V62h6V58.7a15,15,0,0,0,5.25-2.19l2.34,2.34,4.23-4.23-2.34-2.34A15,15,0,0,0,34.7,47H38V41H34.7a15,15,0,0,0-2.19-5.25l2.34-2.34-4.23-4.23-2.34,2.34A15,15,0,0,0,23,29.3V17h9.42A12,12,0,0,0,44,26h9V23h9V17H53V11Z" transform="translate(43 33)" fill="#27ebc1"/>
  </g>
</svg>
