<svg xmlns="http://www.w3.org/2000/svg" xmlns:xlink="http://www.w3.org/1999/xlink" width="244" height="250" viewBox="0 0 244 250">
  <defs>
    <linearGradient id="linear-gradient" x1="-2.263" y1="0.292" x2="-0.362" y2="-0.024" gradientUnits="objectBoundingBox">
      <stop offset="0" stop-color="#311944"/>
      <stop offset="1" stop-color="#a03976"/>
    </linearGradient>
    <linearGradient id="linear-gradient-2" x1="-60.506" y1="-5.675" x2="-14.693" y2="-12.095" xlink:href="#linear-gradient"/>
    <linearGradient id="linear-gradient-3" x1="-53.837" y1="-2.208" x2="-18.813" y2="-11.806" xlink:href="#linear-gradient"/>
    <linearGradient id="linear-gradient-4" x1="-69.672" y1="0.167" x2="-27.06" y2="-11" xlink:href="#linear-gradient"/>
    <linearGradient id="linear-gradient-5" x1="-70.305" y1="1.482" x2="-28.602" y2="-10.546" xlink:href="#linear-gradient"/>
    <linearGradient id="linear-gradient-6" x1="-70.505" y1="0.538" x2="-28.328" y2="-6.601" xlink:href="#linear-gradient"/>
    <linearGradient id="linear-gradient-7" x1="-74.233" y1="-1.682" x2="-27.788" y2="-10.795" xlink:href="#linear-gradient"/>
    <linearGradient id="linear-gradient-8" x1="-77.015" y1="-2.961" x2="-25.222" y2="-8.797" xlink:href="#linear-gradient"/>
    <linearGradient id="linear-gradient-9" x1="-61.062" y1="-5.322" x2="-16.951" y2="-11.921" xlink:href="#linear-gradient"/>
    <linearGradient id="linear-gradient-10" x1="-54.941" y1="-10.069" x2="-10.43" y2="-18.777" xlink:href="#linear-gradient"/>
    <linearGradient id="linear-gradient-11" x1="-57.085" y1="-10.662" x2="-10.184" y2="-19.152" xlink:href="#linear-gradient"/>
    <linearGradient id="linear-gradient-12" x1="-60.985" y1="-11.161" x2="-13.196" y2="-21.116" xlink:href="#linear-gradient"/>
    <linearGradient id="linear-gradient-13" x1="-0.845" y1="1.114" x2="-0.788" y2="-0.483" gradientUnits="objectBoundingBox">
      <stop offset="0" stop-color="#f36f56"/>
      <stop offset="1" stop-color="#ffc444"/>
    </linearGradient>
    <linearGradient id="linear-gradient-14" x1="-67.45" y1="0.839" x2="-67.314" y2="2.256" xlink:href="#linear-gradient-13"/>
    <linearGradient id="linear-gradient-15" x1="-10.953" y1="-0.467" x2="-11.441" y2="0.108" gradientUnits="objectBoundingBox">
      <stop offset="0" stop-color="#311944"/>
      <stop offset="1" stop-color="#893976"/>
    </linearGradient>
    <linearGradient id="linear-gradient-16" x1="-12.231" y1="-0.753" x2="-12.772" y2="0.082" xlink:href="#linear-gradient-15"/>
    <linearGradient id="linear-gradient-17" x1="6.631" y1="0.078" x2="5.521" y2="0.706" gradientUnits="objectBoundingBox">
      <stop offset="0" stop-color="#e38ddd"/>
      <stop offset="1" stop-color="#9571f6"/>
    </linearGradient>
    <clipPath id="clip-path">
      <path id="Path_13476" data-name="Path 13476" d="M2104.648,777.071c3.2-1.21,5.841-3.745,7.843-7.532a38.676,38.676,0,0,0,3.832-14.7c1.063-12.408-1.461-27.463-7.109-42.4s-13.718-27.883-22.728-36.486a38.63,38.63,0,0,0-12.6-8.485c-4.005-1.514-7.66-1.667-10.863-.459s-5.841,3.745-7.842,7.532a38.641,38.641,0,0,0-3.832,14.7c-1.064,12.407,1.461,27.463,7.109,42.4s13.719,27.889,22.728,36.487a38.637,38.637,0,0,0,12.6,8.485C2097.792,778.129,2101.447,778.283,2104.648,777.071Z" transform="translate(-2051.109 -666.208)" fill="none"/>
    </clipPath>
    <linearGradient id="linear-gradient-18" x1="0.85" y1="0.874" x2="1.964" y2="2.677" gradientUnits="objectBoundingBox">
      <stop offset="0" stop-color="#ff9085"/>
      <stop offset="1" stop-color="#fb6fbb"/>
    </linearGradient>
    <linearGradient id="linear-gradient-19" x1="-17.693" y1="5.586" x2="-16.487" y2="5.586" xlink:href="#linear-gradient-13"/>
    <linearGradient id="linear-gradient-20" x1="-7.817" y1="1.404" x2="-9.459" y2="7.695" gradientUnits="objectBoundingBox">
      <stop offset="0" stop-color="#444b8c"/>
      <stop offset="1" stop-color="#26264f"/>
    </linearGradient>
    <linearGradient id="linear-gradient-21" x1="5.926" y1="-21.735" x2="4.684" y2="-8.841" xlink:href="#linear-gradient-20"/>
    <linearGradient id="linear-gradient-22" x1="5.926" y1="-5.362" x2="6.892" y2="-5.362" xlink:href="#linear-gradient-13"/>
    <linearGradient id="linear-gradient-23" x1="-0.668" y1="1.531" x2="-2.371" y2="1.012" gradientUnits="objectBoundingBox">
      <stop offset="0" stop-color="#ab316d"/>
      <stop offset="1" stop-color="#792d3d"/>
    </linearGradient>
    <linearGradient id="linear-gradient-24" x1="-2.2" y1="0.773" x2="-3.359" y2="1.384" xlink:href="#linear-gradient-23"/>
    <linearGradient id="linear-gradient-25" x1="-38.09" y1="2.423" x2="-38.207" y2="1.328" xlink:href="#linear-gradient-20"/>
    <linearGradient id="linear-gradient-26" x1="0.417" y1="-0.915" x2="0.616" y2="3.156" xlink:href="#linear-gradient-13"/>
    <linearGradient id="linear-gradient-27" x1="54.705" y1="13.802" x2="56.158" y2="15.388" xlink:href="#linear-gradient-13"/>
    <linearGradient id="linear-gradient-28" x1="-3.911" y1="0.612" x2="-2.01" y2="0.296" xlink:href="#linear-gradient"/>
    <linearGradient id="linear-gradient-29" x1="-100.224" y1="0.838" x2="-54.411" y2="-5.581" xlink:href="#linear-gradient"/>
    <linearGradient id="linear-gradient-30" x1="-84.206" y1="7.532" x2="-49.18" y2="-2.067" xlink:href="#linear-gradient"/>
    <linearGradient id="linear-gradient-31" x1="-106.637" y1="11.501" x2="-64.015" y2="0.331" xlink:href="#linear-gradient"/>
    <linearGradient id="linear-gradient-32" x1="-106.485" y1="13.691" x2="-64.772" y2="1.66" xlink:href="#linear-gradient"/>
    <linearGradient id="linear-gradient-33" x1="-107.091" y1="7.782" x2="-64.906" y2="0.643" xlink:href="#linear-gradient"/>
    <linearGradient id="linear-gradient-34" x1="-114.531" y1="7.567" x2="-68.073" y2="-1.549" xlink:href="#linear-gradient"/>
    <linearGradient id="linear-gradient-35" x1="-121.957" y1="2.96" x2="-70.146" y2="-2.875" xlink:href="#linear-gradient"/>
    <linearGradient id="linear-gradient-36" x1="-99.317" y1="1.374" x2="-55.2" y2="-5.225" xlink:href="#linear-gradient"/>
    <linearGradient id="linear-gradient-37" x1="-93.487" y1="-1.234" x2="-48.995" y2="-9.941" xlink:href="#linear-gradient"/>
    <linearGradient id="linear-gradient-38" x1="-97.766" y1="-2.048" x2="-50.855" y2="-10.537" xlink:href="#linear-gradient"/>
    <linearGradient id="linear-gradient-39" x1="-102.402" y1="-1.06" x2="-54.619" y2="-11.019" xlink:href="#linear-gradient"/>
  </defs>
  <g id="Wavy_Bus-34_Single-04_Converted_-01" data-name="Wavy_Bus-34_Single-04 [Converted]-01" transform="translate(-450.713 -483.492)">
    <g id="Illustration" transform="translate(450.713 483.492)">
      <g id="Online_marketing" data-name="Online marketing" transform="translate(0)">
        <path id="Path_13427" data-name="Path 13427" d="M851.334,545.78l-4.725,1.448a35.207,35.207,0,0,0-4.915-8.266l3.29-3.539a2.47,2.47,0,0,0-.137-3.449l-2.6-2.509a2.41,2.41,0,0,0-3.428.027l-3.264,3.443a36.351,36.351,0,0,0-8.612-4.908l1.082-4.593a2.57,2.57,0,0,0-1.868-3.031l-3.592-.954a2.446,2.446,0,0,0-3.043,1.745l-1.1,4.553a36.946,36.946,0,0,0-10.287,0l-1.394-4.578a2.722,2.722,0,0,0-3.264-1.8l-3.73.952a2.473,2.473,0,0,0-1.807,3.123l1.41,4.632a37.419,37.419,0,0,0-9.173,5.257l-3.73-3.435a2.875,2.875,0,0,0-3.905.03l-2.839,2.75a2.523,2.523,0,0,0,.071,3.722l3.849,3.506a37.152,37.152,0,0,0-5.252,9.25l-5.4-1.2a2.926,2.926,0,0,0-3.475,2l-1.036,3.858a2.626,2.626,0,0,0,2.088,3.232l5.565,1.185a35.51,35.51,0,0,0,.356,10.5l-5.709,1.745a2.83,2.83,0,0,0-1.995,3.453l1.163,3.815a2.778,2.778,0,0,0,3.568,1.714l5.842-1.859a35.214,35.214,0,0,0,5.738,8.567l-4.281,4.514a2.645,2.645,0,0,0,.073,3.858l3,2.6a2.9,2.9,0,0,0,3.983-.333l4.311-4.631a36.509,36.509,0,0,0,9.19,4.257l-1.458,6.051a2.5,2.5,0,0,0,2.012,3.115l3.876.653a2.906,2.906,0,0,0,3.243-2.2l1.427-6.054a37.124,37.124,0,0,0,9.91-.907l1.745,5.732a2.433,2.433,0,0,0,3.231,1.551l3.613-1.34a2.772,2.772,0,0,0,1.7-3.351L828.921,594A37.379,37.379,0,0,0,837,588.528l4.2,3.826a2.426,2.426,0,0,0,3.49-.29l2.438-2.838a2.589,2.589,0,0,0-.141-3.568l-4.1-3.772a37.069,37.069,0,0,0,4.391-8.509l5.255,1.119a2.434,2.434,0,0,0,2.847-1.929l.752-3.556a2.451,2.451,0,0,0-1.806-2.928l-5.1-1.135a35.535,35.535,0,0,0-.253-9.5l4.836-1.539a2.438,2.438,0,0,0,1.543-3.05l-1.045-3.435A2.4,2.4,0,0,0,851.334,545.78Zm-29.678,39.863A25.585,25.585,0,0,1,788.573,569.2c-4.243-13.931,4.11-28.5,18.2-32.418A25.62,25.62,0,0,1,838.3,553.705a26.024,26.024,0,0,1-16.646,31.94Z" transform="translate(-746.782 -518.223)" fill="url(#linear-gradient)"/>
        <path id="Path_13428" data-name="Path 13428" d="M936.234,617.94l-3.4.91-.242,3.372Z" transform="translate(-895.917 -607.819)" fill="url(#linear-gradient-2)"/>
        <path id="Path_13429" data-name="Path 13429" d="M1340.35,511.083l3.894-1.143.873,2.864Z" transform="translate(-1266.865 -509.738)" fill="url(#linear-gradient-3)"/>
        <path id="Path_13430" data-name="Path 13430" d="M1547.24,613.612l3.917-1.022-.307,2.462Z" transform="translate(-1454.914 -602.96)" fill="url(#linear-gradient-4)"/>
        <path id="Path_13431" data-name="Path 13431" d="M1675.39,798.381l4-.881-.7,2.285Z" transform="translate(-1571.395 -770.886)" fill="url(#linear-gradient-5)"/>
        <path id="Path_13432" data-name="Path 13432" d="M1693.54,1082.56l3.958-.614-.479-3.237Z" transform="translate(-1587.892 -1026.689)" fill="url(#linear-gradient-6)"/>
        <path id="Path_13433" data-name="Path 13433" d="M1581.88,1291.036l3.594-.418-.5-2.6Z" transform="translate(-1486.399 -1216.926)" fill="url(#linear-gradient-7)"/>
        <path id="Path_13434" data-name="Path 13434" d="M1384.653,1400.341l-3.223.389,1.441-4.71Z" transform="translate(-1304.2 -1315.091)" fill="url(#linear-gradient-8)"/>
        <path id="Path_13435" data-name="Path 13435" d="M1187.864,1424.446l-3.784.349,1.733-4.165Z" transform="translate(-1124.822 -1337.457)" fill="url(#linear-gradient-9)"/>
        <path id="Path_13436" data-name="Path 13436" d="M795.94,824.136l3.75-1.016-.645,3.157Z" transform="translate(-771.818 -794.153)" fill="url(#linear-gradient-10)"/>
        <path id="Path_13437" data-name="Path 13437" d="M812.11,1143.938l3.559-.534-1.12-2.7Z" transform="translate(-786.503 -1083.03)" fill="url(#linear-gradient-11)"/>
        <path id="Path_13438" data-name="Path 13438" d="M959.38,1346.441l3.493-.472-.4-2.289Z" transform="translate(-920.246 -1267.515)" fill="url(#linear-gradient-12)"/>
        <path id="Path_13439" data-name="Path 13439" d="M887.136,534.446l-4.764,1.459a35.472,35.472,0,0,0-4.955-8.334l3.318-3.565a2.491,2.491,0,0,0-.139-3.477L877.976,518a2.429,2.429,0,0,0-3.456.027l-3.293,3.471a36.587,36.587,0,0,0-8.684-4.948l1.092-4.628a2.587,2.587,0,0,0-1.884-3.054l-3.622-.963a2.461,2.461,0,0,0-3.068,1.764l-1.11,4.592a37.267,37.267,0,0,0-10.379,0l-1.406-4.615a2.745,2.745,0,0,0-3.291-1.816l-3.761.961a2.5,2.5,0,0,0-1.821,3.151l1.421,4.665a37.747,37.747,0,0,0-9.249,5.3l-3.76-3.464a2.9,2.9,0,0,0-3.938.031l-2.863,2.772a2.544,2.544,0,0,0,.071,3.753l3.886,3.527a37.473,37.473,0,0,0-5.3,9.323l-5.439-1.211a2.951,2.951,0,0,0-3.505,2.014l-1.045,3.888a2.647,2.647,0,0,0,2.105,3.258l5.611,1.194a35.819,35.819,0,0,0,.36,10.588l-5.757,1.764a2.851,2.851,0,0,0-2.012,3.48l1.172,3.847a2.8,2.8,0,0,0,3.6,1.728l5.89-1.875a35.493,35.493,0,0,0,5.786,8.634l-4.317,4.551a2.669,2.669,0,0,0,.073,3.893l3.031,2.617a2.932,2.932,0,0,0,4.017-.335l4.345-4.669a36.8,36.8,0,0,0,9.268,4.29l-1.469,6.089a2.521,2.521,0,0,0,2.029,3.141l3.907.658a2.929,2.929,0,0,0,3.271-2.221l1.439-6.1a37.441,37.441,0,0,0,9.992-.919l1.761,5.779a2.449,2.449,0,0,0,3.258,1.561l3.642-1.351a2.8,2.8,0,0,0,1.709-3.378l-1.745-5.716a37.7,37.7,0,0,0,8.141-5.517l4.235,3.858a2.448,2.448,0,0,0,3.515-.294l2.458-2.86a2.61,2.61,0,0,0-.142-3.6l-4.133-3.8a37.351,37.351,0,0,0,4.427-8.579l5.3,1.128a2.453,2.453,0,0,0,2.87-1.949l.759-3.582a2.47,2.47,0,0,0-1.82-2.952L885,553.755a35.824,35.824,0,0,0-.254-9.581l4.876-1.551a2.458,2.458,0,0,0,1.556-3.075l-1.052-3.456A2.412,2.412,0,0,0,887.136,534.446Zm-29.925,40.19a25.794,25.794,0,0,1-33.357-16.57c-4.276-14.04,4.146-28.732,18.354-32.684A25.83,25.83,0,0,1,874,542.442,26.233,26.233,0,0,1,857.212,574.636Z" transform="translate(-778.671 -507.746)" fill="#f93366"/>
        <path id="Path_13440" data-name="Path 13440" d="M1646.161,2584.307a10.806,10.806,0,0,1-7.164-8.136l-5.327-26.361-45.558,1.617-5.6,27.463c-.785,3.846,2.358,7.7,5.979,9.121l19.061,7.458a24.784,24.784,0,0,0,11.144,1.616l40.277-3.446a2.5,2.5,0,0,0,2.26-2.214c.137-1.187.962-2.521-.16-2.894Z" transform="translate(-1487.236 -2364.243)" fill="#bfc8d6"/>
        <path id="Path_13441" data-name="Path 13441" d="M1661.728,2571.144a10.715,10.715,0,0,1-7.159-8.035l-5.32-26.029-44.45,1.6-5.6,27.116a7.934,7.934,0,0,0,4.908,9l19.042,7.365a25.024,25.024,0,0,0,11.132,1.6l40.243-3.4a2.48,2.48,0,0,0,.564-4.834Z" transform="translate(-1502.36 -2352.682)" fill="#85c5df"/>
        <path id="Path_13442" data-name="Path 13442" d="M542.226,1088.238c-4.9.295-8.906-2.91-8.906-7.146V928.425c0-4.236,4.007-7.507,8.906-7.293l226.532,9.9a6.88,6.88,0,0,1,6.508,6.818v129.843a7.025,7.025,0,0,1-6.508,6.925Z" transform="translate(-533.32 -883.679)" fill="#bfc8d6"/>
        <path id="Path_13443" data-name="Path 13443" d="M564.586,1088.238c-4.9.295-8.906-2.91-8.906-7.146V928.425c0-4.236,4.007-7.507,8.906-7.293l226.532,9.9a6.88,6.88,0,0,1,6.508,6.818v129.843a7.025,7.025,0,0,1-6.508,6.925Z" transform="translate(-553.626 -883.679)" fill="#ebeff2"/>
        <path id="Path_13444" data-name="Path 13444" d="M832.559,969.346l-226.472-9.394c-2.618-.109-4.747,1.636-4.747,3.9v152.27c0,2.262,2.128,3.972,4.747,3.821l226.472-13.121a3.747,3.747,0,0,0,3.485-3.7V972.994A3.673,3.673,0,0,0,832.559,969.346Z" transform="translate(-595.092 -919.314)" fill="#85c5df" opacity="0.3"/>
        <path id="Path_13445" data-name="Path 13445" d="M635.01,1131.568a1.639,1.639,0,0,1-1.85-1.5V988.556a1.659,1.659,0,0,1,1.85-1.522l226.428,9.049a1.435,1.435,0,0,1,1.365,1.423v121.329a1.453,1.453,0,0,1-1.365,1.437Z" transform="translate(-623.99 -943.828)" fill="#a73f92"/>
        <path id="Path_13446" data-name="Path 13446" d="M767.45,1065.167c-19.058-11.89-5.746-45.7-27.149-62.685-21.578-17.125-51.94,3.879-67.055-13.856-11.255-13.206,1.912-29.151-8.833-41.571-16.852-19.472-59.993,7.31-79.813-11.877-2.815-2.724-5.654-6.858-7.27-13.488l-12.764-.558c-4.9-.214-8.906,3.057-8.906,7.293v152.667c0,4.236,4.007,7.44,8.906,7.146l226.532-13.62a7.021,7.021,0,0,0,6.508-6.926v-2.308C782.566,1070.531,773.371,1068.861,767.45,1065.167Z" transform="translate(-553.608 -883.678)" fill="#86c5df" opacity="0.6"/>
        <path id="Path_13447" data-name="Path 13447" d="M791.59,2127.227l55-2.3V2096.1l-55,1.334Z" transform="translate(-767.868 -1951.528)" fill="#f4f7fa"/>
        <g id="Group_4569" data-name="Group 4569" transform="translate(23.953 57.186)">
          <g id="Group_4568" data-name="Group 4568" opacity="0.7">
            <path id="Path_13448" data-name="Path 13448" d="M2395.59,1287.228l8.355-.116v-61.088l-8.355-.214Z" transform="translate(-2248.493 -1217.682)" fill="#f4f7fa"/>
            <path id="Path_13449" data-name="Path 13449" d="M2231.43,1590.176l8.517-.118V1559.22l-8.517-.051Z" transform="translate(-2099.411 -1520.423)" fill="#f4f7fa"/>
            <path id="Path_13450" data-name="Path 13450" d="M2064.06,1221.271l8.683-.12v-68.175l-8.683-.255Z" transform="translate(-1947.414 -1151.305)" fill="#f4f7fa"/>
            <path id="Path_13451" data-name="Path 13451" d="M1893.38,1318.468l8.856-.122v-58.632l-8.856-.2Z" transform="translate(-1792.411 -1248.287)" fill="#f4f7fa"/>
            <path id="Path_13452" data-name="Path 13452" d="M1719.3,1745.592l9.034-.125V1729.59l-9.034.035Z" transform="translate(-1634.32 -1675.19)" fill="#f4f7fa"/>
            <path id="Path_13453" data-name="Path 13453" d="M1541.71,1531.466l9.215-.127v-37.693l-9.215-.086Z" transform="translate(-1473.042 -1460.839)" fill="#f4f7fa"/>
            <path id="Path_13454" data-name="Path 13454" d="M1360.51,1363.1l9.4-.13v-54.873l-9.4-.185Z" transform="translate(-1308.485 -1292.241)" fill="#f4f7fa"/>
            <path id="Path_13455" data-name="Path 13455" d="M1175.59,1509.29l9.6-.132v-40.427l-9.6-.1Z" transform="translate(-1140.55 -1438.199)" fill="#f4f7fa"/>
            <path id="Path_13456" data-name="Path 13456" d="M986.83,1283.845l9.8-.135v-63.354l-9.8-.235Z" transform="translate(-969.128 -1212.515)" fill="#f4f7fa"/>
            <path id="Path_13457" data-name="Path 13457" d="M794.1,1208.894l10-.138V1137.6l-10-.281Z" transform="translate(-794.1 -1137.32)" fill="#f4f7fa"/>
          </g>
        </g>
        <path id="Path_13458" data-name="Path 13458" d="M2570.09,2302.695l41.1-1.715v-4.16l-41.1,1.6Z" transform="translate(-2385.1 -2133.826)" fill="#f4f7fa"/>
        <path id="Path_13459" data-name="Path 13459" d="M2570.09,1716.664l41.1-.244v-4.16l-41.1.13Z" transform="translate(-2385.1 -1602.518)" fill="#f4f7fa"/>
        <path id="Path_13460" data-name="Path 13460" d="M2570.09,1638.313l41.1-.049v-4.16l-41.1-.064Z" transform="translate(-2385.1 -1531.424)" fill="#f4f7fa"/>
        <path id="Path_13461" data-name="Path 13461" d="M2570.09,2229.158l6.7-.255v-6.553l-6.7.225Z" transform="translate(-2384.644 -2066.146)" fill="#f4f7fa"/>
        <g id="Group_4570" data-name="Group 4570" transform="translate(23.72 152.096)">
          <path id="Path_13462" data-name="Path 13462" d="M806.673,2183.692c3.49.131,4.013-1.892,7.453-2.087,5.833-.332,7.262,5.346,12.884,5.259,4.593-.071,5.743-3.9,10.287-3.479,3.376.316,4.041,2.563,7.334,2.887a7.965,7.965,0,0,0,1.934-.053v13.328l-55,2.3V2178.26a19.831,19.831,0,0,1,6.642,1.555C801.921,2181.439,803.15,2183.563,806.673,2183.692Z" transform="translate(-791.57 -2178.26)" fill="#f4f7fa"/>
        </g>
        <path id="Path_13463" data-name="Path 13463" d="M2570.09,1204.637l41.1.219V1168.8l-41.1-1.207Z" transform="translate(-2385.1 -1107.547)" fill="#85c5df"/>
        <path id="Path_13464" data-name="Path 13464" d="M794.1,1976.249l155.453-3.472v-6.516L794.1,1969.078Z" transform="translate(-770.147 -1833.401)" fill="#f4f7fa"/>
        <path id="Path_13465" data-name="Path 13465" d="M1462.89,2096.093l94.024-3.924V2064.65l-94.024,2.253Z" transform="translate(-1378.681 -1922.943)" fill="#f4f7fa"/>
        <path id="Path_13466" data-name="Path 13466" d="M1199.242,2072.14s2.008,10.709-8.962,18.9l12.242,2.258s3.49-7.44.072-19.279Z" transform="translate(-1130.48 -1929.693)" fill="url(#linear-gradient-13)"/>
        <path id="Path_13467" data-name="Path 13467" d="M1280.231,2042.366a6.9,6.9,0,0,0,.425-2.361c-.142-.719-1.917-1.6-3.144-2.532s.1,1,.393,1.442a3.533,3.533,0,0,1,1.233,2.631Z" transform="translate(-1209.281 -1897.873)" fill="url(#linear-gradient-14)"/>
        <path id="Path_13468" data-name="Path 13468" d="M1105.053,1709.7a12.562,12.562,0,0,1-12.718-3.344l-46.6-49.415a10.961,10.961,0,0,1,.512-15.658c4.567-4.194,13.919-4.826,18.241-.291l47.474,49.812a10.718,10.718,0,0,1-.764,15.864A26.114,26.114,0,0,1,1105.053,1709.7Z" transform="translate(-996.469 -1535.212)" fill="url(#linear-gradient-15)"/>
        <path id="Path_13469" data-name="Path 13469" d="M1046.239,1641.289c4.567-4.2,13.919-4.827,18.24-.292l43.408,45.545c-4.206.465-8.71,2.27-14.512.1-9.656-3.616-9.171-13.113-17.665-18.2-3.882-2.323-10.064-3.978-20.357-1.286l-9.628-10.211A10.958,10.958,0,0,1,1046.239,1641.289Z" transform="translate(-996.44 -1535.084)" opacity="0.3" fill="url(#linear-gradient-16)"/>
        <path id="Path_13470" data-name="Path 13470" d="M828.516,1548.98a5.045,5.045,0,0,1,.643-.192l15.032-5.879,14.844,39.247-14.65,5.314a4.972,4.972,0,0,1-1.088.577c-5.174,1.957-12.675-5.2-16.756-15.993S823.343,1550.938,828.516,1548.98Z" transform="translate(-797.279 -1448.749)" fill="#a73f92"/>
        <path id="Path_13471" data-name="Path 13471" d="M1043.27,774.651c-.774,15.232,4.151,28.253,14.844,39.247l125.933-6.37L1143.541,696.94Z" transform="translate(-997.288 -679.563)" fill="#26eac0"/>
        <path id="Path_13472" data-name="Path 13472" d="M1160.252,1535.033c-12.2-.006-21.381-14.237-33.972-10.072-9.878,3.269-9.236,13.821-19.155,16.406-10.148,2.646-15.764-7.251-28.09-6.825-5.6.193-10.682,2.47-15.186,5.8a51.28,51.28,0,0,0,13.023,21.974l125.933-6.37-20.786-34.887C1173.392,1531.709,1166.169,1535.037,1160.252,1535.033Z" transform="translate(-1016.07 -1428.869)" fill="#1bbc9a" opacity="0.3"/>
        <ellipse id="Ellipse_100" data-name="Ellipse 100" cx="29.2" cy="60.899" rx="29.2" ry="60.899" transform="matrix(0.935, -0.354, 0.354, 0.935, 121.191, 23.756)" fill="url(#linear-gradient-17)"/>
        <path id="Path_13473" data-name="Path 13473" d="M2104.649,777.071c3.2-1.21,5.841-3.745,7.843-7.532a38.667,38.667,0,0,0,3.832-14.7c1.063-12.408-1.461-27.463-7.109-42.4s-13.719-27.883-22.728-36.486a38.637,38.637,0,0,0-12.6-8.485c-4.005-1.514-7.66-1.667-10.863-.459s-5.841,3.745-7.842,7.532a38.632,38.632,0,0,0-3.832,14.7,78.338,78.338,0,0,0,.514,16.75c1.08,8.227,9.2,14.17,12.487,22.858,3.491,9.238,2.025,20.509,7.023,27.672a77.031,77.031,0,0,0,9.813,11.6,38.645,38.645,0,0,0,12.6,8.485C2097.793,778.129,2101.448,778.283,2104.649,777.071Z" transform="translate(-1913.312 -651.653)" fill="#a73f92"/>
        <g id="Group_4571" data-name="Group 4571" transform="translate(137.798 14.555)" clip-path="url(#clip-path)">
          <path id="Path_13474" data-name="Path 13474" d="M1999.532,1083.429c5.458,14.431.237,29.5-11.5,33.607-11.551,4.042-25.086-4.1-30.392-18.133s-.5-28.951,10.9-33.389C1980.124,1061,1994.07,1069,1999.532,1083.429Z" transform="translate(-1964.272 -1027.695)" fill="#f93366"/>
          <path id="Path_13475" data-name="Path 13475" d="M2189.164,1122.1c4.053,10.716,2.616,20.986-3.129,22.911-5.656,1.895-13.371-5.036-17.311-15.454s-2.7-20.615,2.839-22.805C2177.194,1104.526,2185.11,1111.384,2189.164,1122.1Z" transform="translate(-2155.832 -1065.908)" fill="#f93366" opacity="0.3"/>
        </g>
        <g id="Group_4574" data-name="Group 4574" transform="translate(183.735 88.018)" opacity="0.3">
          <path id="Path_13484" data-name="Path 13484" d="M2576.209,1500.488c-1.37-5.144,1.837-9.042-.676-12.72-2.564-3.756-7.3-1.764-11.3-5.244-1.554-1.352-3.129-3.645-3.809-7.825a14.306,14.306,0,0,0-6,8.909c-1.784,8.909,5.594,17.876,16.315,19.995a23.091,23.091,0,0,0,7.083.31A10.635,10.635,0,0,1,2576.209,1500.488Z" transform="translate(-2554.162 -1474.7)" fill="url(#linear-gradient-18)"/>
        </g>
        <path id="Path_13485" data-name="Path 13485" d="M1212.911,3059.62l-.251,4.021a1.517,1.517,0,0,0,1.669.184l1.2-3.95Z" transform="translate(-1150.798 -2827.227)" fill="url(#linear-gradient-19)"/>
        <path id="Path_13486" data-name="Path 13486" d="M1204.7,3091.81s-1.969.8-1.586,1.675a21.718,21.718,0,0,0,1.529,2.4,2.3,2.3,0,0,0,2.543.887c.319-.091.643-.183.934-.262a.624.624,0,0,0,.051-1.194,4.592,4.592,0,0,0-.8-.218c-.721-.111-1.713-1.814-1.829-2.5A1.027,1.027,0,0,0,1204.7,3091.81Z" transform="translate(-1142.08 -2856.46)" fill="url(#linear-gradient-20)"/>
        <path id="Path_13487" data-name="Path 13487" d="M1090.438,2639.47c2.9,1,13.627,5.052,16.016,14.355a16.55,16.55,0,0,1,.469,4.133c.061,9.387-5.4,17.331-9.369,21.953l-3.754-.064a21.332,21.332,0,0,1-.3-10.012c1.372-6.162,4.934-7.76,4.247-10.785-1.247-5.493-14-4.662-15.2-9.58C1082.113,2647.693,1083.066,2644.679,1090.438,2639.47Z" transform="translate(-1032.495 -2445.667)" fill="#5367c7"/>
        <path id="Path_13488" data-name="Path 13488" d="M772.15,3229.7l5.447-.127a.368.368,0,0,0,.222-.643,1.377,1.377,0,0,0-1.051-.341c-1.035.107-3.36-1.341-4.414-1.031-.344.1-.624.912-.767,1.136a.652.652,0,0,0,.563,1.005Z" transform="translate(-749.607 -2979.699)" fill="url(#linear-gradient-21)"/>
        <path id="Path_13489" data-name="Path 13489" d="M783.24,3205.75l-2.24,2.043a2.494,2.494,0,0,0,1.929.335l2.3-1.577Z" transform="translate(-758.25 -2959.935)" fill="url(#linear-gradient-22)"/>
        <g id="Group_4575" data-name="Group 4575" transform="translate(49.975 198.157)" opacity="0.3">
          <path id="Path_13490" data-name="Path 13490" d="M1100.074,2706.743c1.5-4.062,3.307-9.069,1.247-11.912-2.084-2.877-6.653-.449-11.234-2.767a11.4,11.4,0,0,1-4.9-5.184c-2.572,2.655-2.922,4.438-2.626,5.646,1.2,4.918,13.955,4.087,15.2,9.58.687,3.024-2.875,4.623-4.247,10.785a20.819,20.819,0,0,0,.044,8.933,30.913,30.913,0,0,1,2.2-6.741C1097.4,2711.521,1098.489,2711.021,1100.074,2706.743Z" transform="translate(-1082.473 -2686.88)" fill="url(#linear-gradient-23)"/>
        </g>
        <path id="Path_13491" data-name="Path 13491" d="M828.311,2624.176a97.105,97.105,0,0,1-33.033,54.331,4.571,4.571,0,0,1-3.288-.252,31.225,31.225,0,0,1,3.071-9.306c3.467-6.672,6.553-6.458,10.034-12.346,2.55-4.312,3.378-8.891,5.036-18.051,1.28-7.073,1.28-8.764,3.031-10.792C816.708,2623.659,823.362,2623.613,828.311,2624.176Z" transform="translate(-768.231 -2431.547)" fill="#5367c7"/>
        <g id="Group_4576" data-name="Group 4576" transform="translate(23.76 193.004)" opacity="0.3">
          <path id="Path_13492" data-name="Path 13492" d="M796.4,2676.686c1.236-1.952,3.432-3.985,7.76-8,4.475-4.145,4.3-3.4,5.183-4.62,3.943-5.484,1.807-11.343,2.783-18.415.544-3.945,2.286-9.1,7.357-14.875a10.946,10.946,0,0,0-6.309,3.208c-2.034,2.245-1.885,4.442-3.031,10.792-1.653,9.16-2.486,13.74-5.036,18.051-3.481,5.888-6.567,5.673-10.034,12.346a31.227,31.227,0,0,0-3.072,9.306,4.547,4.547,0,0,0,2.673.39C794.388,2680.238,795.77,2677.676,796.4,2676.686Z" transform="translate(-792 -2630.78)" fill="url(#linear-gradient-24)"/>
        </g>
        <path id="Path_13493" data-name="Path 13493" d="M1065.046,2115.612c.6-1.171.84-1.164.986-1.783.333-1.408-.526-3.2-1.256-3.222-.469-.017-.508.713-1.5,1.853-1.218,1.393-1.957,1.21-2.674,2.421-.167.283-.919,1.562-.459,2.509.593,1.214,2.928,1.406,3.9.47C1064.51,2117.415,1064.316,2117.055,1065.046,2115.612Z" transform="translate(-1012.039 -1964.588)" fill="url(#linear-gradient-25)"/>
        <path id="Path_13494" data-name="Path 13494" d="M1057.875,2178.827a13.858,13.858,0,0,1,.121,4.036c-.269,1.635-3.3,3.334-3.879,3.822s1.54,1.016,3.49.76,7.274-1.959,8.083-2.909-.942-.482-2.416-.662-2.881-2.649-2.924-3.91S1057.875,2178.827,1057.875,2178.827Z" transform="translate(-1006.619 -2026.595)" fill="url(#linear-gradient-26)"/>
        <path id="Path_13495" data-name="Path 13495" d="M1088.575,2154.58a2.877,2.877,0,0,0,2.809-.4c1.181-.945-.575-3.847-1.776-3.883a1.9,1.9,0,0,0-1.332.7c-.2.248-.216.414-.558.812-.314.367-.453.4-.5.581-.06.223.043.6.851,1.239a.819.819,0,0,0-.885.266.515.515,0,0,0-.053.275C1087.18,2154.6,1087.752,2154.805,1088.575,2154.58Z" transform="translate(-1036.702 -2000.644)" fill="url(#linear-gradient-27)"/>
        <path id="Path_13496" data-name="Path 13496" d="M1459.26,2060.3s.9-.125.621-1.848c-.22-1.35-.053-1.8.266-1.561s.367,1.02.367,1.02a6.371,6.371,0,0,0,1.641-2.3c.479-1.3.787-.205.889.445a5.9,5.9,0,0,1-1.128,3.043,8.127,8.127,0,0,0-1.095,2.035Z" transform="translate(-1374.945 -1914.039)" fill="#f8934e"/>
        <path id="Path_13497" data-name="Path 13497" d="M1020.533,2096.366l-3.079-2.156c-1.248,7.675-4.086,10.688-6.5,12-5.816,3.178-11.005-2.486-22.136-.174-3.068.636-8.414,1.823-11.378,6.192-.78,1.149-1.057,2.021-2.35,10.259-1.653,10.533-1.713,12.371-1.48,14.639.426,4.15.685,6.666,2.6,8.891,5.082,5.912,15.883,2.864,17.237,2.462,2.5-.741,6.39-1.893,7.934-5.2.728-1.556.65-2.978-.467-8.666-2.213-11.267-2.495-12-1.877-13.226,2.084-4.164,8.689-1.781,14.268-5.653C1016.567,2113.479,1020.244,2108.541,1020.533,2096.366Z" transform="translate(-933.506 -1949.973)" fill="#ffc249"/>
        <path id="Path_13498" data-name="Path 13498" d="M1104.145,2304.372c1.088-2.234-.375-4.292,1.23-6.98,2.047-3.421,5.728-2.26,7.113-4.789,2.37-4.323-6.956-10.352-5.061-17.235.9-3.287,4.063-5.666,6.7-6.566,5.859-2,9.691,3.1,15.185,1.5a9.43,9.43,0,0,0,4.307-2.786,13.686,13.686,0,0,1-4.56,5.6c-5.579,3.873-12.184,1.49-14.268,5.653-.617,1.234-.335,1.963,1.877,13.227,1.118,5.688,1.194,7.109.467,8.665-1.544,3.307-5.432,4.457-7.934,5.2a28.559,28.559,0,0,1-8.228,1.132A5.567,5.567,0,0,0,1104.145,2304.372Z" transform="translate(-1049.35 -2107.403)" fill="#f1aa1d" opacity="0.88"/>
        <path id="Path_13499" data-name="Path 13499" d="M2368.722,2159.358l-3.005.918a22.384,22.384,0,0,0-3.123-5.258l2.093-2.249a1.57,1.57,0,0,0-.087-2.193l-1.654-1.6a1.531,1.531,0,0,0-2.179.016l-2.077,2.19a23.08,23.08,0,0,0-5.477-3.123l.688-2.921a1.631,1.631,0,0,0-1.187-1.929l-2.286-.607a1.554,1.554,0,0,0-1.935,1.112l-.7,2.9a23.542,23.542,0,0,0-6.544,0l-.887-2.911a1.732,1.732,0,0,0-2.076-1.146l-2.372.606a1.575,1.575,0,0,0-1.149,1.988l.9,2.943a23.815,23.815,0,0,0-5.834,3.343l-2.375-2.183a1.83,1.83,0,0,0-2.484.019l-1.8,1.745a1.6,1.6,0,0,0,.044,2.367l2.448,2.23a23.613,23.613,0,0,0-3.34,5.878l-3.432-.764a1.86,1.86,0,0,0-2.211,1.27l-.659,2.454a1.671,1.671,0,0,0,1.328,2.055l3.539.753a22.646,22.646,0,0,0,.228,6.679l-3.632,1.123a1.8,1.8,0,0,0-1.269,2.2l.735,2.427a1.768,1.768,0,0,0,2.27,1.09l3.716-1.183a22.365,22.365,0,0,0,3.649,5.449l-2.717,2.871a1.683,1.683,0,0,0,.046,2.455l1.909,1.653a1.847,1.847,0,0,0,2.533-.212l2.741-2.944a23.183,23.183,0,0,0,5.845,2.706l-.928,3.841a1.59,1.59,0,0,0,1.281,1.981l2.464.415a1.849,1.849,0,0,0,2.063-1.4l.908-3.851a23.6,23.6,0,0,0,6.3-.576l1.11,3.646a1.548,1.548,0,0,0,2.055.987l2.3-.853a1.762,1.762,0,0,0,1.079-2.131l-1.1-3.605a23.819,23.819,0,0,0,5.135-3.48l2.672,2.433a1.543,1.543,0,0,0,2.217-.183l1.55-1.805a1.644,1.644,0,0,0-.092-2.27l-2.6-2.4a23.552,23.552,0,0,0,2.792-5.412l3.342.712a1.546,1.546,0,0,0,1.81-1.23l.479-2.261a1.559,1.559,0,0,0-1.148-1.863l-3.242-.722a22.611,22.611,0,0,0-.161-6.043l3.076-.979a1.55,1.55,0,0,0,.981-1.94l-.663-2.18a1.523,1.523,0,0,0-1.89-1.044Zm-18.875,25.351a16.271,16.271,0,0,1-21.042-10.454,16.522,16.522,0,0,1,11.573-20.619,16.3,16.3,0,0,1,20.052,10.763A16.546,16.546,0,0,1,2349.847,2184.708Z" transform="translate(-2154.309 -1993.875)" fill="url(#linear-gradient-28)"/>
        <path id="Path_13500" data-name="Path 13500" d="M2422.717,2205.26l-2.164.579-.154,2.145Z" transform="translate(-2248.555 -2050.592)" fill="url(#linear-gradient-29)"/>
        <path id="Path_13501" data-name="Path 13501" d="M2679.74,2137.3l2.476-.728.555,1.822Z" transform="translate(-2484.678 -1988.156)" fill="url(#linear-gradient-30)"/>
        <path id="Path_13502" data-name="Path 13502" d="M2811.33,2202.51l2.491-.65-.2,1.565Z" transform="translate(-2604.182 -2047.496)" fill="url(#linear-gradient-31)"/>
        <path id="Path_13503" data-name="Path 13503" d="M2892.83,2320.02l2.545-.56-.444,1.453Z" transform="translate(-2678.197 -2154.38)" fill="url(#linear-gradient-32)"/>
        <path id="Path_13504" data-name="Path 13504" d="M2904.38,2500.758l2.516-.389-.3-2.059Z" transform="translate(-2688.685 -2316.939)" fill="url(#linear-gradient-33)"/>
        <path id="Path_13505" data-name="Path 13505" d="M2833.36,2633.357l2.285-.266-.315-1.652Z" transform="translate(-2624.188 -2437.936)" fill="url(#linear-gradient-34)"/>
        <path id="Path_13506" data-name="Path 13506" d="M2707.919,2702.868l-2.049.248.917-3Z" transform="translate(-2508.409 -2500.365)" fill="url(#linear-gradient-35)"/>
        <path id="Path_13507" data-name="Path 13507" d="M2582.756,2718.207l-2.406.222,1.1-2.649Z" transform="translate(-2393.94 -2514.968)" fill="url(#linear-gradient-36)"/>
        <path id="Path_13508" data-name="Path 13508" d="M2333.49,2336.406l2.386-.646-.411,2.008Z" transform="translate(-2169.56 -2169.198)" fill="url(#linear-gradient-37)"/>
        <path id="Path_13509" data-name="Path 13509" d="M2343.78,2539.8l2.263-.34-.712-1.72Z" transform="translate(-2178.913 -2352.774)" fill="url(#linear-gradient-38)"/>
        <path id="Path_13510" data-name="Path 13510" d="M2437.44,2668.6l2.221-.3-.255-1.455Z" transform="translate(-2264.043 -2470.109)" fill="url(#linear-gradient-39)"/>
        <path id="Path_13511" data-name="Path 13511" d="M2391.537,2152.136l-3.031.928a22.571,22.571,0,0,0-3.151-5.3l2.113-2.267a1.584,1.584,0,0,0-.092-2.212l-1.667-1.609a1.545,1.545,0,0,0-2.2.017l-2.094,2.2a23.275,23.275,0,0,0-5.522-3.147l.694-2.939a1.647,1.647,0,0,0-1.2-1.942l-2.3-.612a1.568,1.568,0,0,0-1.951,1.121l-.706,2.919a23.684,23.684,0,0,0-6.6,0l-.894-2.935a1.745,1.745,0,0,0-2.094-1.156l-2.388.612a1.586,1.586,0,0,0-1.158,2l.9,2.967a24,24,0,0,0-5.878,3.371l-2.393-2.2a1.843,1.843,0,0,0-2.5.019l-1.821,1.763a1.617,1.617,0,0,0,.045,2.388l2.467,2.248a23.836,23.836,0,0,0-3.367,5.93l-3.46-.771a1.877,1.877,0,0,0-2.229,1.281l-.665,2.473a1.684,1.684,0,0,0,1.339,2.073l3.568.759a22.824,22.824,0,0,0,.229,6.733l-3.663,1.12a1.811,1.811,0,0,0-1.279,2.214l.746,2.447a1.788,1.788,0,0,0,2.288,1.1l3.747-1.194a22.57,22.57,0,0,0,3.68,5.493l-2.746,2.894a1.7,1.7,0,0,0,.046,2.48l1.929,1.664a1.863,1.863,0,0,0,2.554-.214l2.764-2.969a23.432,23.432,0,0,0,5.894,2.729l-.936,3.873a1.6,1.6,0,0,0,1.291,2l2.485.418a1.862,1.862,0,0,0,2.08-1.413l.919-3.882a23.81,23.81,0,0,0,6.355-.581l1.119,3.674a1.562,1.562,0,0,0,2.073,1l2.316-.86a1.779,1.779,0,0,0,1.087-2.148l-1.121-3.64a24.016,24.016,0,0,0,5.177-3.509l2.694,2.453a1.559,1.559,0,0,0,2.236-.184l1.562-1.82a1.658,1.658,0,0,0-.092-2.288l-2.626-2.418a23.818,23.818,0,0,0,2.815-5.456l3.369.718a1.561,1.561,0,0,0,1.826-1.24l.482-2.28a1.568,1.568,0,0,0-1.157-1.877l-3.269-.729a22.753,22.753,0,0,0-.163-6.094l3.1-.986a1.564,1.564,0,0,0,.99-1.957l-.669-2.2A1.537,1.537,0,0,0,2391.537,2152.136Zm-19.032,25.562a16.407,16.407,0,0,1-21.218-10.539,16.656,16.656,0,0,1,11.673-20.787,16.429,16.429,0,0,1,20.217,10.849A16.685,16.685,0,0,1,2372.505,2177.7Z" transform="translate(-2174.636 -1987.196)" fill="#f93366"/>
      </g>
    </g>
  </g>
</svg>
