<svg xmlns="http://www.w3.org/2000/svg" width="250" height="250" viewBox="0 0 250 250">
  <g id="Remittance_and_money_transfer_between_relatives_Converted_-01" data-name="Remittance and money transfer between relatives [Converted]-01" transform="translate(-348.274 -239.071)">
    <ellipse id="Ellipse_98" data-name="Ellipse 98" cx="60.49" cy="8.502" rx="60.49" ry="8.502" transform="matrix(0.995, -0.105, 0.105, 0.995, 348.274, 424.901)" fill="#b8d5dc" style="mix-blend-mode: multiply;isolation: isolate"/>
    <ellipse id="Ellipse_121" data-name="Ellipse 121" cx="48.67" cy="10.002" rx="48.67" ry="10.002" transform="translate(500.859 453.047) rotate(3)" fill="#b8d5dc" style="mix-blend-mode: multiply;isolation: isolate"/>
    <g id="Group_4608" data-name="Group 4608" transform="translate(349.157 239.071)">
      <g id="Group_4564" data-name="Group 4564" transform="translate(180.139 13.249)" opacity="0.4">
        <path id="Path_13326" data-name="Path 13326" d="M1721.123,322.413a11.426,11.426,0,0,1,11.331-5.406c8.121.774,7.154,6.97,11.021,6.39s9.281,0,10.442,3.871,6.38,1.744,6.574,5.035-5.993,5.62-13.147,2.712-10.635,2.256-20.69,1.321-11.3-2.1-17.252-1.514-5.811-3.5-3.1-6.212S1719.963,326.16,1721.123,322.413Z" transform="translate(-1704.505 -316.94)" fill="#fff"/>
      </g>
      <g id="Group_4565" data-name="Group 4565" transform="translate(97.608 38.04)" opacity="0.6">
        <path id="Path_13327" data-name="Path 13327" d="M1184.717,478.842a6.461,6.461,0,0,1,6.405-3.057c4.59.437,4.046,3.942,6.238,3.612s5.248,0,5.9,2.186,3.608.985,3.717,2.844-3.389,3.175-7.433,1.533-6.012,1.275-11.7.748-6.394-1.185-9.752-.857-3.288-1.973-1.761-3.508S1184.062,480.959,1184.717,478.842Z" transform="translate(-1175.33 -475.748)" fill="#fff"/>
      </g>
      <g id="Group_4566" data-name="Group 4566" transform="translate(150.674)" opacity="0.6">
        <path id="Path_13328" data-name="Path 13328" d="M1525.947,235.485a7.126,7.126,0,0,1,7.067-3.372c5.064.484,4.462,4.348,6.874,3.985s5.789,0,6.513,2.415,3.98,1.093,4.1,3.139-3.743,3.5-8.2,1.691-6.633,1.405-12.906.824-7.048-1.307-10.761-.944-3.623-2.186-1.935-3.873S1525.224,237.82,1525.947,235.485Z" transform="translate(-1515.581 -232.071)" fill="#fff"/>
      </g>
      <g id="Group_4567" data-name="Group 4567" transform="translate(19.927 11.263)" opacity="0.6">
        <path id="Path_13329" data-name="Path 13329" d="M690.735,308.666a9.281,9.281,0,0,1,9.2-4.39c6.6.628,5.81,5.659,8.944,5.187s7.536,0,8.478,3.144,5.179,1.414,5.337,4.087-4.866,4.558-10.674,2.2-8.634,1.839-16.8,1.072-9.173-1.7-14.005-1.23S676.5,315.9,678.7,313.7,689.793,311.706,690.735,308.666Z" transform="translate(-677.244 -304.222)" fill="#fff"/>
      </g>
      <path id="Path_13330" data-name="Path 13330" d="M1757.542,648.547l6.747-.044c4.041.512,7.548-3.506,7.548-8.648V516.115c0-5.119-3.478-9.129-7.5-8.653h-8.345c-3.528.418-54.128,10.832-54.128,15.317V632.727C1701.86,637.192,1754.033,648.1,1757.542,648.547Z" transform="translate(-1522.72 -425.372)" fill="#764678"/>
      <path id="Path_13331" data-name="Path 13331" d="M1654.55,641.374,1710.8,648.5c4.041.512,7.549-3.506,7.549-8.648V516.115c0-5.119-3.478-9.129-7.5-8.653l-56.248,6.664c-3.528.418-6.224,4.168-6.224,8.653V632.727C1648.367,637.192,1651.038,640.931,1654.55,641.374Z" transform="translate(-1477.572 -425.372)" fill="#764678"/>
      <path id="Path_13332" data-name="Path 13332" d="M1670,543.518v99.469c0,4.04,2.36,7.423,5.458,7.824l28.229,3.664,21.462,2.785c3.57.468,6.669-3.171,6.669-7.824V537.491c0-4.633-3.072-8.26-6.628-7.829l-38.346,4.652-11.337,1.375c-2.686.326-4.835,2.894-5.367,6.2A10.155,10.155,0,0,0,1670,543.518Z" transform="translate(-1495.829 -444.109)" fill="#68a1bf"/>
      <path id="Path_13333" data-name="Path 13333" d="M2049.244,648.244a5.494,5.494,0,0,1-.694-.044l.019-.139a5.751,5.751,0,0,0,4.548-1.5,9.484,9.484,0,0,0,2.921-7.083V515.744a9.522,9.522,0,0,0-2.9-7.062,5.758,5.758,0,0,0-4.523-1.52l-.017-.139a5.9,5.9,0,0,1,4.637,1.553,9.642,9.642,0,0,1,2.946,7.168v123.74a9.61,9.61,0,0,1-2.963,7.181A5.972,5.972,0,0,1,2049.244,648.244Z" transform="translate(-1815.34 -425)" fill="#331832"/>
      <path id="Path_13334" data-name="Path 13334" d="M1778,534.314l44.973,35.179v-32c0-4.633-3.072-8.26-6.628-7.829Z" transform="translate(-1586.986 -444.109)" fill="#86c5df"/>
      <path id="Path_13335" data-name="Path 13335" d="M1670,609.8v33.186l61.81,20.978V649.145l-61.673-40.975A10.153,10.153,0,0,0,1670,609.8Z" transform="translate(-1495.829 -510.39)" fill="#86c5df"/>
      <path id="Path_13336" data-name="Path 13336" d="M1824.676,981.849c5.276-5.846,13.678-9.563,22.647-1.452,5.841,5.283,6.338,14.794,1.677,21.142-5.669,7.716-13.828,8.13-23.06,1.369C1819.587,998.255,1818.078,989.158,1824.676,981.849Z" transform="translate(-1622.769 -820.56)" fill="#ef8062"/>
      <path id="Path_13337" data-name="Path 13337" d="M1848.815,1016.428c-3.241,0-6.814-1.377-10.585-4.14a11.7,11.7,0,0,1-4.835-8.294,13.3,13.3,0,0,1,3.69-10.247l.312.287-.312-.287a15.634,15.634,0,0,1,8.7-5.2c3.816-.635,7.572.69,11.165,3.939,5,4.527,5.671,12.849,1.483,18.55C1855.8,1014.628,1852.524,1016.428,1848.815,1016.428Zm-11.09-22.107a12.458,12.458,0,0,0-3.473,9.585,10.824,10.824,0,0,0,4.484,7.69c3.833,2.81,7.422,4.141,10.664,3.954s6.034-1.873,8.347-5.025c3.936-5.358,3.322-13.166-1.366-17.408-3.389-3.065-6.906-4.32-10.449-3.729a14.788,14.788,0,0,0-8.205,4.933Z" transform="translate(-1633.691 -831.254)" fill="#ffb27d"/>
      <path id="Path_13338" data-name="Path 13338" d="M1881,1040.291l.544-.827a.7.7,0,0,0-.143-.937,6.794,6.794,0,0,1-1.56-1.82.7.7,0,0,1,.187-.9l.192-.147a.7.7,0,0,1,1.028.2,5.931,5.931,0,0,0,1.807,1.911,2.2,2.2,0,0,0,3.275-.721c.7-1.068.624-1.914-.384-3.417-1.413-2.045-2.726-4.193-1.614-5.882a3.51,3.51,0,0,1,5.12-.966.637.637,0,0,0,.806-.279l.6-.906a.7.7,0,0,1,.97-.2h0a.7.7,0,0,1,.2.971l-.5.756a.7.7,0,0,0,.131.918,5.869,5.869,0,0,1,1.2,1.349.7.7,0,0,1-.178.937l-.186.137a.7.7,0,0,1-1-.189,5.347,5.347,0,0,0-1.575-1.571c-1.452-.957-2.588-.425-3.1.351-.666,1.01.287,1.776,1.468,3.558,1.4,2.1,1.872,4.059.9,5.879-1.037,1.948-2.963,2.519-5.558,1.325a.665.665,0,0,0-.808.278l-.635.965a.7.7,0,0,1-.97.2l-.019-.013A.7.7,0,0,1,1881,1040.291Z" transform="translate(-1672.869 -862.393)" fill="#ffb27d"/>
      <path id="Path_13339" data-name="Path 13339" d="M1648.52,1535.116v-2.537l37.075-.229-.053,2.766Z" transform="translate(-1477.699 -1290.298)" fill="#da6f59"/>
      <path id="Path_13340" data-name="Path 13340" d="M1649.974,1510.963c3.373-2.81,11.073-5.281,24.31-3.591,8.623,1.093,13.127,4.437,10.639,7.337-3.026,3.533-11.829,4.788-24.8,3.618C1651.2,1517.529,1645.755,1514.475,1649.974,1510.963Z" transform="translate(-1477.699 -1268.753)" fill="#da6f59"/>
      <path id="Path_13341" data-name="Path 13341" d="M1649.974,1495.313c3.373-2.81,11.073-5.281,24.31-3.59,8.623,1.093,13.127,4.436,10.639,7.337-3.026,3.533-11.829,4.788-24.8,3.619C1651.2,1501.879,1645.755,1498.825,1649.974,1495.313Z" transform="translate(-1477.699 -1255.546)" fill="#ef8062"/>
      <path id="Path_13342" data-name="Path 13342" d="M1682.386,1505.871q-3.38,0-7.419-.364c-5.591-.5-9.44-2.029-10.042-3.959-.2-.641-.147-1.652,1.248-2.81h0c1.811-1.508,7.472-4.83,20.9-3.122,5.223.665,8.95,2.342,9.729,4.357a2.241,2.241,0,0,1-.5,2.361c-1.324,1.545-3.865,2.6-7.55,3.135A44.715,44.715,0,0,1,1682.386,1505.871Zm-15.842-6.694c-.926.771-1.287,1.513-1.071,2.2.526,1.684,4.272,3.08,9.546,3.556,10.951.986,18.353-.07,20.844-2.979a1.7,1.7,0,0,0,.4-1.779c-.693-1.8-4.329-3.364-9.265-3.993a43.455,43.455,0,0,0-13.394.091A15.322,15.322,0,0,0,1666.543,1499.177Z" transform="translate(-1491.472 -1258.897)" fill="#ffb27d"/>
      <path id="Path_13343" data-name="Path 13343" d="M1729.527,1513.629l.254-.37c.094-.134-.145-.268-.546-.312a16.967,16.967,0,0,1-2.47-.44c-.312-.086-.382-.234-.167-.347l.156-.078a2.042,2.042,0,0,1,1.213-.067,16.028,16.028,0,0,0,2.786.439c1.839.134,2.963-.208,3.3-.7s-.1-.771-1.842-1.171c-2.405-.542-4.744-1.133-4.223-1.889.453-.659,2.155-1.232,5.229-1.04a1.039,1.039,0,0,0,.78-.209l.279-.406a1.358,1.358,0,0,1,.983-.2h0c.444.033.724.175.624.32l-.233.339c-.092.131.133.266.526.312a15.514,15.514,0,0,1,1.881.312c.345.084.427.242.193.359l-.148.075a2.105,2.105,0,0,1-1.179.069,14.737,14.737,0,0,0-2.384-.35c-2-.145-3.023.2-3.263.547-.312.453,1.056.6,3.1,1.076,2.417.559,3.743,1.2,3.441,1.982-.332.838-2.207,1.3-5.565,1.228a1.132,1.132,0,0,0-.78.209l-.3.432a1.37,1.37,0,0,1-.984.2h-.039C1729.707,1513.918,1729.427,1513.774,1729.527,1513.629Z" transform="translate(-1543.496 -1268.759)" fill="#ffb27d"/>
      <path id="Path_13344" data-name="Path 13344" d="M1858.546,1435.8l-.016-2.738,40.01-.467-.041,2.987Z" transform="translate(-1654.956 -1206.12)" fill="#da6f59"/>
      <path id="Path_13345" data-name="Path 13345" d="M1860.171,1410.35c3.624-3.053,11.915-5.765,26.215-4.021,9.311,1.135,14.192,4.711,11.524,7.862-3.244,3.831-12.737,5.238-26.741,4.059C1861.534,1417.428,1855.641,1414.165,1860.171,1410.35Z" transform="translate(-1655.03 -1183.487)" fill="#da6f59"/>
      <path id="Path_13346" data-name="Path 13346" d="M1860.081,1393.461c3.625-3.052,11.915-5.765,26.214-4.021,9.312,1.135,14.192,4.711,11.525,7.863-3.245,3.829-12.737,5.236-26.741,4.059C1861.444,1400.539,1855.55,1397.276,1860.081,1393.461Z" transform="translate(-1654.954 -1169.235)" fill="#ef8062"/>
      <path id="Path_13347" data-name="Path 13347" d="M1894.725,1404.7c-2.33,0-4.878-.117-7.631-.35-6.037-.51-10.2-2.125-10.861-4.215-.22-.693-.167-1.783,1.333-3.047,1.947-1.638,8.035-5.258,22.53-3.49,5.641.689,9.669,2.468,10.526,4.644a2.425,2.425,0,0,1-.526,2.551c-1.419,1.677-4.155,2.83-8.13,3.434A49.123,49.123,0,0,1,1894.725,1404.7Zm-1.895-10.948a38.055,38.055,0,0,0-7.261.642c-4.127.806-6.411,2.17-7.6,3.172h0c-.994.838-1.379,1.641-1.143,2.384.577,1.816,4.629,3.3,10.323,3.782,11.825,1,19.807-.184,22.479-3.338a1.816,1.816,0,0,0,.421-1.923c-.758-1.934-4.691-3.6-10.024-4.254A59.518,59.518,0,0,0,1892.83,1393.75Z" transform="translate(-1669.817 -1172.803)" fill="#ffb27d"/>
      <path id="Path_13348" data-name="Path 13348" d="M1858.444,1416.485l-.014-2.738,40.008-.467-.041,2.985Z" transform="translate(-1654.872 -1189.816)" fill="#da6f59"/>
      <path id="Path_13349" data-name="Path 13349" d="M1860.071,1391.028c3.625-3.052,11.914-5.763,26.214-4.02,9.312,1.135,14.193,4.711,11.524,7.862-3.244,3.831-12.737,5.237-26.739,4.059C1861.434,1398.106,1855.541,1394.845,1860.071,1391.028Z" transform="translate(-1654.946 -1167.183)" fill="#da6f59"/>
      <path id="Path_13350" data-name="Path 13350" d="M1859.977,1374.14c3.623-3.054,11.914-5.765,26.214-4.021,9.312,1.135,14.192,4.711,11.524,7.862-3.244,3.831-12.737,5.238-26.739,4.059C1861.338,1381.218,1855.444,1377.955,1859.977,1374.14Z" transform="translate(-1654.865 -1152.93)" fill="#ef8062"/>
      <path id="Path_13351" data-name="Path 13351" d="M1894.615,1385.417c-2.33,0-4.878-.117-7.631-.35-6.037-.512-10.2-2.125-10.861-4.215-.22-.693-.167-1.783,1.335-3.047l.2.237-.2-.237c1.945-1.639,8.034-5.258,22.53-3.491,5.639.687,9.669,2.467,10.524,4.644a2.423,2.423,0,0,1-.526,2.551c-1.419,1.677-4.155,2.829-8.129,3.434A49.112,49.112,0,0,1,1894.615,1385.417Zm-1.895-10.948a38.066,38.066,0,0,0-7.261.642c-4.127.805-6.412,2.168-7.6,3.172-.995.837-1.38,1.639-1.143,2.384.575,1.816,4.627,3.3,10.323,3.782,11.823,1,19.807-.186,22.477-3.338a1.813,1.813,0,0,0,.421-1.923c-.756-1.934-4.691-3.6-10.022-4.255a59.842,59.842,0,0,0-7.193-.47Z" transform="translate(-1669.725 -1156.533)" fill="#ffb27d"/>
      <path id="Path_13352" data-name="Path 13352" d="M1879.924,1389.723l-.014-2.737,40.008-.467-.041,2.985Z" transform="translate(-1673.002 -1167.233)" fill="#da6f59"/>
      <path id="Path_13353" data-name="Path 13353" d="M1881.573,1364.3c3.623-3.052,11.914-5.763,26.214-4.021,9.312,1.137,14.192,4.712,11.524,7.863-3.244,3.829-12.737,5.237-26.74,4.059C1882.93,1371.376,1877.036,1368.115,1881.573,1364.3Z" transform="translate(-1673.091 -1144.63)" fill="#da6f59"/>
      <path id="Path_13354" data-name="Path 13354" d="M1881.451,1347.378c3.625-3.052,11.915-5.764,26.215-4.02,9.312,1.135,14.192,4.711,11.524,7.862-3.244,3.831-12.737,5.238-26.739,4.059C1882.814,1354.456,1876.921,1351.2,1881.451,1347.378Z" transform="translate(-1672.991 -1130.347)" fill="#ef8062"/>
      <path id="Path_13355" data-name="Path 13355" d="M1916.1,1358.616c-2.33,0-4.878-.116-7.631-.35-6.037-.51-10.2-2.125-10.861-4.215-.22-.692-.167-1.783,1.335-3.047h0c1.945-1.638,8.035-5.256,22.53-3.489,5.64.687,9.669,2.467,10.524,4.644a2.423,2.423,0,0,1-.526,2.551c-1.42,1.675-4.155,2.829-8.129,3.434A49.125,49.125,0,0,1,1916.1,1358.616Zm-16.758-7.134c-1,.838-1.38,1.641-1.143,2.385.575,1.816,4.627,3.3,10.323,3.781,11.823,1,19.807-.184,22.477-3.336a1.814,1.814,0,0,0,.421-1.923c-.756-1.936-4.692-3.6-10.022-4.255a46.9,46.9,0,0,0-14.454.178c-4.126.8-6.411,2.168-7.6,3.17Z" transform="translate(-1687.854 -1133.916)" fill="#ffb27d"/>
      <path id="Path_13356" data-name="Path 13356" d="M1861.154,1356.883l-.014-2.737,40.008-.467-.041,2.985Z" transform="translate(-1657.159 -1139.52)" fill="#da6f59"/>
      <path id="Path_13357" data-name="Path 13357" d="M1862.781,1331.424c3.625-3.052,11.914-5.764,26.214-4.021,9.312,1.137,14.192,4.713,11.524,7.863-3.244,3.831-12.737,5.238-26.739,4.059C1864.144,1338.5,1858.25,1335.241,1862.781,1331.424Z" transform="translate(-1657.232 -1116.883)" fill="#da6f59"/>
      <path id="Path_13358" data-name="Path 13358" d="M1862.673,1314.538c3.623-3.052,11.914-5.763,26.214-4.02,9.312,1.135,14.192,4.711,11.524,7.862-3.244,3.831-12.737,5.237-26.739,4.059C1864.034,1321.616,1858.134,1318.355,1862.673,1314.538Z" transform="translate(-1657.138 -1102.634)" fill="#ef8062"/>
      <path id="Path_13359" data-name="Path 13359" d="M1897.325,1325.781c-2.33,0-4.878-.115-7.631-.348-6.037-.512-10.2-2.126-10.861-4.215-.22-.692-.167-1.783,1.335-3.046l.2.237-.2-.237c1.945-1.639,8.035-5.259,22.53-3.491,5.64.687,9.669,2.466,10.524,4.644a2.424,2.424,0,0,1-.526,2.551c-1.419,1.675-4.155,2.829-8.129,3.434A49.13,49.13,0,0,1,1897.325,1325.781Zm-1.895-10.948a38.067,38.067,0,0,0-7.262.643c-4.127.8-6.411,2.168-7.6,3.172-.995.837-1.38,1.639-1.143,2.384.575,1.816,4.627,3.3,10.323,3.783,11.823,1,19.807-.186,22.477-3.338a1.814,1.814,0,0,0,.421-1.923c-.757-1.936-4.691-3.6-10.022-4.256A59.814,59.814,0,0,0,1895.431,1314.833Z" transform="translate(-1672.012 -1106.208)" fill="#ffb27d"/>
      <path id="Path_13360" data-name="Path 13360" d="M1948.609,1334.1l.273-.4c.1-.145-.156-.289-.589-.334a18.474,18.474,0,0,1-2.67-.468c-.339-.09-.413-.25-.183-.373l.156-.084a2.166,2.166,0,0,1,1.31-.08,17.179,17.179,0,0,0,3.009.456c1.985.134,3.188-.241,3.553-.781s-.117-.831-2-1.249c-2.6-.57-5.125-1.194-4.568-2.012.485-.713,2.319-1.344,5.638-1.155a1.083,1.083,0,0,0,.833-.229l.3-.44a1.479,1.479,0,0,1,1.06-.225h0c.479.033.78.186.674.342l-.249.367c-.1.144.145.287.569.333a16.512,16.512,0,0,1,2.028.334c.374.089.468.259.212.387l-.156.081a2.229,2.229,0,0,1-1.271.081,15.893,15.893,0,0,0-2.578-.362c-2.154-.145-3.26.233-3.515.609-.334.489,1.143.638,3.347,1.141,2.612.59,4.055,1.271,3.723,2.12-.351.907-2.374,1.419-6,1.358a1.17,1.17,0,0,0-.833.231l-.312.468a1.482,1.482,0,0,1-1.06.225h-.028C1948.805,1334.408,1948.5,1334.251,1948.609,1334.1Z" transform="translate(-1728.199 -1116.763)" fill="#ffb27d"/>
      <path id="Path_13361" data-name="Path 13361" d="M1863.784,1326.475l-.014-2.737,40.008-.468-.041,2.986Z" transform="translate(-1659.379 -1113.857)" fill="#da6f59"/>
      <path id="Path_13362" data-name="Path 13362" d="M1865.411,1301.021c3.624-3.052,11.915-5.765,26.214-4.021,9.312,1.135,14.192,4.711,11.524,7.863-3.244,3.829-12.736,5.236-26.739,4.059C1866.774,1308.1,1860.88,1304.836,1865.411,1301.021Z" transform="translate(-1659.453 -1091.225)" fill="#da6f59"/>
      <path id="Path_13363" data-name="Path 13363" d="M1865.317,1284.131c3.623-3.052,11.914-5.765,26.214-4.021,9.312,1.136,14.192,4.711,11.524,7.863-3.244,3.829-12.737,5.236-26.739,4.059C1866.678,1291.209,1860.785,1287.946,1865.317,1284.131Z" transform="translate(-1659.372 -1076.972)" fill="#ef8062"/>
      <path id="Path_13364" data-name="Path 13364" d="M1899.955,1295.418c-2.33,0-4.878-.117-7.631-.35-6.037-.51-10.2-2.125-10.861-4.215-.22-.692-.167-1.783,1.335-3.047h0c1.945-1.638,8.035-5.258,22.53-3.491,5.64.689,9.67,2.468,10.524,4.644a2.423,2.423,0,0,1-.526,2.551c-1.419,1.677-4.155,2.83-8.129,3.434A49.13,49.13,0,0,1,1899.955,1295.418Zm-16.758-7.134c-.995.838-1.38,1.641-1.143,2.385.575,1.816,4.627,3.3,10.323,3.781,11.823,1,19.807-.184,22.477-3.338a1.813,1.813,0,0,0,.421-1.923c-.756-1.934-4.691-3.6-10.022-4.254a46.953,46.953,0,0,0-14.454.176C1886.672,1285.917,1884.387,1287.281,1883.2,1288.284Z" transform="translate(-1674.232 -1080.583)" fill="#ffb27d"/>
      <path id="Path_13365" data-name="Path 13365" d="M1951.239,1303.725l.275-.4c.1-.146-.156-.289-.591-.336a18.444,18.444,0,0,1-2.669-.461c-.34-.09-.415-.25-.184-.373l.156-.086a2.166,2.166,0,0,1,1.31-.08,17.309,17.309,0,0,0,3.008.457c1.986.134,3.188-.24,3.553-.781s-.117-.831-2-1.249c-2.6-.568-5.125-1.193-4.568-2.012.485-.713,2.319-1.343,5.638-1.154a1.082,1.082,0,0,0,.833-.231l.3-.439a1.471,1.471,0,0,1,1.06-.224h0c.479.033.78.185.674.342l-.249.367c-.1.142.146.286.569.333a16.427,16.427,0,0,1,2.027.334c.373.089.468.257.211.387l-.156.081a2.23,2.23,0,0,1-1.271.08,16.243,16.243,0,0,0-2.577-.362c-2.155-.145-3.261.233-3.517.609-.334.49,1.143.638,3.347,1.143,2.612.59,4.055,1.269,3.724,2.12-.352.906-2.375,1.419-6,1.358a1.169,1.169,0,0,0-.833.231l-.312.468a1.476,1.476,0,0,1-1.06.225h-.028C1951.436,1304.034,1951.134,1303.881,1951.239,1303.725Z" transform="translate(-1730.419 -1091.14)" fill="#ffb27d"/>
      <path id="Path_13366" data-name="Path 13366" d="M1838.976,1288.445l-.016-2.738,40.01-.467-.041,2.985Z" transform="translate(-1638.438 -1081.764)" fill="#da6f59"/>
      <path id="Path_13367" data-name="Path 13367" d="M1840.61,1262.988c3.623-3.052,11.914-5.764,26.214-4.02,9.313,1.135,14.192,4.711,11.524,7.862-3.244,3.831-12.737,5.237-26.739,4.059C1841.974,1270.063,1836.087,1266.805,1840.61,1262.988Z" transform="translate(-1638.522 -1059.131)" fill="#da6f59"/>
      <path id="Path_13368" data-name="Path 13368" d="M1840.511,1246.1c3.625-3.053,11.915-5.765,26.215-4.021,9.311,1.135,14.192,4.711,11.524,7.862-3.244,3.831-12.737,5.238-26.741,4.059C1841.874,1253.178,1835.98,1249.915,1840.511,1246.1Z" transform="translate(-1638.436 -1044.878)" fill="#ef8062"/>
      <path id="Path_13369" data-name="Path 13369" d="M1875.155,1257.332c-2.33,0-4.878-.115-7.631-.348-6.037-.512-10.2-2.126-10.861-4.215-.22-.693-.167-1.783,1.335-3.047,1.945-1.639,8.033-5.26,22.53-3.491,5.64.687,9.67,2.466,10.524,4.644a2.423,2.423,0,0,1-.526,2.551c-1.419,1.677-4.155,2.829-8.129,3.434A49.108,49.108,0,0,1,1875.155,1257.332Zm-1.9-10.948a38.058,38.058,0,0,0-7.261.643c-4.127.806-6.412,2.168-7.6,3.172h0c-.995.837-1.38,1.639-1.143,2.384.575,1.816,4.627,3.3,10.321,3.782,11.825,1,19.807-.186,22.478-3.338a1.815,1.815,0,0,0,.421-1.923c-.756-1.934-4.691-3.6-10.022-4.255A59.837,59.837,0,0,0,1873.26,1246.385Z" transform="translate(-1653.299 -1048.444)" fill="#ffb27d"/>
      <path id="Path_13370" data-name="Path 13370" d="M1883.024,1263.025l-.014-2.738,40.008-.467-.041,2.985Z" transform="translate(-1675.618 -1060.312)" fill="#da6f59"/>
      <path id="Path_13371" data-name="Path 13371" d="M1884.648,1237.568c3.623-3.052,11.914-5.763,26.214-4.02,9.312,1.135,14.192,4.711,11.524,7.861-3.244,3.831-12.737,5.237-26.739,4.059C1886.011,1244.646,1880.116,1241.385,1884.648,1237.568Z" transform="translate(-1675.688 -1037.68)" fill="#da6f59"/>
      <path id="Path_13372" data-name="Path 13372" d="M1884.573,1220.68c3.625-3.053,11.915-5.765,26.215-4.021,9.311,1.135,14.192,4.711,11.524,7.862-3.244,3.831-12.737,5.237-26.741,4.059C1885.93,1227.758,1880.036,1224.5,1884.573,1220.68Z" transform="translate(-1675.623 -1023.426)" fill="#ef8062"/>
      <path id="Path_13373" data-name="Path 13373" d="M1919.2,1231.916c-2.33,0-4.879-.116-7.631-.348-6.037-.512-10.2-2.125-10.861-4.215-.22-.693-.167-1.783,1.335-3.047l.2.237-.2-.237c1.945-1.639,8.033-5.258,22.53-3.49,5.64.687,9.67,2.466,10.524,4.644a2.423,2.423,0,0,1-.525,2.551c-1.419,1.677-4.155,2.829-8.129,3.434A49.159,49.159,0,0,1,1919.2,1231.916Zm-1.9-10.947a38.066,38.066,0,0,0-7.261.642c-4.127.805-6.412,2.168-7.6,3.172-1,.837-1.38,1.639-1.143,2.384.575,1.816,4.627,3.3,10.323,3.782,11.825,1,19.807-.184,22.477-3.338a1.815,1.815,0,0,0,.421-1.923c-.756-1.934-4.691-3.6-10.022-4.256A59.864,59.864,0,0,0,1917.3,1220.969Z" transform="translate(-1690.471 -1026.995)" fill="#ffb27d"/>
      <path id="Path_13374" data-name="Path 13374" d="M1970.479,1240.225l.273-.4c.1-.145-.156-.289-.591-.334a18.5,18.5,0,0,1-2.669-.468c-.338-.089-.413-.248-.183-.372l.156-.086a2.168,2.168,0,0,1,1.31-.08,17.158,17.158,0,0,0,3.009.456c1.985.136,3.188-.24,3.553-.781s-.117-.832-2-1.249c-2.6-.57-5.125-1.194-4.568-2.012.485-.714,2.319-1.344,5.638-1.155a1.083,1.083,0,0,0,.833-.23l.3-.44a1.484,1.484,0,0,1,1.061-.225h0c.48.033.78.186.675.344l-.25.365c-.1.144.145.287.569.332a16.2,16.2,0,0,1,2.028.336c.374.088.468.258.212.386l-.156.081a2.222,2.222,0,0,1-1.271.081,15.9,15.9,0,0,0-2.578-.362c-2.154-.145-3.259.233-3.515.609-.333.489,1.143.639,3.347,1.141,2.612.59,4.055,1.271,3.723,2.12-.352.907-2.374,1.421-6,1.36a1.179,1.179,0,0,0-.833.229l-.312.469a1.468,1.468,0,0,1-1.059.225h-.028C1970.674,1240.536,1970.373,1240.383,1970.479,1240.225Z" transform="translate(-1746.658 -1037.547)" fill="#ffb27d"/>
      <path id="Path_13375" data-name="Path 13375" d="M691.555,660.524l-6.747-.044c-4.041.512-7.548-3.5-7.548-8.647V528.094c0-5.12,3.478-9.131,7.5-8.653h8.345c3.528.418,54.135,10.826,54.135,15.318V644.706C747.245,649.169,695.064,660.08,691.555,660.524Z" transform="translate(-657.331 -474.547)" fill="#366f90"/>
      <path id="Path_13376" data-name="Path 13376" d="M794.567,653.353l-56.249,7.128c-4.041.512-7.548-3.5-7.548-8.647V528.094c0-5.12,3.478-9.131,7.5-8.653l56.248,6.664c3.528.418,6.224,4.167,6.224,8.653V644.706C800.747,649.169,798.076,652.908,794.567,653.353Z" transform="translate(-702.495 -474.547)" fill="#366f90"/>
      <path id="Path_13377" data-name="Path 13377" d="M823.26,555.515v99.469c0,4.04-2.36,7.422-5.459,7.824l-28.219,3.662-21.463,2.787c-3.57.468-6.669-3.172-6.669-7.824V549.491c0-4.632,3.072-8.26,6.628-7.829l38.347,4.655,11.337,1.375c2.686.326,4.835,2.894,5.367,6.2a10.172,10.172,0,0,1,.131,1.625Z" transform="translate(-728.39 -493.303)" fill="#68a1bf"/>
      <path id="Path_13378" data-name="Path 13378" d="M737.279,660.194a5.97,5.97,0,0,1-3.966-1.574,9.616,9.616,0,0,1-2.963-7.181V527.693a9.64,9.64,0,0,1,2.946-7.168,5.924,5.924,0,0,1,4.637-1.561l-.017.141a5.749,5.749,0,0,0-4.523,1.519,9.5,9.5,0,0,0-2.9,7.064v123.74a9.486,9.486,0,0,0,2.921,7.081,5.744,5.744,0,0,0,4.548,1.5l.019.14a5.477,5.477,0,0,1-.7.05Z" transform="translate(-702.14 -474.147)" fill="#331832"/>
      <path id="Path_13379" data-name="Path 13379" d="M806.426,546.311,761.45,581.493v-32c0-4.632,3.072-8.26,6.628-7.829Z" transform="translate(-728.39 -493.303)" fill="#86c5df"/>
      <path id="Path_13380" data-name="Path 13380" d="M823.26,621.771v33.186l-61.81,20.978V661.117l61.679-40.977A10.171,10.171,0,0,1,823.26,621.771Z" transform="translate(-728.39 -559.559)" fill="#86c5df"/>
      <path id="Path_13381" data-name="Path 13381" d="M966.737,392.629a.088.088,0,0,1-.039-.009.081.081,0,0,1-.03-.108,17.545,17.545,0,0,1,1.067-1.589.08.08,0,0,1,.128.094,17.439,17.439,0,0,0-1.057,1.561A.078.078,0,0,1,966.737,392.629Zm2.237-3.058a.081.081,0,0,1-.051-.019.08.08,0,0,1-.009-.111c.4-.468.82-.951,1.257-1.421a.081.081,0,0,1,.112,0,.078.078,0,0,1,0,.111c-.435.468-.856.937-1.248,1.414A.082.082,0,0,1,968.973,389.571Zm2.573-2.769a.079.079,0,0,1-.056-.023.082.082,0,0,1,0-.112c.446-.434.912-.87,1.385-1.293a.08.08,0,0,1,.1.119c-.468.42-.936.854-1.38,1.288A.078.078,0,0,1,971.547,386.8Zm2.82-2.52a.078.078,0,0,1-.05-.139c.483-.4.984-.79,1.488-1.171a.08.08,0,1,1,.1.126c-.5.378-1,.771-1.483,1.166a.087.087,0,0,1-.047.017Zm3.016-2.276a.078.078,0,0,1-.044-.144c.513-.356,1.043-.71,1.574-1.049a.08.08,0,0,1,.086.133c-.53.339-1.059.69-1.571,1.046a.081.081,0,0,1-.042.014Zm3.183-2.029a.078.078,0,0,1-.067-.039.079.079,0,0,1,.028-.108c.538-.312,1.092-.624,1.647-.937a.08.08,0,0,1,.108.033.078.078,0,0,1-.033.106c-.552.3-1.106.61-1.642.927a.076.076,0,0,1-.038.011Zm3.323-1.8a.079.079,0,0,1-.072-.044.078.078,0,0,1,.036-.1c.56-.279,1.135-.553,1.716-.813a.08.08,0,0,1,.1.039.077.077,0,0,1-.039.1c-.572.261-1.145.532-1.7.81a.069.069,0,0,1-.039,0Zm68.1-.348a.075.075,0,0,1-.031,0c-.577-.239-1.167-.468-1.753-.7a.079.079,0,1,1,.056-.147c.588.226,1.179.468,1.758.7a.079.079,0,0,1,.042.043.078.078,0,0,1,0,.06.079.079,0,0,1-.069.036Zm-64.661-1.222a.079.079,0,0,1-.03-.156c.574-.24,1.167-.468,1.758-.7a.078.078,0,0,1,.055.147c-.59.223-1.179.457-1.753.7A.066.066,0,0,1,987.33,376.608Zm61.136-.137h-.027c-.588-.209-1.19-.415-1.786-.609a.08.08,0,0,1-.05-.1.076.076,0,0,1,.1-.05c.6.2,1.2.4,1.79.61a.076.076,0,0,1-.028.148Zm-3.587-1.176h-.022c-.6-.18-1.209-.354-1.815-.521a.079.079,0,0,1-.054-.1.077.077,0,0,1,.037-.048.078.078,0,0,1,.06-.007c.607.165,1.218.342,1.817.521a.078.078,0,0,1,.053.1.076.076,0,0,1-.08.053Zm-54.012-.025a.079.079,0,0,1-.026-.156c.591-.2,1.2-.4,1.8-.587a.076.076,0,0,1,.1.051.08.08,0,0,1-.051.1c-.6.186-1.2.384-1.794.585a.071.071,0,0,1-.03.008Zm50.375-.976h-.019c-.6-.156-1.221-.3-1.836-.437a.078.078,0,1,1,.034-.153c.616.139,1.235.286,1.839.437a.079.079,0,0,1-.019.156Zm-46.769-.144a.077.077,0,0,1-.075-.058.078.078,0,0,1,.055-.1c.6-.167,1.216-.329,1.828-.481a.079.079,0,0,1,.1.058.076.076,0,0,1-.056.1c-.611.156-1.226.312-1.825.479A.052.052,0,0,1,994.473,374.151Zm43.077-.688h-.015c-.611-.125-1.234-.244-1.853-.356a.077.077,0,0,1-.052-.032.078.078,0,0,1-.013-.06.081.081,0,0,1,.092-.064c.624.112,1.248.233,1.856.357a.077.077,0,0,1,.051.033.078.078,0,0,1,.012.059.08.08,0,0,1-.083.063Zm-39.411-.22a.08.08,0,0,1-.017-.156c.61-.133,1.232-.261,1.851-.379a.078.078,0,0,1,.092.062.076.076,0,0,1-.062.092c-.624.119-1.248.247-1.848.379Zm35.695-.454h-.012q-.936-.15-1.872-.281a.078.078,0,0,1-.067-.089.08.08,0,0,1,.089-.067c.624.087,1.248.183,1.872.281a.078.078,0,1,1-.013.156Zm-31.986-.256a.078.078,0,0,1-.078-.066.08.08,0,0,1,.065-.091c.615-.1,1.248-.2,1.872-.284a.08.08,0,0,1,.089.067.078.078,0,0,1-.067.089q-.936.131-1.872.284Zm28.244-.268h-.009q-.936-.112-1.872-.209a.078.078,0,1,1,.016-.156c.624.064,1.259.134,1.879.209a.078.078,0,0,1-.009.156Zm-24.5-.253a.078.078,0,0,1-.009-.156c.624-.072,1.248-.137,1.881-.194a.078.078,0,1,1,.014.156c-.624.058-1.257.123-1.872.194Zm20.742-.131h0c-.624-.053-1.248-.1-1.882-.144a.078.078,0,0,1-.073-.084.076.076,0,0,1,.084-.073c.624.044,1.265.092,1.884.144a.08.08,0,0,1,0,.156Zm-16.985-.212a.08.08,0,0,1-.078-.073.078.078,0,0,1,.073-.084c.624-.044,1.257-.08,1.887-.109a.081.081,0,0,1,.083.075.08.08,0,0,1-.075.083c-.624.03-1.263.066-1.884.109Zm13.216-.044h0c-.624-.033-1.257-.061-1.887-.083a.079.079,0,0,1,.006-.158c.624.022,1.265.05,1.889.083a.078.078,0,0,1,.075.083.08.08,0,0,1-.084.075Zm-9.442-.136a.078.078,0,0,1-.08-.077.077.077,0,0,1,.076-.08c.614-.017,1.248-.027,1.871-.031h.025a.08.08,0,0,1,0,.156h-.023c-.624,0-1.248.014-1.872.03Zm5.666,0h0c-.624-.014-1.248-.023-1.887-.027a.078.078,0,0,1-.078-.08.075.075,0,0,1,.078-.078c.633,0,1.268.012,1.89.027a.081.081,0,0,1,.078.081.08.08,0,0,1-.083.075Z" transform="translate(-901.595 -349.565)" fill="#331832"/>
      <path id="Path_13382" data-name="Path 13382" d="M1419.492,355.146c-1.929-7.974-.195-17.381,12.039-20.347,7.966-1.931,16.433,3.219,19.153,10.959,3.306,9.407-1.124,16.676-12.352,20.659C1430.605,369.151,1421.9,365.115,1419.492,355.146Z" transform="translate(-1283.24 -318.419)" fill="#ef8062"/>
      <path id="Path_13383" data-name="Path 13383" d="M1444.58,375.886a11.926,11.926,0,0,1-5.713-1.453,13.853,13.853,0,0,1-6.641-9.187h0a16.376,16.376,0,0,1,.624-10.545c1.694-3.659,5.036-6.115,9.935-7.3,6.828-1.655,14.37,2.654,16.814,9.605,2.885,8.208-.936,14.649-10.775,18.137A12.7,12.7,0,0,1,1444.58,375.886Zm1.212-27.943a11.83,11.83,0,0,0-2.79.329c-4.623,1.121-7.764,3.413-9.336,6.811a15.436,15.436,0,0,0-.574,9.96h0a12.931,12.931,0,0,0,6.2,8.614,11.259,11.259,0,0,0,9.241.651c4.663-1.655,7.912-3.964,9.654-6.869s1.929-6.3.578-10.136a14.113,14.113,0,0,0-12.973-9.368Z" transform="translate(-1294.061 -329.095)" fill="#ffb27d"/>
      <path id="Path_13384" data-name="Path 13384" d="M1488.653,397.543l-.391-.954a.732.732,0,0,0-.885-.422,7.088,7.088,0,0,1-2.478.273.729.729,0,0,1-.661-.688l-.012-.25a.727.727,0,0,1,.78-.766,6.156,6.156,0,0,0,2.7-.437,2.283,2.283,0,0,0,1.3-3.239c-.505-1.23-1.276-1.663-3.161-1.673-2.586.017-5.2-.112-6-2.061a3.664,3.664,0,0,1,2.173-4.977.66.66,0,0,0,.235-.857l-.429-1.046a.731.731,0,0,1,.4-.952h0a.728.728,0,0,1,.952.4l.358.871a.725.725,0,0,0,.866.426,6.163,6.163,0,0,1,1.862-.242.727.727,0,0,1,.7.7l.009.242a.726.726,0,0,1-.748.751,5.565,5.565,0,0,0-2.274.434c-1.675.688-1.883,1.978-1.515,2.874.477,1.165,1.7.795,3.918.823,2.627.019,4.585.762,5.585,2.671,1.065,2.029.429,4.026-2.122,5.564a.693.693,0,0,0-.235.859l.457,1.113a.729.729,0,0,1-.4.952l-.022.009a.728.728,0,0,1-.956-.4Z" transform="translate(-1334.475 -356.433)" fill="#ffb27d"/>
      <path id="Path_13385" data-name="Path 13385" d="M1105.759,299.85c1.96-5.512,6.67-10.451,15.128-7.437,5.507,1.964,8.548,8.347,7.151,14.029-1.7,6.906-7.174,9.51-15.44,7.493C1106.918,312.544,1103.3,306.733,1105.759,299.85Z" transform="translate(-1018.34 -282.22)" fill="#ef8062"/>
      <path id="Path_13386" data-name="Path 13386" d="M1125.435,320.947a18.408,18.408,0,0,1-4.354-.573,8.659,8.659,0,0,1-5.668-4.318,9.852,9.852,0,0,1-.377-8.079l.3.106-.3-.106a11.626,11.626,0,0,1,4.492-6.045c2.439-1.521,5.391-1.68,8.779-.468,4.719,1.683,7.537,7.2,6.282,12.306C1133.428,318.484,1130.235,320.947,1125.435,320.947ZM1124.08,301.3a7.807,7.807,0,0,0-4.211,1.176,10.956,10.956,0,0,0-4.23,5.718h0a9.254,9.254,0,0,0,.337,7.563,8.036,8.036,0,0,0,5.254,4c3.431.837,6.268.729,8.441-.32a8.19,8.19,0,0,0,4.3-5.821c1.179-4.8-1.458-9.978-5.88-11.552a12,12,0,0,0-4.013-.768Z" transform="translate(-1026.256 -289.953)" fill="#ffb27d"/>
      <path id="Path_13387" data-name="Path 13387" d="M1156.738,334.717l.139-.723a.523.523,0,0,0-.363-.6,5.017,5.017,0,0,1-1.58-.8.519.519,0,0,1-.126-.668l.089-.156a.521.521,0,0,1,.763-.156,4.4,4.4,0,0,0,1.783.8,1.629,1.629,0,0,0,2.04-1.425c.178-.937-.112-1.492-1.234-2.236-1.549-1-3.061-2.1-2.778-3.576a2.609,2.609,0,0,1,3.239-2.12c.232.037.431-.189.468-.42l.156-.791a.519.519,0,0,1,.608-.414h0a.52.52,0,0,1,.412.609l-.126.66a.518.518,0,0,0,.351.593,4.432,4.432,0,0,1,1.205.584.519.519,0,0,1,.143.693l-.089.156a.517.517,0,0,1-.739.156,3.971,3.971,0,0,0-1.527-.624,1.545,1.545,0,0,0-2.027,1.121c-.169.882.7,1.138,2.018,2.029,1.56,1.04,2.438,2.248,2.288,3.778-.156,1.631-1.315,2.57-3.431,2.5a.5.5,0,0,0-.468.42l-.156.843a.521.521,0,0,1-.608.414h-.017a.521.521,0,0,1-.432-.642Z" transform="translate(-1060.34 -307.472)" fill="#ffb27d"/>
      <path id="Path_13388" data-name="Path 13388" d="M889.436,870.564c4.448.84,13.241,2.562,19.815-2.037a41.7,41.7,0,0,0,6.792-6.31l-4.86-6.913,2.43,3.456-2.422-3.461c-2.531,1.826-6.719,7.4-12.584,5.963-2.664-.651-5.771-1.054-8.971-5.785l-8.466,2.954C883.831,863.741,883.056,869.615,889.436,870.564Z" transform="translate(-829.439 -758.009)" fill="#26eac0"/>
      <path id="Path_13389" data-name="Path 13389" d="M1031,868.938s2.764-4.089,5.572-5.348,4.59-.216,4.59-.216l3.015-1.194s.432,11.358-7.4,9.357C1036.162,871.379,1031,868.938,1031,868.938Z" transform="translate(-955.901 -763.814)" fill="#ffb27d"/>
      <path id="Path_13390" data-name="Path 13390" d="M1034.314,804.844l-2.879,16.466a1.954,1.954,0,0,1-2.314,1.57l-7.715-1.552a1.944,1.944,0,0,1-1.538-2.236l2.838-16.227a1.953,1.953,0,0,1,2.254-1.581l7.757,1.313a1.944,1.944,0,0,1,1.6,2.246Z" transform="translate(-946.481 -712.401)" fill="#331832"/>
      <path id="Path_13391" data-name="Path 13391" d="M1099.333,818.258a.516.516,0,1,0-.5.526A.517.517,0,0,0,1099.333,818.258Z" transform="translate(-1012.706 -726.321)" fill="#daebe8"/>
      <path id="Path_13392" data-name="Path 13392" d="M1079.229,844.979s1.015-2.212-1.025-3.122c-2.6-1.155-6.948-.119-5.312.635a20.912,20.912,0,0,0,3.743,1.127s-5.838-1.093-5.65.194,5.221,2.157,5.221,2.157-5.781-.526-5.21.624,5.134,1.969,5.134,1.969-5.622-.817-4.928.509,3.69,1.16,4.974,1.379c1.215.208,1.742-.5,1.857-1.68a3.391,3.391,0,0,0,.683-1.894c-.045-.3.277-.54.34-.746A7.677,7.677,0,0,0,1079.229,844.979Z" transform="translate(-989.625 -746.227)" fill="#ffb27d"/>
      <path id="Path_13393" data-name="Path 13393" d="M742.389,1052.268c.03,1.191,7.28,1.664,16.25,1.386s16.129-1.51,16.1-2.7-7.247-1.891-16.22-1.613S742.358,1051.077,742.389,1052.268Z" transform="translate(-712.302 -921.708)" fill="#331832"/>
      <path id="Path_13394" data-name="Path 13394" d="M743.018,818.295s1.586-6.244,13.286-6.307c16.873-.091,15.311,15.31,16.872,38.715,0,0-10.229-4.243-32.352,1.314C740.823,852.017,739.359,827.834,743.018,818.295Z" transform="translate(-710.736 -721.457)" fill="#26eac0"/>
      <path id="Path_13395" data-name="Path 13395" d="M730.08,818.268l7.438,3.171s17.1,3.746,21.538,3.021,5.3-2.531,5.3-2.531-4.73-8.536-12.772-9.835c-.756-.123-1.539-.214-2.352-.265a39.547,39.547,0,0,0-4.064.08C736.32,812.25,730.08,818.268,730.08,818.268Z" transform="translate(-701.912 -721.296)" fill="#26eac0"/>
      <path id="Path_13396" data-name="Path 13396" d="M819.49,756.915l.883-2.832.257-.824,1.511-4.839.2,4.821.12,2.894.037.916c.025.624.407.752.872,1.293.187.219,1.391,1.545.025,2.145-1.7.748-4.885-.384-6.093-1.873C817.309,758.615,819.2,757.83,819.49,756.915Z" transform="translate(-775.53 -667.813)" fill="#ffb27d"/>
      <path id="Path_13397" data-name="Path 13397" d="M863.464,736.72a6.315,6.315,0,0,1,0,2.644c-.312,1.471-1.814-2.145-1.814-2.145Z" transform="translate(-812.963 -657.94)" fill="#5c305d"/>
      <ellipse id="Ellipse_99" data-name="Ellipse 99" cx="4.335" cy="5.193" rx="4.335" ry="5.193" transform="translate(41.385 77.846) rotate(-7.8)" fill="#ffb27d"/>
      <path id="Path_13398" data-name="Path 13398" d="M842.577,757.649a.088.088,0,0,0,.042-.067.089.089,0,0,0-.081-.094.956.956,0,0,0-1.014.573.089.089,0,0,0,.041.117.1.1,0,0,0,.117-.039,1.5,1.5,0,0,1,.842-.476A.09.09,0,0,0,842.577,757.649Z" transform="translate(-795.969 -675.458)" fill="#080435"/>
      <path id="Path_13399" data-name="Path 13399" d="M845.781,763.35c.055.2.218.331.366.292s.22-.236.165-.437-.218-.331-.366-.292S845.727,763.148,845.781,763.35Z" transform="translate(-799.554 -680.037)" fill="#080435"/>
      <path id="Path_13400" data-name="Path 13400" d="M864.284,755.252a.063.063,0,0,0,.048-.044.1.1,0,0,0-.034-.117.623.623,0,0,0-.9.1.1.1,0,0,0,0,.123.067.067,0,0,0,.1.012.935.935,0,0,1,.744-.086A.048.048,0,0,0,864.284,755.252Z" transform="translate(-814.424 -673.32)" fill="#080435"/>
      <path id="Path_13401" data-name="Path 13401" d="M863.977,760.792c-.026.208.075.39.226.409s.295-.134.312-.34-.075-.39-.226-.409S864.008,760.586,863.977,760.792Z" transform="translate(-814.924 -677.965)" fill="#080435"/>
      <path id="Path_13402" data-name="Path 13402" d="M800.77,751.649s1.45,3.106,3.506,3.334c0,0-1.663-2.368,1.84-3.811A11.232,11.232,0,0,0,800.77,751.649Z" transform="translate(-761.578 -670.027)" fill="#5c305d"/>
      <path id="Path_13403" data-name="Path 13403" d="M816.847,757.4a.9.9,0,0,0,1.248-.2.889.889,0,0,0-.343-1.21.9.9,0,0,0-1.248.2A.89.89,0,0,0,816.847,757.4Z" transform="translate(-774.757 -674.068)" fill="#ffb27d"/>
      <path id="Path_13404" data-name="Path 13404" d="M826.7,751.87s-.281,2.607.254,3.1,4.055.7,5.708.072h0a3.412,3.412,0,0,1-2.823,3.434,5,5,0,0,1-1.684,0h0a3.428,3.428,0,0,1-2.748-1.736,9.847,9.847,0,0,1,.275-2.31,2.249,2.249,0,0,0-.524-1.773A3.246,3.246,0,0,1,826.7,751.87Z" transform="translate(-782.164 -670.725)" fill="#5c305d"/>
      <path id="Path_13405" data-name="Path 13405" d="M804.776,721.034s-.29-1.823,1.149-1.955,3.08-.37,3.645,0a6.013,6.013,0,0,1,1.238,1.819s.789-2.733-.657-3.9-6.057-2.708-9-.673a4.434,4.434,0,0,0-1.716,5.181A17.305,17.305,0,0,1,804.776,721.034Z" transform="translate(-760.238 -639.889)" fill="#331832"/>
      <path id="Path_13406" data-name="Path 13406" d="M812.78,700.01s-2.169-1.78-1.68-3.1,2.787-.9,3.674-.693,1.039,1.78.326,2.8A3.076,3.076,0,0,1,812.78,700.01Z" transform="translate(-770.236 -623.57)" fill="#331832"/>
      <path id="Path_13407" data-name="Path 13407" d="M828.646,1435.882a2.716,2.716,0,0,1,2.517,1.382,2.267,2.267,0,0,0,1.092,1.021c1.56.648,6.1,1.233,4.409,2.712-.973.848-5.558.3-6.853.3s-2.511.56-3.473-.3c-.575-.515-.524-2.148-.359-3.527a1.83,1.83,0,0,1,2.027-1.606,2.8,2.8,0,0,0,.455.025Z" transform="translate(-782.762 -1247.93)" fill="#366f90"/>
      <path id="Path_13408" data-name="Path 13408" d="M715.36,1432.55s.058,2.3,1.623,2.949,6.1,1.233,4.408,2.712c-.972.848-5.557.3-6.851.3s-2.511.56-3.473-.3c-1.057-.948,0-5.661,0-5.661a5.192,5.192,0,0,0,2.123.553A4.145,4.145,0,0,0,715.36,1432.55Z" transform="translate(-685.468 -1245.144)" fill="#366f90"/>
      <path id="Path_13409" data-name="Path 13409" d="M803.505,1059.583a1.523,1.523,0,0,1,1.355,1.327c.17,1.405.2,4.355-.647,10.489-1.248,9.012-5.926,41.9-6.706,46.282-.279,1.561-.6,2.534-2.887,2.865l-3.038-.059c-2.474.358-3.431-2.281-3.444-3.968l1.989-50.659-7.907-5.993a112.156,112.156,0,0,1,12.609-.746A86,86,0,0,1,803.505,1059.583Z" transform="translate(-745.921 -930.01)" fill="#331832"/>
      <path id="Path_13410" data-name="Path 13410" d="M721.09,1063.83l-17.429,55.612a5.615,5.615,0,0,1-5.243,3.964l-1.047.019a3.958,3.958,0,0,1-3.915-4.7L703,1066.466c.137-.624.493-3.366,1.092-3.539C707.356,1061.991,721.41,1061.53,721.09,1063.83Z" transform="translate(-670.945 -932.575)" fill="#331832"/>
      <path id="Path_13411" data-name="Path 13411" d="M819.548,1137.2l-.278-.092,3.743-11.318a11.034,11.034,0,0,1,5.014-6.143l.145.255a10.743,10.743,0,0,0-4.882,5.98Z" transform="translate(-777.193 -981.091)" fill="#020202"/>
      <path id="Path_13412" data-name="Path 13412" d="M826.76,773.844a3.927,3.927,0,0,0,1.293,2.8c1.281,1.007.434,1.884,1.56,3.313s-.214,1.463,1.781,2.5,3.5.1,3.107-1.494,1.341-1.171.522-3.185-1.4-.781-.722-2.924-.285-2.7-.285-2.7-1.1.076-1.993.234-1.691-.12-2.313.078S826.76,773.844,826.76,773.844Z" transform="translate(-783.514 -687.839)" fill="#5c305d"/>
      <path id="Path_13413" data-name="Path 13413" d="M852.4,778.22a8.952,8.952,0,0,1-2.829.222,1.37,1.37,0,0,0,1.716,1.093C852.151,779.372,852.4,778.22,852.4,778.22Z" transform="translate(-802.767 -692.961)" fill="#fff"/>
      <path id="Path_13414" data-name="Path 13414" d="M863,956.491a.573.573,0,1,1,.169.405A.576.576,0,0,1,863,956.491Z" transform="translate(-814.102 -842.912)" fill="#5c305d"/>
      <path id="Path_13415" data-name="Path 13415" d="M863,1009.36a.573.573,0,1,1,.169.405A.576.576,0,0,1,863,1009.36Z" transform="translate(-814.102 -887.529)" fill="#5c305d"/>
      <path id="Path_13416" data-name="Path 13416" d="M926.922,891.012c-.321-5.187-2.915-11.85-2.941-11.916l.273-.106c.026.067,2.637,6.77,2.963,12Z" transform="translate(-865.572 -778)" fill="#331832"/>
      <path id="Path_13417" data-name="Path 13417" d="M622.271,935.3l-67.824-20.182a6.964,6.964,0,0,1-4.713-8.559L559.966,870.3a6.956,6.956,0,0,1,9.177-4.613l68.051,26.006a6.966,6.966,0,0,1,4.1,8.77L630.831,930.9A6.953,6.953,0,0,1,622.271,935.3Z" transform="translate(-549.472 -766.385)" fill="#ef8062"/>
      <path id="Path_13418" data-name="Path 13418" d="M587.975,1129.315l-.187.567a1.106,1.106,0,0,0,.855,1.275l13.048,4.491a1.11,1.11,0,0,0,1.457-.478h0a1.084,1.084,0,0,0-.789-1.249l-12.854-5.061A1.129,1.129,0,0,0,587.975,1129.315Z" transform="translate(-581.78 -988.771)" fill="#d96048"/>
      <path id="Path_13419" data-name="Path 13419" d="M702.437,1168.7l-.195.564a1.108,1.108,0,0,0,.855,1.275l13.049,4.493a1.111,1.111,0,0,0,1.457-.479h0a1.086,1.086,0,0,0-.789-1.249l-12.854-5.055A1.121,1.121,0,0,0,702.437,1168.7Z" transform="translate(-678.384 -1022.01)" fill="#d96048"/>
      <path id="Path_13420" data-name="Path 13420" d="M664.585,903.824l-.27.781a1.543,1.543,0,0,0,1.192,1.778l18.183,6.26a1.535,1.535,0,0,0,2.028-.668h0a1.512,1.512,0,0,0-1.1-1.742l-17.912-7.047A1.573,1.573,0,0,0,664.585,903.824Z" transform="translate(-646.359 -798.292)" fill="#d96048"/>
      <path id="Path_13421" data-name="Path 13421" d="M824.158,958.723l-.27.781a1.543,1.543,0,0,0,1.191,1.777l18.185,6.262a1.536,1.536,0,0,0,2.027-.668h0a1.515,1.515,0,0,0-1.1-1.744l-17.91-7.044A1.566,1.566,0,0,0,824.158,958.723Z" transform="translate(-781.045 -844.619)" fill="#d96048"/>
      <path id="Path_13422" data-name="Path 13422" d="M587.569,953.67l-2.929,9.012,80.494,29.4,3.6-10.472Z" transform="translate(-579.156 -841.022)" fill="#331832"/>
      <path id="Path_13423" data-name="Path 13423" d="M981.674,1239.493l-6.806-2.03a1.377,1.377,0,0,1-.936-1.692l1.538-5.464a1.375,1.375,0,0,1,1.861-.9l6.845,2.9a1.375,1.375,0,0,1,.763,1.717l-1.572,4.588A1.375,1.375,0,0,1,981.674,1239.493Z" transform="translate(-907.69 -1073.626)" fill="#331832"/>
      <path id="Path_13424" data-name="Path 13424" d="M754.668,1018.087a23.879,23.879,0,0,1-2.918-3.832s2-3.2,2.467-3.231c1.784-.131,4.069.693,5.137.712.468.009,2.028.145,2.071.607.044.4-1.248.884-1.887,1.038,2.472,1.8,5.27,5.531-.182,2.143v.009c.519.393,3.96,3.183,3.161,3.673-.706.434-3.391-1.647-4.251-2.285l-.02.022c.819.726,3.366,2.832,2.564,3.027-1.007.244-4-1.628-4-1.628s2.994,2.07,1.871,2.5c-.769.29-2.937-1.77-3.724-2.449A1.637,1.637,0,0,1,754.668,1018.087Z" transform="translate(-720.203 -889.41)" fill="#ffb27d"/>
      <path id="Path_13425" data-name="Path 13425" d="M676.957,834.14S644.408,850.7,676.227,865c0,0,3.49-2.047,4.2-4.5,0,0-6.062-8.052-4.88-10.258s9.2-6.92,9.2-6.92Z" transform="translate(-644.68 -740.152)" fill="#26eac0"/>
    </g>
  </g>
</svg>
