<svg xmlns="http://www.w3.org/2000/svg" width="250" height="221.998" viewBox="0 0 250 221.998">
  <g id="OBJECTS" transform="translate(-88.947 -45.238)">
    <path id="Path_13222" data-name="Path 13222" d="M561.049,372.439c-18.992,1.616-31.8,37.288-79.279,15.84,0,0,5.217-15.564,28.571-25.268S561.049,372.439,561.049,372.439Z" transform="translate(-224.429 -129.96)" fill="#24e3bb"/>
    <path id="Path_13223" data-name="Path 13223" d="M495.88,398.422a132.36,132.36,0,0,1,15.347-6.744c1.31-.5,2.634-.953,3.962-1.381s2.661-.865,4-1.28,2.693-.778,4.045-1.146c.676-.18,1.351-.373,2.032-.543l2.045-.493,2.05-.46,2.064-.405,2.064-.41c.689-.129,1.379-.235,2.078-.341,1.379-.2,2.758-.437,4.169-.571s2.785-.345,4.192-.4a70.165,70.165,0,0,1,16.763.621,113.555,113.555,0,0,0-16.616.875l-1.03.115-1.03.161-2.05.3c-1.379.175-2.73.46-4.091.7-.68.133-1.379.23-2.045.373l-2.032.424-2.032.423-2.018.483-2.027.46c-.671.161-1.338.341-2.009.511l-2.013.525c-.671.17-1.333.377-2,.552-1.338.368-2.675.727-4,1.142s-2.666.783-3.985,1.206C506.406,394.749,501.152,396.572,495.88,398.422Z" transform="translate(-232.053 -142.773)" fill="#b0bdd1"/>
    <path id="Path_13224" data-name="Path 13224" d="M553.15,254.732c-23.175,16.572-12.456,72.191-89.8,80.947,0,0-5.162-23.984,17.466-54.32S553.15,254.732,553.15,254.732Z" transform="translate(-214.204 -72.931)" fill="#24e3bb"/>
    <path id="Path_13225" data-name="Path 13225" d="M475.15,338.814a130.2,130.2,0,0,1,12.217-20.867A147.1,147.1,0,0,1,503,299.376a128.346,128.346,0,0,1,18.593-15.615,83.44,83.44,0,0,1,21.557-10.951,134.4,134.4,0,0,0-20.008,13.074,193,193,0,0,0-17.761,15.868,238.242,238.242,0,0,0-15.913,17.774C484.439,325.731,479.733,332.185,475.15,338.814Z" transform="translate(-220.851 -82.764)" fill="#cddcf4"/>
    <path id="Path_13226" data-name="Path 13226" d="M115.41,364.628c18.845,2.951,29.1,39.419,77.969,21.392,0,0-4.109-15.9-26.724-27.225S115.41,364.628,115.41,364.628Z" transform="translate(-26.463 -127.079)" fill="#24e3bb"/>
    <path id="Path_13227" data-name="Path 13227" d="M196.487,394.067c-5.13-2.219-10.241-4.405-15.416-6.445-1.287-.516-2.592-.99-3.889-1.487s-2.6-.958-3.912-1.418c-.653-.221-1.3-.46-1.958-.7l-1.967-.663c-.657-.216-1.315-.46-1.972-.654l-1.99-.6-1.976-.626-2-.566-2-.566c-.662-.189-1.342-.331-2.009-.511-1.342-.345-2.675-.714-4.031-.985l-2.027-.46-1.011-.23-1.02-.189a113.046,113.046,0,0,0-16.52-2.044,70.059,70.059,0,0,1,16.768.566c1.379.147,2.758.46,4.137.69s2.758.566,4.137.865c.685.157,1.379.309,2.045.488l2.032.548,2.032.552,2.013.617,2,.635c.666.216,1.324.46,1.986.681,1.324.46,2.657.921,3.953,1.432s2.615,1.008,3.9,1.561,2.583,1.077,3.852,1.671A130.917,130.917,0,0,1,196.487,394.067Z" transform="translate(-35.855 -138.27)" fill="#b0bdd1"/>
    <path id="Path_13228" data-name="Path 13228" d="M142.65,249.35c20.868,17.29,6.982,69.3,79.744,82.788,0,0,6.5-22.4-12.925-52.668S142.65,249.35,142.65,249.35Z" transform="translate(-41.183 -70.104)" fill="#24e3bb"/>
    <path id="Path_13229" data-name="Path 13229" d="M235.887,335.893c-3.93-6.578-7.979-13-12.323-19.215a223.653,223.653,0,0,0-13.909-17.907,186.338,186.338,0,0,0-15.766-16.241,129.7,129.7,0,0,0-18.059-13.81A78.916,78.916,0,0,1,195.595,280.5a121.741,121.741,0,0,1,16.625,16.066,138.511,138.511,0,0,1,13.55,18.676,121.575,121.575,0,0,1,10.117,20.646Z" transform="translate(-59.112 -80.557)" fill="#cddcf4"/>
    <path id="Path_13230" data-name="Path 13230" d="M394.32,354.53c-2.611,3.107-4.978,8.259-6.435,9.078s-3.976,1.1-6.3,8.631,9.478,6.514,9.478,6.514a17.467,17.467,0,0,0,7.1-9.934l5.056-4.493Z" transform="translate(-170.128 -126.865)" fill="#f6a397"/>
    <path id="Path_13231" data-name="Path 13231" d="M389.6,388.013a18.94,18.94,0,0,0,7.074-4.682c3.259-3.443,3.677-9.575,3.677-9.575l1.563,2.919,3.121-3.337,1.5-.147,1.108,1.224-5.056,4.493a17.467,17.467,0,0,1-7.1,9.934,18.7,18.7,0,0,1-6.021-.548C389.544,388.124,389.6,388.013,389.6,388.013Z" transform="translate(-174.554 -136.935)" fill="#d65863"/>
    <path id="Path_13232" data-name="Path 13232" d="M423.025,295.8c-3.622,2.652-5.782,4.576-7.584,8.18S402.36,320.553,401.652,321.7s6.343,13.419,11.992,16.425c0,0,8.536-9.861,13.454-13.585s3.218-16.95.961-21.4A34.692,34.692,0,0,0,423.025,295.8Z" transform="translate(-181.11 -95.171)" fill="#5470d3"/>
    <path id="Path_13233" data-name="Path 13233" d="M431.747,338.971v-7.366s.961-.382,1.705,2.1a6.822,6.822,0,0,1,.143,2.937l5.493-4.143c.23,4.631-.515,9.345-3.149,11.338-4.918,3.724-13.454,13.585-13.454,13.585a17.933,17.933,0,0,1-4.5-3.825C421.465,350.143,428.056,343.454,431.747,338.971Z" transform="translate(-189.965 -114.482)" fill="#314ec6"/>
    <path id="Path_13234" data-name="Path 13234" d="M369.632,400.87c-.919.295-1.632.746-1.632,1.929a9.586,9.586,0,0,0,.653,3.8c.45.732,2.758,1.178,2.758,1.178s-.156-4.9-.644-5.8A2.3,2.3,0,0,0,369.632,400.87Z" transform="translate(-162.952 -151.873)" fill="#f6a397"/>
    <path id="Path_13235" data-name="Path 13235" d="M369.042,412.316a3.282,3.282,0,0,1-.322-.856,1.585,1.585,0,0,0,1.292.566l1.76.548c.028.552.037.921.037.921S369.492,413.053,369.042,412.316Z" transform="translate(-163.341 -157.588)" fill="#d65863"/>
    <path id="Path_13236" data-name="Path 13236" d="M373.525,397a2.426,2.426,0,0,0-2.3,2.168c0,1.188-.409,4.5,0,5.027a9.735,9.735,0,0,0,3.1,2.168c.694.124,1.875-.083,1.714-.46S373.525,397,373.525,397Z" transform="translate(-164.597 -149.784)" fill="#f6a397"/>
    <path id="Path_13237" data-name="Path 13237" d="M371.08,410.68c.869.98,3.084.893,3.084.893a8.747,8.747,0,0,1,1.094,1.381c.074.2.46.46.529.672a3.14,3.14,0,0,1-1.43.115,9.689,9.689,0,0,1-3.07-2.131l-.207-.921Z" transform="translate(-164.616 -157.167)" fill="#d65863"/>
    <path id="Path_13238" data-name="Path 13238" d="M380.66,392.73c-3.507.2-4.16.525-4.279,1.956s-.041,5.6.4,6.666a8.215,8.215,0,0,0,1.269,2.573,2.214,2.214,0,0,0,1.425.575s1.921-2.822,2-5.193A36.281,36.281,0,0,0,380.66,392.73Z" transform="translate(-167.454 -147.48)" fill="#f6a397"/>
    <path id="Path_13239" data-name="Path 13239" d="M379.08,406.857a21.251,21.251,0,0,0,.625-5.257c0-1.22,1.149,5.156.643,6.905-.253.433-.432.7-.432.7a2.214,2.214,0,0,1-1.425-.575,8.315,8.315,0,0,1-1.269-2.573,2.6,2.6,0,0,1-.083-.249A2.072,2.072,0,0,0,379.08,406.857Z" transform="translate(-167.891 -152.183)" fill="#d65863"/>
    <path id="Path_13240" data-name="Path 13240" d="M391.734,398.581c-.221,1.952-2.758,2.656-3.061,3.637s-.083,1.883-.575,2.127-2.528-.9-2.45-2.205a2.543,2.543,0,0,1-1.715,1.307c-1.181.2-1.466-.663-1.264-1.966a16.732,16.732,0,0,0,.124-3.554c-.041-1.556-.409-2.983.285-4.7s1.632-3.222,3.512-2.946,3.02,2.656,4.04,3.476S391.982,396.413,391.734,398.581Z" transform="translate(-170.847 -146.141)" fill="#f6a397"/>
    <path id="Path_13241" data-name="Path 13241" d="M389.22,406.565c.115-2.486.244-4.521.244-4.921s-.129-3.038.809-3.195c.143-.028,2.2,1.28,2.238,2.164s0,2.463-.639,2.914A28.816,28.816,0,0,0,389.22,406.565Z" transform="translate(-174.419 -150.566)" fill="#d65863"/>
    <path id="Path_13242" data-name="Path 13242" d="M503.742,288.348c-3.723-4.746-5-5.206-8.844-7.453s-18.386-7.936-21.406-8.659-15.1,4.921-19.071,6.735-9.023,3.577-9.887,5.335c-2.882,5.883,2.827,14.22,2.859,31.69,0,9.152,2.1,29.729,2.1,29.729s45.735.083,46.373-.879,2.225-33.817,3.034-40.529S503.742,288.348,503.742,288.348Z" transform="translate(-203.869 -82.42)" fill="#5470d3"/>
    <path id="Path_13243" data-name="Path 13243" d="M444.694,310.575a22.5,22.5,0,0,1-.717-3.365,23,23,0,0,1-.267-3.43,22.4,22.4,0,0,1,.722,3.365A23.629,23.629,0,0,1,444.694,310.575Z" transform="translate(-203.863 -99.477)" fill="#314ec6"/>
    <path id="Path_13244" data-name="Path 13244" d="M474.868,299.262c-1.765-.663-5.952.488-6.715.755s.46-3.011.919-3.416a2.384,2.384,0,0,1,2.551-.921,5.518,5.518,0,0,1,2.758,2.532A7.436,7.436,0,0,0,474.868,299.262Z" transform="translate(-216.938 -95.047)" fill="#314ec6"/>
    <path id="Path_13245" data-name="Path 13245" d="M500.112,303.113a40.208,40.208,0,0,1-5.185-2.145c-.883-.419-4.868-.617-7.547.134,0,0,5.157-3.489,8.159-3.462s4.137,1.114,4.38,2.076a20.042,20.042,0,0,1,.193,3.4Z" transform="translate(-227.46 -96.164)" fill="#314ec6"/>
    <path id="Path_13246" data-name="Path 13246" d="M463.372,364.646c.492-.46,30.359.483,30.957-2.642s1.016-8.811,1.016-8.811c-3.594,1.924-8.816,1.123-8.816,1.123,3.479-1.142,8.522-6.859,8.761-8.544.74-5.183-2.027-19.477-2.027-19.477l2.027-4.083,2.372-1.321A32.893,32.893,0,0,1,506,327.257a33.707,33.707,0,0,0-.593,3.328c-.754,6.348-2.22,35.907-2.919,40.082-9.253.341-26.02.957-37.231,1.34H456s-.069-2.707-.234-6.588C458.891,365.244,463.069,364.945,463.372,364.646Z" transform="translate(-210.379 -108.711)" fill="#314ec6"/>
    <path id="Path_13247" data-name="Path 13247" d="M475.5,286.135c3.217-.391,8.4-3.186,10.443-2.223s2.519,3.425,2.942,3.844,2.22-1.68,2.22-6.85.156-10.464-3.645-11.182-13.642,3.006-15.628,4.511a9.372,9.372,0,0,0-3.36,4.484c-.538,1.464-1.981,7.365-1.319,7.416s2.519-3.789,3.9-3.908S474.624,286.24,475.5,286.135Z" transform="translate(-216.436 -81.049)" fill="#5470d3"/>
    <path id="Path_13248" data-name="Path 13248" d="M479.53,286.252c-.823-1.952-1.724-3.683-1.691-5.018s.331-2.3,1.839-2.7,2.133.391,2.22,2.431S479.53,286.252,479.53,286.252Z" transform="translate(-222.304 -85.798)" fill="#314ec6"/>
    <path id="Path_13249" data-name="Path 13249" d="M507.12,278.325c3.135-2.849,3.489-6.035,3.218-6.693s-1.59-1.142-1.59-1.142-.51,2.072-.211,2.583S507.12,278.325,507.12,278.325Z" transform="translate(-238.127 -81.512)" fill="#314ec6"/>
    <path id="Path_13250" data-name="Path 13250" d="M496.25,295.729a15.8,15.8,0,0,1,2.376-.833,8.261,8.261,0,0,1,2.528-.3,2.3,2.3,0,0,1,1.278.428c.34.322.6.612.887.921a9.833,9.833,0,0,1,1.328,2.182,1.032,1.032,0,0,0,.262.391l.069-.028a1.039,1.039,0,0,0,.175-.175,7.112,7.112,0,0,0,.611-1.04,8.511,8.511,0,0,0,.74-2.329,20.057,20.057,0,0,0,.3-2.472c.074-.833.1-1.666.11-2.5a21.731,21.731,0,0,1-.064,5.036,8.187,8.187,0,0,1-.7,2.463,6.87,6.87,0,0,1-.653,1.128,1.614,1.614,0,0,1-.266.267.639.639,0,0,1-.225.1.459.459,0,0,1-.294-.032.82.82,0,0,1-.313-.3,2.889,2.889,0,0,1-.17-.3,9.454,9.454,0,0,0-1.25-2.108,12.135,12.135,0,0,0-.809-.921,2.038,2.038,0,0,0-1.057-.391,8.164,8.164,0,0,0-2.445.17A20.266,20.266,0,0,0,496.25,295.729Z" transform="translate(-232.253 -92.025)" fill="#314ec6"/>
    <path id="Path_13251" data-name="Path 13251" d="M472.809,298.257a10.213,10.213,0,0,0-1.071-.875,3.273,3.273,0,0,0-.57-.331,1.292,1.292,0,0,0-.285-.083.456.456,0,0,0-.115,0c-.028,0-.046,0-.1.051a6.316,6.316,0,0,0-1.889,1.887c-.262.364-.487.778-.8,1.155a3.326,3.326,0,0,1-.524.525.79.79,0,0,1-.409.189.427.427,0,0,1-.3-.1.488.488,0,0,1-.138-.221,1.844,1.844,0,0,1-.037-.764c.032-.239.074-.46.124-.7a12.1,12.1,0,0,1,.409-1.335c-.064.46-.147.921-.184,1.381a5.638,5.638,0,0,0-.046.677,1.61,1.61,0,0,0,.069.617.185.185,0,0,0,.041.064h.023a.515.515,0,0,0,.2-.12,2.731,2.731,0,0,0,.432-.46c.267-.35.487-.75.758-1.146a7.141,7.141,0,0,1,.919-1.091,4.914,4.914,0,0,1,1.163-.838.722.722,0,0,1,.211-.083.769.769,0,0,1,.23,0,1.278,1.278,0,0,1,.372.138,3.466,3.466,0,0,1,.584.428,7.429,7.429,0,0,1,.928,1.031Z" transform="translate(-216.203 -95.63)" fill="#314ec6"/>
    <path id="Path_13252" data-name="Path 13252" d="M480.559,254.238a37.388,37.388,0,0,0,.188,3.8c.326,3.1,0,7.191.253,7.941.271.842,1.894,3.848,1.894,3.848a14.486,14.486,0,0,0,4.082-2.762c1.2-1.441,2.758-1.515,4.858-3.641s3.53-5.524,3.061-8.318c-.06-.359-.427-3.959-.51-7.688s-3.99-6.555-7.713-6.555-5.948,5.524-6.063,9.253C480.563,251.641,480.554,253.078,480.559,254.238Z" transform="translate(-223.774 -65.522)" fill="#f6a397"/>
    <path id="Path_13253" data-name="Path 13253" d="M494.386,248.571c.083,3.729.46,7.329.51,7.688a7.529,7.529,0,0,1-.074,2.716c-.823.152-11.422.41-14.166-.87-.064-.921-.092-1.8-.1-2.707,0-1.16,0-2.6.05-4.143a14.054,14.054,0,0,1,1.241-5.151l8.733-3.094A6.723,6.723,0,0,1,494.386,248.571Z" transform="translate(-223.775 -66.682)" fill="#d65863"/>
    <path id="Path_13254" data-name="Path 13254" d="M457.26,221.38a7.361,7.361,0,0,0-7.74,7.582c0,2.909.919,7.577,7.74,7.577,3.4,0,5.7-3.393,5.7-7.577S460.662,221.38,457.26,221.38Z" transform="translate(-207.002 -55.01)" fill="#504984"/>
    <path id="Path_13255" data-name="Path 13255" d="M458.952,225.41a5.558,5.558,0,0,0-5.842,5.727c0,2.2.7,5.722,5.842,5.722,2.569,0,4.307-2.564,4.307-5.722S461.522,225.41,458.952,225.41Z" transform="translate(-208.942 -57.184)" fill="#372d5b"/>
    <path id="Path_13256" data-name="Path 13256" d="M450.611,206.522c.336,1.975,1.31,2.73,1.747,5.4s-.726,6.532,1.007,9.907,4.541,7.8,6.164,7.992,14.6-2.012,18.979-10.735c1.259-2.5,3.944-12.319,1.646-18.317s-6.04-11.509-14.681-11.656S448.851,196.049,450.611,206.522Z" transform="translate(-207.459 -37.592)" fill="#f6a397"/>
    <path id="Path_13257" data-name="Path 13257" d="M465.539,248.781a1.534,1.534,0,0,0,1.2-.46,1.216,1.216,0,0,0,.221-.921,2.754,2.754,0,0,1-2.335.506C464.523,248.5,465,248.767,465.539,248.781Z" transform="translate(-215.156 -69.051)" fill="#d65863"/>
    <path id="Path_13258" data-name="Path 13258" d="M468.122,196.207a5.826,5.826,0,0,0-1.7-3.222,24.96,24.96,0,0,0-5.861-1.625,33.382,33.382,0,0,1-5.171-1,7.081,7.081,0,0,0,2.179,2.932s-6.109-.308-8.039-2.118c0,0,.372,1.491.749,2.49,0,0-2.992-.308-3.93-1.492a20.21,20.21,0,0,0-.749,4.051s-3.594-4.926-2.68-8.839,2.16-5.414,2.16-5.414a19.53,19.53,0,0,1-3.99,0s3.328-2.909,5.819-4.824,9.974-2,9.974-2a11.532,11.532,0,0,1,.083-5.16s3.218,4.7,6.587,6.136a27.768,27.768,0,0,0,6.522,2.223,16.6,16.6,0,0,1,8.439,5.142c1.434,1.92,2.992,3.936,3.925,4.249a8.165,8.165,0,0,1-3.365-1.252,12.687,12.687,0,0,1-.6,9.736c-2.473,5.478-8.669,3.858-9.869,2.647a2.351,2.351,0,0,1-.483-2.665Z" transform="translate(-202.447 -27.277)" fill="#ba6454"/>
    <path id="Path_13259" data-name="Path 13259" d="M497.758,207.164a2.35,2.35,0,0,1-.483-2.647,5.832,5.832,0,0,0-1.2-2.7A36.641,36.641,0,0,0,495,185.39a18.3,18.3,0,0,0,2.836.921,30.865,30.865,0,0,1,3.755,8.157c1.085,3.628,1.613,7.545.6,11.191a12.109,12.109,0,0,1-1.117,2.7A5.749,5.749,0,0,1,497.758,207.164Z" transform="translate(-231.577 -35.587)" fill="#874438"/>
    <path id="Path_13260" data-name="Path 13260" d="M496.7,201.328s.427-13.7-6.743-18.064a9.356,9.356,0,0,1,8.752,4.935,22.7,22.7,0,0,1,2.882,12.991C501.511,203.86,496.7,201.328,496.7,201.328Z" transform="translate(-228.854 -34.433)" fill="#504984"/>
    <path id="Path_13261" data-name="Path 13261" d="M502.674,221.38a7.361,7.361,0,0,1,7.74,7.582c0,2.909-.919,7.577-7.74,7.577-3.4,0-5.7-3.393-5.7-7.577S499.282,221.38,502.674,221.38Z" transform="translate(-232.642 -55.01)" fill="#504984"/>
    <path id="Path_13262" data-name="Path 13262" d="M502.78,229.96c0-3.72,2.45-6.73,5.47-6.73s5.3,3.011,5.3,6.73-2.3,6.726-5.3,6.726S502.78,233.675,502.78,229.96Z" transform="translate(-235.781 -56.008)" fill="#372d5b"/>
    <ellipse id="Ellipse_92" data-name="Ellipse 92" cx="3.723" cy="4.58" rx="3.723" ry="4.58" transform="translate(269.467 169.372)" fill="#504984"/>
    <path id="Path_13263" data-name="Path 13263" d="M470.2,254.31c-1.521.838-6.49,1.119-6.83,1.073s.359,3.729,1.577,3.872,3.65-.189,4.665-1.165S470.2,254.31,470.2,254.31Z" transform="translate(-214.439 -72.781)" fill="#d65863"/>
    <path id="Path_13264" data-name="Path 13264" d="M470.334,255.685l-.239-.865a26.832,26.832,0,0,1-5.975.838,6.915,6.915,0,0,0,.437,1.519c.032,0,0,.051.023.028A7.388,7.388,0,0,0,470.334,255.685Z" transform="translate(-214.891 -73.056)" fill="#fff"/>
    <path id="Path_13265" data-name="Path 13265" d="M476.87,233.218c0-.691.34-1.248.758-1.248s.758.557.758,1.248-.336,1.248-.758,1.248S476.87,233.908,476.87,233.218Z" transform="translate(-221.781 -60.725)" fill="#3f1751"/>
    <path id="Path_13266" data-name="Path 13266" d="M458,234.532c0-.691.294-1.252.653-1.252s.653.562.653,1.252-.29,1.248-.653,1.248S458,235.2,458,234.532Z" transform="translate(-211.584 -61.432)" fill="#3f1751"/>
    <path id="Path_13267" data-name="Path 13267" d="M478.151,223a7.883,7.883,0,0,0-3.424-.921,4.356,4.356,0,0,0-1.839.18,3.374,3.374,0,0,0-1.508,1.054l.046.074c.625-.069,1.145-.221,1.692-.295s1.048-.276,1.609-.322a9.684,9.684,0,0,1,3.374.3Z" transform="translate(-218.814 -55.369)" fill="#3f1751"/>
    <path id="Path_13268" data-name="Path 13268" d="M453.171,226.294a3.345,3.345,0,0,1,.841-.2,7.375,7.375,0,0,1,.841-.055,3.674,3.674,0,0,0,.837.028,2.194,2.194,0,0,0,.427-.115,1.793,1.793,0,0,0,.46-.226v-.087a1.636,1.636,0,0,0-.887-.46,2.08,2.08,0,0,0-.919.152,4.228,4.228,0,0,0-.882.327,2.906,2.906,0,0,0-.758.548Z" transform="translate(-208.953 -57.056)" fill="#3f1751"/>
    <path id="Path_13269" data-name="Path 13269" d="M443.77,413.2c0,.193-.267.46-.919.46H422.024c-2.4,0-2.96-.948-2.238-2.15s3.76-3.848,11.28-5.69,11.491,2.463,12.7,4.405A3.075,3.075,0,0,1,443.77,413.2Z" transform="translate(-190.776 -154.305)" fill="#504984"/>
    <path id="Path_13270" data-name="Path 13270" d="M419.618,414.121c.414,1.381,16.3.658,16.3.658s-1.613-2.177-3.392-2.237-2.648.557-5.033.967-.62-.971-.62-.971a7.894,7.894,0,0,1-2.372-.921s3.935-1.165,5.585-1.436a36.847,36.847,0,0,1,6.389,0c.386.064,2.321-1.063,4.665-.5a10.409,10.409,0,0,1,2.638,2.762,3.06,3.06,0,0,1,0,2.965c0,.193-.267.46-.919.46H422.032C419.88,415.911,419.214,415.147,419.618,414.121Z" transform="translate(-190.784 -156.543)" fill="#372d5b"/>
    <path id="Path_13271" data-name="Path 13271" d="M492.132,381.615s-14.8,2.3-22.826,3.733c-7.6,1.381-14.166,1.952-16.023,1.593a99.12,99.12,0,0,1-10.264-3.549c-2.041-.842-6.122-1.321-8.223-.658a27.1,27.1,0,0,1-4.661,1.381c-.841,0-.68,1.381.46,1.643a8.331,8.331,0,0,0,2.119.239s-3.8,2.085-4.482,2.3.129,1.445,1.048,1.381c0,0-.809.483-.529.962s2.3.483,2.3.483-2.441,1.2-.4,1.68,4.482-1.8,5.484-2a6.927,6.927,0,0,1,4.44.76c1.117.838,5.925,4.728,12.484,2.408,0,0,44.539,1.8,48.98,1.8s7.125-3.931,5.7-11.509A57.5,57.5,0,0,0,503.513,371l-15.361,1.082Z" transform="translate(-195.363 -135.753)" fill="#f6a397"/>
    <path id="Path_13272" data-name="Path 13272" d="M445.87,400.811a5.711,5.711,0,0,1,.919-.161Z" transform="translate(-205.03 -151.754)" fill="#d65863"/>
    <path id="Path_13273" data-name="Path 13273" d="M434.911,402.15a8.328,8.328,0,0,1-2.119-.239,1.3,1.3,0,0,1-.712-.46,5.884,5.884,0,0,0,3.617,0c.529-.124,1.839-.364,2.721-.52A20.5,20.5,0,0,0,434.911,402.15Z" transform="translate(-197.578 -151.905)" fill="#d65863"/>
    <path id="Path_13274" data-name="Path 13274" d="M438.67,407.387a2.169,2.169,0,0,1,.23-.1Z" transform="translate(-201.139 -155.337)" fill="#d65863"/>
    <path id="Path_13275" data-name="Path 13275" d="M428.51,408.861s.46.4,1.379,0c.768-.336,2.638-1.1,3.291-1.381-.818.373-3.043,1.625-3.631,1.841a1.277,1.277,0,0,1-1.039-.46Z" transform="translate(-195.649 -155.44)" fill="#d65863"/>
    <path id="Path_13276" data-name="Path 13276" d="M431.813,411.413c.68-.2,2.1-1.063,2.969-1.473a5.934,5.934,0,0,1,1.981-.46,4.077,4.077,0,0,0-1.2.46c-.869.428-3.254,1.915-3.254,1.915a7.509,7.509,0,0,1-1.94-.249A5.788,5.788,0,0,0,431.813,411.413Z" transform="translate(-196.654 -156.519)" fill="#d65863"/>
    <path id="Path_13277" data-name="Path 13277" d="M453.473,412.95a13.319,13.319,0,0,0,7.2,1.381,3.375,3.375,0,0,0,2.7-2.3l.643,2.021s30.888.884,37.171.6c6.21-.281,15.894-.424,17.159-4.143-.345,4.336-2.689,6.564-6.035,6.564-4.44,0-48.98-1.8-48.98-1.8-6.559,2.3-11.362-1.565-12.484-2.408a6.6,6.6,0,0,0-3.829-.833h0C448.7,411.421,452.214,412.167,453.473,412.95Z" transform="translate(-205.651 -157.075)" fill="#d65863"/>
    <path id="Path_13278" data-name="Path 13278" d="M566.075,388.755s5.787-.787,6.95-.921l-.883-3.6-7.322,1.482Z" transform="translate(-269.305 -142.893)" fill="#d65863"/>
    <path id="Path_13279" data-name="Path 13279" d="M566.146,335.347a1.512,1.512,0,0,1-.354,1.625c-2.689,2.629-6.219,6.21-9.85,6.762-3.962.6-10.572.842-10.926,0s-1.678-11.541-4.082-16.95-3.958-8.176-4.56-11.3,4.8-10.459,7.2-11.048,7.92-.962,10.2,1.082,3.958,9.856,6.6,15.748C562.511,326.006,565.19,332.875,566.146,335.347Z" transform="translate(-253.91 -99.58)" fill="#5470d3"/>
    <path id="Path_13280" data-name="Path 13280" d="M552.346,304.135c-.731-.083-1.466-.147-2.2-.161a21.965,21.965,0,0,0-2.2,0,18.906,18.906,0,0,0-2.174.249c-.363.055-.717.138-1.071.221a5.05,5.05,0,0,0-.97.4,6.6,6.6,0,0,0-.919.571c-.271.239-.556.46-.8.723a14.376,14.376,0,0,0-1.42,1.653,21.225,21.225,0,0,0-1.218,1.841c-.391.626-.74,1.275-1.076,1.938a18.427,18.427,0,0,1,2-3.977,12.25,12.25,0,0,1,1.379-1.759,10.24,10.24,0,0,1,.837-.769,6.592,6.592,0,0,1,.961-.621,5.229,5.229,0,0,1,1.08-.428c.368-.078.731-.166,1.1-.212a14.041,14.041,0,0,1,2.234-.17A18.012,18.012,0,0,1,552.346,304.135Z" transform="translate(-254.97 -99.395)" fill="#314ec6"/>
    <path id="Path_13281" data-name="Path 13281" d="M585.688,342.542c0-1.92-4.072-19.528-7.648-29.342h0c1.521,3.351,2.942,8.71,4.881,13.037,2.128,4.751,4.808,11.619,5.764,14.091a1.512,1.512,0,0,1-.354,1.625c-1.03,1.008-2.183,2.154-3.42,3.222A3.628,3.628,0,0,0,585.688,342.542Z" transform="translate(-276.449 -104.561)" fill="#314ec6"/>
    <path id="Path_13282" data-name="Path 13282" d="M174.6,330.968a2.853,2.853,0,0,0,.34,1.712,12.32,12.32,0,0,1,1.508,6.279,14.355,14.355,0,0,0,.051,4.281c.676,2.38,3.185,3.853,3.994,6.2.712,2.071.051,4.682,1.535,6.293a1.378,1.378,0,0,0,1.448.5,1.78,1.78,0,0,0,.625-.52c1.705-1.938,3.53-4.3,3.006-6.831-.5-2.38-2.942-3.987-3.406-6.371-.382-1.947.616-4.2-.5-5.837-.308-.46-.745-.8-1.085-1.234-1.324-1.7-.832-4.419-2.363-5.948a3.519,3.519,0,0,0-1.8-.921,2.8,2.8,0,0,0-3.355,2.4Z" transform="translate(-58.436 -112.823)" fill="#ba5e5b"/>
    <path id="Path_13283" data-name="Path 13283" d="M188.261,364.945c.1-1.271.147-2.541.193-3.812-.055-1.271-.124-2.536-.234-3.807s-.248-2.537-.46-3.8a16.312,16.312,0,0,0-1.053-3.683c-.919-2.329-1.664-4.765-2.413-7.177l-1.089-3.632c-.46-1.188-.883-2.38-1.305-3.577.184,1.261.46,2.5.726,3.747l1.089,3.641c.754,2.426,1.489,4.843,2.432,7.227a15.49,15.49,0,0,1,1.016,3.582c.221,1.238.363,2.49.46,3.743s.179,2.518.23,3.779Z" transform="translate(-62.392 -116.574)" fill="#ffa6a4"/>
    <path id="Path_13284" data-name="Path 13284" d="M181.19,342.356a2.958,2.958,0,0,0,.768.764,4.351,4.351,0,0,0,.46.249,1.838,1.838,0,0,1,.46.3l.06.051.051-.078c.12-.184.267-.354.382-.543s.23-.378.331-.571a4.522,4.522,0,0,0,.409-1.271h-.037a4.352,4.352,0,0,0-.758,1.091c-.1.2-.175.405-.257.608s-.129.428-.2.635l.11-.028a1.837,1.837,0,0,1-.423-.331,5.072,5.072,0,0,0-.377-.391,2.973,2.973,0,0,0-.956-.506Z" transform="translate(-62.008 -119.704)" fill="#ffa6a4"/>
    <path id="Path_13285" data-name="Path 13285" d="M181.86,351.662c.216.18.46.373.676.539a5.705,5.705,0,0,0,.731.46c.262.124.538.226.791.364a5.3,5.3,0,0,1,.7.5l.083.064.078-.106a12.709,12.709,0,0,0,.919-1.436,8.56,8.56,0,0,0,.667-1.579h-.032a8.9,8.9,0,0,0-1.007,1.381,12.782,12.782,0,0,0-.749,1.533l.161-.041a5.1,5.1,0,0,1-.763-.419c-.234-.161-.46-.364-.68-.539a5.061,5.061,0,0,0-.745-.46,3.289,3.289,0,0,0-.827-.3Z" transform="translate(-62.37 -124.674)" fill="#ffa6a4"/>
    <path id="Path_13286" data-name="Path 13286" d="M185.21,365.16a3.6,3.6,0,0,0,.777.58,2.973,2.973,0,0,0,.887.35,2.3,2.3,0,0,1,.855.414c.253.193.506.405.758.571l.193.129.142-.216a6.161,6.161,0,0,0,.552-.994,5.4,5.4,0,0,0,.354-1.1l-.046-.023a5.35,5.35,0,0,0-.735.888,5.986,5.986,0,0,0-.542,1l.336-.088a5.788,5.788,0,0,0-.919-.359,2.594,2.594,0,0,1-.837-.46,2.725,2.725,0,0,0-.823-.488,3.363,3.363,0,0,0-.947-.239Z" transform="translate(-64.18 -132.445)" fill="#ffa6a4"/>
    <path id="Path_13287" data-name="Path 13287" d="M195.762,350.517c.993-.166,4.707-1.353,4.445-2.325-1.112-4.166-2.225-8.894,1.627-10.933,1.839-.98,4.183-1.478,5.24-3.291s.285-4.249-.689-6.178-2.151-4-1.733-6.118c.437-2.223,2.537-3.862,2.873-6.1.46-3.061-2.51-5.524-5.359-6.721a5.034,5.034,0,0,0-3.052-.506,3.714,3.714,0,0,0-1.839,1.206c-2,2.242-1.921,5.621-1.466,8.595s1.158,6.109.041,8.9c-.8,1.984-2.5,3.848-2.041,5.934.184.838.7,1.565.919,2.4.538,2.242-1.324,4.263-2.179,6.4a7.871,7.871,0,0,0,1.742,8.24,1.731,1.731,0,0,0,1.512.5Z" transform="translate(-67.879 -101.897)" fill="#e67471"/>
    <path id="Path_13288" data-name="Path 13288" d="M199.352,356.233c.23-1.653.46-3.3.754-4.926.069-.41.156-.815.221-1.225s.1-.819.165-1.225c.124-.819.262-1.63.414-2.44a32.407,32.407,0,0,1,1.246-4.755,9.722,9.722,0,0,1,1.039-2.154,2.968,2.968,0,0,1,.749-.8,3.919,3.919,0,0,0,1-.921,4.12,4.12,0,0,0,.722-2.587,12.445,12.445,0,0,0-.372-2.541c-.382-1.634-.86-3.222-1.126-4.824a11.065,11.065,0,0,1,.1-4.778c.129-.378.234-.76.354-1.142a8.654,8.654,0,0,1,.46-1.109,11.51,11.51,0,0,1,1.379-2.039,9.374,9.374,0,0,0-1.77,1.8,8.485,8.485,0,0,0-.671,1.068,4.465,4.465,0,0,0-.46,1.206,11.751,11.751,0,0,0-.115,5.105c.276,1.671.763,3.273,1.135,4.87a11.985,11.985,0,0,1,.354,2.385,3.4,3.4,0,0,1-.575,2.122,3.192,3.192,0,0,1-.814.755,3.681,3.681,0,0,0-.956.994,10.692,10.692,0,0,0-1.126,2.3,33.074,33.074,0,0,0-1.273,4.875q-.234,1.229-.423,2.467c-.055.414-.133.824-.184,1.238s-.06.833-.083,1.252C199.384,352.9,199.325,354.566,199.352,356.233Z" transform="translate(-71.819 -107.567)" fill="#ffa6a4"/>
    <path id="Path_13289" data-name="Path 13289" d="M209.234,329.463a3.2,3.2,0,0,0-1.328,1.059,4.182,4.182,0,0,1-.5.69,6.223,6.223,0,0,1-.648.552h.294c-.1-.216-.221-.414-.336-.621a5.522,5.522,0,0,0-.368-.589c-.129-.193-.276-.378-.414-.562s-.3-.359-.427-.552h-.051a2.038,2.038,0,0,0,.147.732,4.635,4.635,0,0,0,.3.649,4.571,4.571,0,0,0,.386.6,5.746,5.746,0,0,0,.46.552l.184.193.11-.175a4.567,4.567,0,0,1,.46-.7,3.343,3.343,0,0,1,.653-.534,3.127,3.127,0,0,0,.593-.589,5.183,5.183,0,0,0,.5-.69Z" transform="translate(-75.123 -113.325)" fill="#ffa6a4"/>
    <path id="Path_13290" data-name="Path 13290" d="M205.84,342.612a3.948,3.948,0,0,0,.46.783,5.784,5.784,0,0,0,.57.686c.211.2.46.378.689.566a3.818,3.818,0,0,1,.6.645l.06.074.078-.064a6.9,6.9,0,0,0,.777-.714c.221-.253.46-.5.666-.764s.409-.539.593-.819.359-.575.552-.852l-.028-.041a3.549,3.549,0,0,0-.837.626,8.284,8.284,0,0,0-.7.75c-.216.262-.4.548-.6.819s-.363.594-.547.829h.138a3.633,3.633,0,0,1-.611-.635c-.17-.239-.326-.5-.506-.727a6.623,6.623,0,0,0-.611-.635,5.931,5.931,0,0,0-.689-.566Z" transform="translate(-75.328 -120.162)" fill="#ffa6a4"/>
    <path id="Path_13291" data-name="Path 13291" d="M212.216,352.712c-.313.368-.634.7-.97,1.031s-.689.608-1.034.921a3.331,3.331,0,0,1-1.209.7,4.469,4.469,0,0,1-1.379.156l.207.147a9.105,9.105,0,0,0-.331-1.128,6.253,6.253,0,0,0-.46-1.077,5.225,5.225,0,0,0-.685-.971,2.634,2.634,0,0,0-.965-.7v.046a3.683,3.683,0,0,1,.694.875,10.549,10.549,0,0,1,.519.985l.46,1.022c.152.345.285.7.418,1.05l.064.166h.142a8.07,8.07,0,0,0,1.416-.405,12.9,12.9,0,0,0,1.356-.557,3.628,3.628,0,0,0,1.14-.921,3.712,3.712,0,0,0,.712-1.284Z" transform="translate(-75.085 -125.392)" fill="#ffa6a4"/>
    <path id="Path_13292" data-name="Path 13292" d="M200.53,361.869a2.821,2.821,0,0,0-.193,1.156,3.836,3.836,0,0,0,.216,1.16,4.144,4.144,0,0,0,.6,1.013l.689.921.051.064.083-.06a11.417,11.417,0,0,1,1.2-.681c.409-.216.827-.405,1.25-.585s.837-.364,1.269-.525.873-.318,1.319-.488V363.8a6.578,6.578,0,0,0-2.795.566,9.018,9.018,0,0,0-1.255.7,8.466,8.466,0,0,0-1.108.921h.129a3.346,3.346,0,0,1-.639-.921,7.981,7.981,0,0,1-.363-1.04,8.377,8.377,0,0,1-.4-2.164Z" transform="translate(-72.353 -130.821)" fill="#ffa6a4"/>
    <path id="Path_13293" data-name="Path 13293" d="M181.168,402.564h10.6a2.115,2.115,0,0,0,1.967-2l1.678-13.055a2.263,2.263,0,0,0-1.967-2.716H179.49a2.263,2.263,0,0,0-1.967,2.716l1.678,13.055A2.129,2.129,0,0,0,181.168,402.564Z" transform="translate(-60.014 -143.195)" fill="#504984"/>
    <path id="Path_13294" data-name="Path 13294" d="M179.49,384.79h7.134a2.263,2.263,0,0,0-1.967,2.716l1.678,13.055a2.129,2.129,0,0,0,1.967,2h-7.134a2.115,2.115,0,0,1-1.967-2l-1.678-13.055A2.263,2.263,0,0,1,179.49,384.79Z" transform="translate(-60.014 -143.195)" fill="#372d5b"/>
    <path id="Path_13295" data-name="Path 13295" d="M338.948,415.62H294.629a.8.8,0,0,0-.809.806v1.97a.8.8,0,0,0,.809.806h44.319Z" transform="translate(-122.869 -159.833)" fill="#282142"/>
    <path id="Path_13296" data-name="Path 13296" d="M402.6,418.1v.8a.313.313,0,0,1-.312.308H391.12a.626.626,0,0,1-.63-.626v-2.325a.625.625,0,0,1,.7-.626l11.128,2.159a.313.313,0,0,1,.28.308Z" transform="translate(-175.105 -159.838)" fill="#504984"/>
    <path id="Path_13297" data-name="Path 13297" d="M218.466,251.72h82.841a3.971,3.971,0,0,1,3.737,2.632l18.119,50.39c.758,2.6-1.14,4.544-4.192,4.875-.46.046-2.694-.953-6.187-2.6H238.727a3.971,3.971,0,0,1-3.741-2.629l-16.368-45.519-4.344-2.274S213.249,251.72,218.466,251.72Z" transform="translate(-79.841 -71.383)" fill="#504984"/>
    <path id="Path_13298" data-name="Path 13298" d="M298.689,257.36H215.852a1.7,1.7,0,0,0-1.6,2.279l18.119,50.389a3.972,3.972,0,0,0,3.737,2.633H318.95a1.7,1.7,0,0,0,1.6-2.279L302.43,259.993A3.976,3.976,0,0,0,298.689,257.36Z" transform="translate(-79.82 -74.426)" fill="#372d5b"/>
    <path id="Path_13299" data-name="Path 13299" d="M336.684,361.473l-3.677-13.663L319.07,361.473Z" transform="translate(-136.513 -123.239)" fill="#282142"/>
    <path id="Path_13300" data-name="Path 13300" d="M313.463,292.1a3.394,3.394,0,0,0,3.562,3.163,2.692,2.692,0,0,0,2.758-3.163,3.8,3.8,0,0,0-3.562-3.158,2.7,2.7,0,0,0-2.758,3.158Z" transform="translate(-133.461 -91.466)" fill="#504984"/>
    <path id="Path_13301" data-name="Path 13301" d="M396.956,355.795l-1.066-2.965h1.338l1.066,2.965Z" transform="translate(-178.023 -125.948)" fill="#282142"/>
    <path id="Path_13302" data-name="Path 13302" d="M390.816,355.795l-1.066-2.965h1.342l1.066,2.965Z" transform="translate(-174.705 -125.948)" fill="#282142"/>
    <path id="Path_13303" data-name="Path 13303" d="M384.686,355.795l-1.066-2.965h1.338l1.066,2.965Z" transform="translate(-171.393 -125.948)" fill="#282142"/>
    <path id="Path_13304" data-name="Path 13304" d="M378.552,355.795l-1.062-2.965h1.338l1.066,2.965Z" transform="translate(-168.08 -125.948)" fill="#282142"/>
    <path id="Path_13305" data-name="Path 13305" d="M291.416,355.795l-1.066-2.965h1.338l1.066,2.965Z" transform="translate(-120.993 -125.948)" fill="#282142"/>
    <path id="Path_13306" data-name="Path 13306" d="M285.282,355.795l-1.062-2.965h1.338l1.066,2.965Z" transform="translate(-117.681 -125.948)" fill="#282142"/>
    <path id="Path_13307" data-name="Path 13307" d="M279.146,355.795l-1.066-2.965h1.342l1.062,2.965Z" transform="translate(-114.363 -125.948)" fill="#282142"/>
    <path id="Path_13308" data-name="Path 13308" d="M273.012,355.795l-1.062-2.965h1.338l1.066,2.965Z" transform="translate(-111.051 -125.948)" fill="#282142"/>
    <path id="Path_13309" data-name="Path 13309" d="M295.923,372.512c.818-2.357,10.728-34.392,10.728-34.392h12.728l.841,4.461s-8.531,27.575-9.349,29.922q-.1.271-.179.539h0c-.745,2.3,1.227,2.3,3.447,2.3h22.449v2.035h-37.4C294.7,377.378,295.105,374.865,295.923,372.512Z" transform="translate(-123.726 -118.009)" fill="#372d5b"/>
    <path id="Path_13310" data-name="Path 13310" d="M316.767,338.12s-9.91,32.035-10.733,34.392-1.227,4.866,3.273,4.866H294.36c-4.5,0-4.086-2.513-3.273-4.866S301.8,338.12,301.8,338.12Z" transform="translate(-121.115 -118.009)" fill="#504984"/>
    <path id="Path_13311" data-name="Path 13311" d="M321.214,337.877c-.988-.046-1.972-.069-2.96-.1s-1.972-.041-2.956-.06-1.972-.046-2.96-.046h-3.121l-.051.161c-.414,1.289-.818,2.578-1.2,3.876l-1.181,3.89c-.758,2.6-1.517,5.2-2.211,7.826.919-2.55,1.756-5.128,2.6-7.7l1.227-3.871c.414-1.289.809-2.587,1.2-3.881l-.216.156h2.956c.988,0,1.972-.028,2.96-.041s1.972-.032,2.956-.064S320.225,337.923,321.214,337.877Z" transform="translate(-128.677 -117.766)" fill="#7f74d1"/>
    <path id="Path_13312" data-name="Path 13312" d="M147.56,431.267H366.966a3.928,3.928,0,0,0,3.925-3.931h0a3.928,3.928,0,0,0-3.925-3.936H147.56a3.933,3.933,0,0,0-3.93,3.936h0A3.933,3.933,0,0,0,147.56,431.267Z" transform="translate(-41.712 -164.031)" fill="#f93266"/>
    <path id="Path_13313" data-name="Path 13313" d="M147.56,435.881H366.966a3.928,3.928,0,0,0,3.925-3.931H143.63A3.933,3.933,0,0,0,147.56,435.881Z" transform="translate(-41.712 -168.645)" fill="#6d152c"/>
    <ellipse id="Ellipse_93" data-name="Ellipse 93" cx="11.681" cy="11.666" rx="11.681" ry="11.666" transform="translate(171.093 105.081) rotate(-75.548)" fill="#f93266"/>
    <ellipse id="Ellipse_94" data-name="Ellipse 94" cx="7.22" cy="7.23" rx="7.22" ry="7.23" transform="translate(312.579 119.844) rotate(-13.04)" fill="#f93266"/>
    <ellipse id="Ellipse_95" data-name="Ellipse 95" cx="19.198" cy="19.219" rx="19.198" ry="19.219" transform="translate(209.304 59.565) rotate(-21.91)" fill="#f93266"/>
    <path id="Path_13542" data-name="Path 13542" d="M19.232,0A19.219,19.219,0,1,1,0,19.232,19.183,19.183,0,0,1,19.232,0Z" transform="translate(261.956 79.652) rotate(-45)" fill="#f93266"/>
    <path id="Icon_awesome-euro-sign" data-name="Icon awesome-euro-sign" d="M9.506,11.694a.366.366,0,0,0-.441-.287,6.425,6.425,0,0,1-1.39.167A3.935,3.935,0,0,1,3.959,8.958l3.479,0A.368.368,0,0,0,7.8,8.669l.2-.869a.367.367,0,0,0-.358-.448l-4.108,0a6.621,6.621,0,0,1,0-1.294l4.486,0a.368.368,0,0,0,.359-.289l.2-.912a.367.367,0,0,0-.358-.446l-4.231,0a3.848,3.848,0,0,1,3.6-2.3,5.985,5.985,0,0,1,1.158.126.368.368,0,0,0,.429-.264L9.541.615A.367.367,0,0,0,9.255.158,8.9,8.9,0,0,0,7.643,0,6.549,6.549,0,0,0,1.381,4.414H.369A.368.368,0,0,0,0,4.783v.912a.367.367,0,0,0,.367.367h.66a9.1,9.1,0,0,0-.006,1.294H.368A.368.368,0,0,0,0,7.724v.869a.367.367,0,0,0,.367.367h.922a6.4,6.4,0,0,0,6.348,4.765,7.628,7.628,0,0,0,1.87-.24.368.368,0,0,0,.269-.428l-.269-1.363Z" transform="translate(226.856 65.429) rotate(-22)" fill="#fff"/>
    <path id="Icon_awesome-euro-sign-2" data-name="Icon awesome-euro-sign" d="M3.8,4.678a.147.147,0,0,0-.177-.115,2.57,2.57,0,0,1-.556.067A1.574,1.574,0,0,1,1.584,3.584H2.976a.147.147,0,0,0,.143-.115L3.2,3.121a.147.147,0,0,0-.143-.179H1.411a2.649,2.649,0,0,1,0-.518H3.207a.147.147,0,0,0,.144-.116l.08-.365a.147.147,0,0,0-.143-.178H1.595a1.539,1.539,0,0,1,1.44-.92A2.4,2.4,0,0,1,3.5.9.147.147,0,0,0,3.67.79L3.817.246A.147.147,0,0,0,3.7.063,3.56,3.56,0,0,0,3.058,0,2.62,2.62,0,0,0,.553,1.766h-.4A.147.147,0,0,0,0,1.913v.365a.147.147,0,0,0,.147.147H.411a3.642,3.642,0,0,0,0,.518H.147A.147.147,0,0,0,0,3.09v.348a.147.147,0,0,0,.147.147H.515a2.562,2.562,0,0,0,2.54,1.906,3.052,3.052,0,0,0,.748-.1.147.147,0,0,0,.108-.171L3.8,4.678Z" transform="translate(318.402 123.446) rotate(-22)" fill="#fff"/>
    <path id="Icon_awesome-dollar-sign" data-name="Icon awesome-dollar-sign" d="M7.108,7.944,3.438,6.868A1,1,0,0,1,3.72,4.9H5.973a2.073,2.073,0,0,1,1.162.358A.529.529,0,0,0,7.8,5.191L8.98,4.034A.552.552,0,0,0,8.919,3.2a4.8,4.8,0,0,0-2.94-1.021V.545A.546.546,0,0,0,5.435,0H4.348A.546.546,0,0,0,3.8.545V2.178H3.72a3.726,3.726,0,0,0-3.7,4.07A3.9,3.9,0,0,0,2.864,9.536l3.483,1.021a1,1,0,0,1-.282,1.967H3.813a2.073,2.073,0,0,1-1.162-.358.529.529,0,0,0-.663.068L.805,13.392a.552.552,0,0,0,.061.834,4.8,4.8,0,0,0,2.94,1.021v1.634a.546.546,0,0,0,.544.545H5.438a.546.546,0,0,0,.544-.544v-1.64a3.838,3.838,0,0,0,3.592-2.474A3.739,3.739,0,0,0,7.108,7.944Z" transform="matrix(0.996, 0.087, -0.087, 0.996, 285.18, 71.07)" fill="#fff"/>
    <path id="Icon_awesome-dollar-sign-2" data-name="Icon awesome-dollar-sign" d="M4.678,5.228,2.263,4.52a.661.661,0,0,1,.185-1.295H3.931a1.364,1.364,0,0,1,.765.235.348.348,0,0,0,.436-.045l.778-.761a.363.363,0,0,0-.04-.549,3.16,3.16,0,0,0-1.935-.672V.359A.359.359,0,0,0,3.577,0H2.861A.359.359,0,0,0,2.5.358V1.433H2.448A2.452,2.452,0,0,0,.01,4.112,2.564,2.564,0,0,0,1.885,6.276l2.292.672a.661.661,0,0,1-.185,1.295H2.509a1.364,1.364,0,0,1-.765-.235.348.348,0,0,0-.436.045L.53,8.813a.363.363,0,0,0,.04.549,3.16,3.16,0,0,0,1.935.672v1.075a.359.359,0,0,0,.358.358h.716a.359.359,0,0,0,.358-.358V10.03A2.526,2.526,0,0,0,6.3,8.4,2.461,2.461,0,0,0,4.678,5.228Z" transform="matrix(0.996, 0.087, -0.087, 0.996, 182.418, 90.722)" fill="#fff"/>
  </g>
</svg>
