<svg width="86" height="86" viewBox="0 0 86 86" fill="none" xmlns="http://www.w3.org/2000/svg">
<path d="M43 86C66.7468 86 86 66.7468 86 43C86 19.2497 66.7468 0 43 0C19.2497 0 0 19.2497 0 43C0 66.7468 19.2497 86 43 86ZM68.4812 28.4256L48.6762 48.378L48.6831 48.3814L42.8492 54.678L28.1034 41.0222L33.9304 34.7256L42.3727 42.5441L62.3868 22.3826L68.4812 28.4256ZM41.6941 18.8247C47.5965 18.8247 53.0088 20.9464 57.2042 24.4632L53.0191 28.6792C49.8999 26.2079 45.9684 24.7203 41.6941 24.7203C31.6133 24.7203 23.4143 32.9227 23.4143 43C23.4143 53.0773 31.6167 61.2797 41.6941 61.2797C51.7714 61.2797 59.9738 53.0773 59.9738 43C59.9738 42.0985 59.8847 41.221 59.7544 40.3573L64.6457 35.4317C65.4272 37.8139 65.8694 40.3573 65.8694 43C65.8694 56.3507 55.0448 67.1753 41.6941 67.1753C28.3433 67.1753 17.5153 56.3507 17.5153 43C17.5188 29.6458 28.3433 18.8247 41.6941 18.8247Z" fill="#1BBA9D"/>
</svg>
