<svg width="162" height="162" viewBox="0 0 162 162" fill="none" xmlns="http://www.w3.org/2000/svg">
<path d="M81 162C125.735 162 162 125.735 162 81C162 36.2649 125.735 0 81 0C36.2649 0 0 36.2649 0 81C0 125.735 36.2649 162 81 162Z" fill="#C2A534"/>
<path d="M118.595 61.3431C113.753 47.2299 103.707 39.2412 88.7466 37.7403C81.9683 37.0625 75.1417 37.6435 69.6222 37.4498C62.263 37.4498 56.211 37.5225 50.1348 37.4014C48.416 37.3772 48.0771 37.9098 48.1255 39.4833C48.2466 42.6546 48.1739 45.8258 48.1739 48.9971C48.1739 55.8479 48.1255 62.6988 48.1981 69.5496H48.2224V73.5198H40.6695C40.2579 73.6408 40.0643 73.9555 40.0643 74.6575C40.1127 77.9982 40.1127 81.339 40.0643 84.7039C40.0643 85.3333 40.2095 85.6722 40.5968 85.7932H48.2224V123.8C48.3434 124.308 48.6581 124.599 49.578 124.574C61.6578 124.502 73.7376 124.671 85.8174 124.478C101.746 124.236 113.705 115.496 118.692 100.391C123.001 87.4394 123.049 74.2702 118.595 61.3431ZM105.595 92.9346C103.513 103.586 96.5173 110.098 85.6237 111.599C78.5308 112.567 71.3652 111.938 64.2238 112.107C63.2071 112.132 63.1829 111.526 63.2071 110.8C63.2313 106.83 63.2071 102.86 63.2071 98.8898C63.2071 95.8638 63.1587 89.7875 63.1587 89.7875V85.8174H85.8416C86.4952 85.6722 86.7615 85.2606 86.7131 84.2197C86.592 81.1695 86.6163 78.0951 86.7131 75.0449C86.7615 73.7618 86.3742 73.4229 85.1154 73.4229C79.1118 73.4713 73.1324 73.4229 67.1288 73.4713C66.9351 73.4713 66.7657 73.4713 66.572 73.4713C66.0637 73.4713 65.5553 73.4714 65.0469 73.4956C64.8533 73.4956 64.6838 73.4956 64.5143 73.4713H63.1829V71.6073C63.1829 70.9053 63.2071 70.2033 63.2071 69.5012C63.2797 63.5703 63.2555 57.6393 63.1829 51.7084C63.1587 50.3527 63.4492 49.8201 64.9259 49.8685C71.4863 50.0864 78.0708 49.4812 84.6312 50.3043C97.2436 51.902 104.288 58.8981 106.055 71.5831C107.048 78.7487 106.999 85.8658 105.595 92.9346Z" fill="#FEFEFE"/>
</svg>
