<svg width="80" height="24" viewBox="0 0 80 24" fill="none" xmlns="http://www.w3.org/2000/svg">
<path d="M0.752 23V0.439999H15.024V2.872H3.728V10.424H14.288V12.856H3.728V23H0.752ZM17.5138 11.704C17.5138 9.336 17.9298 7.288 18.7618 5.56C19.5938 3.832 20.7884 2.49867 22.3458 1.56C23.9244 0.621332 25.8018 0.151999 27.9778 0.151999C30.1324 0.151999 31.9884 0.621332 33.5458 1.56C35.1244 2.49867 36.3404 3.832 37.1938 5.56C38.0471 7.288 38.4738 9.32533 38.4738 11.672C38.4738 14.04 38.0471 16.0987 37.1938 17.848C36.3404 19.576 35.1244 20.92 33.5458 21.88C31.9884 22.8187 30.1324 23.288 27.9778 23.288C25.8018 23.288 23.9351 22.8187 22.3778 21.88C20.8204 20.92 19.6151 19.576 18.7618 17.848C17.9298 16.0987 17.5138 14.0507 17.5138 11.704ZM20.6498 11.704C20.6498 14.52 21.2684 16.7173 22.5058 18.296C23.7431 19.8747 25.5671 20.664 27.9778 20.664C30.3031 20.664 32.1058 19.8853 33.3858 18.328C34.6871 16.7493 35.3378 14.5413 35.3378 11.704C35.3378 8.86667 34.6978 6.66933 33.4178 5.112C32.1378 3.55467 30.3244 2.776 27.9778 2.776C25.5671 2.776 23.7431 3.55467 22.5058 5.112C21.2684 6.66933 20.6498 8.86667 20.6498 11.704ZM47.1913 23V2.968H39.3833V0.439999H58.0393V2.968H50.1993V23H47.1913ZM58.9825 11.704C58.9825 9.336 59.3985 7.288 60.2305 5.56C61.0625 3.832 62.2572 2.49867 63.8145 1.56C65.3932 0.621332 67.2705 0.151999 69.4465 0.151999C71.6012 0.151999 73.4572 0.621332 75.0145 1.56C76.5932 2.49867 77.8092 3.832 78.6625 5.56C79.5158 7.288 79.9425 9.32533 79.9425 11.672C79.9425 14.04 79.5158 16.0987 78.6625 17.848C77.8092 19.576 76.5932 20.92 75.0145 21.88C73.4572 22.8187 71.6012 23.288 69.4465 23.288C67.2705 23.288 65.4038 22.8187 63.8465 21.88C62.2892 20.92 61.0838 19.576 60.2305 17.848C59.3985 16.0987 58.9825 14.0507 58.9825 11.704ZM62.1185 11.704C62.1185 14.52 62.7372 16.7173 63.9745 18.296C65.2118 19.8747 67.0358 20.664 69.4465 20.664C71.7718 20.664 73.5745 19.8853 74.8545 18.328C76.1558 16.7493 76.8065 14.5413 76.8065 11.704C76.8065 8.86667 76.1665 6.66933 74.8865 5.112C73.6065 3.55467 71.7932 2.776 69.4465 2.776C67.0358 2.776 65.2118 3.55467 63.9745 5.112C62.7372 6.66933 62.1185 8.86667 62.1185 11.704Z" fill="white"/>
</svg>
