<svg width="50" height="59" viewBox="0 0 50 59" fill="none" xmlns="http://www.w3.org/2000/svg">
<path d="M49.9006 5.41654C49.9006 15.0651 50.186 24.3265 49.7897 33.5605C49.5625 38.8653 46.7747 43.4342 43.1694 47.3771C38.6109 52.3634 33.099 56.0235 26.8556 58.588C25.9079 58.9779 24.5417 59.1756 23.666 58.7967C15.0339 55.057 7.29404 50.0844 2.89622 41.4738C1.40811 38.5605 0.338443 35.1393 0.202656 31.9048C-0.163136 23.1816 0.0779528 14.4336 0.0779528 5.47145C5.07989 4.22488 10.0181 3.26936 14.7706 1.74272C21.5128 -0.423679 28.0389 -0.69551 34.8421 1.63838C39.6639 3.29407 44.7628 4.15898 49.9006 5.41654ZM25.1902 8.50002C24.3339 14.7054 24.672 47.3854 25.6086 49.5435C30.8572 46.9955 35.7039 43.9147 38.7189 38.8461C40.0823 36.5506 41.1271 33.7747 41.3127 31.147C41.7062 25.5731 41.4846 19.9525 41.3931 14.3512C41.382 13.6099 40.8028 12.3743 40.2486 12.2233C35.3298 10.8888 30.3584 9.74933 25.1902 8.50002Z" fill="white"/>
</svg>
