<svg width="90" height="141" viewBox="0 0 90 141" fill="none" xmlns="http://www.w3.org/2000/svg">
<path d="M0.0899019 70.3517C0.0926799 50.642 0.0787899 30.9322 0.0982359 11.2225C0.10657 3.83311 3.94299 0.00842751 11.3214 0.00566201C33.8009 -0.00263448 56.2805 -0.00263448 78.7601 0.011193C85.9107 0.016724 89.9138 3.95203 89.9166 11.0262C89.9332 50.6503 89.8527 90.2743 89.9999 129.898C90.0249 136.754 84.8384 141.052 78.8101 140.991C56.3333 140.764 33.8509 140.747 11.3714 140.999C5.02363 141.071 -0.0823342 136.632 0.00100588 129.788C0.24547 109.979 0.0899019 90.1637 0.0899019 70.3517ZM11.827 22.3869C11.827 52.7631 11.827 82.7743 11.827 112.904C34.0676 112.904 56.0639 112.904 78.2406 112.904C78.2406 82.6471 78.2406 52.6331 78.2406 22.3869C56.0805 22.3869 34.0815 22.3869 11.827 22.3869ZM45.0741 123.825C42.8072 123.825 40.5432 123.795 38.2763 123.836C36.7178 123.864 35.2983 124.265 35.3261 126.193C35.3539 127.957 36.7206 128.347 38.1346 128.364C42.6655 128.413 47.1965 128.416 51.7274 128.375C53.2692 128.361 54.7526 127.924 54.686 126.016C54.6193 124.102 53.0719 123.859 51.5579 123.831C49.3994 123.792 47.2354 123.82 45.0741 123.825ZM44.7574 13.6368C47.127 13.6368 49.4967 13.6368 51.8635 13.6368C53.3164 13.6368 54.6498 13.3603 54.6971 11.571C54.7443 9.85914 53.5025 9.2286 52.0469 9.20924C47.3104 9.14564 42.5711 9.14287 37.8346 9.21201C36.3512 9.23413 35.1955 9.95316 35.3288 11.6733C35.4511 13.233 36.5762 13.6396 37.9568 13.6368C40.2237 13.6313 42.4905 13.6368 44.7574 13.6368Z" fill="#EAE4F1"/>
</svg>
