<svg width="217" height="24" viewBox="0 0 217 24" fill="none" xmlns="http://www.w3.org/2000/svg">
<g clip-path="url(#clip0_1223_32775)">
<path d="M19.34 9.646C20.81 11.607 16.505 15.4 17.472 13.834H8.30205C7.31005 12.536 6.62805 11.118 6.30005 9.646H19.34Z" fill="url(#paint0_linear_1223_32775)"/>
<path d="M16.682 20.95C15.379 21.9893 13.9702 22.8886 12.479 23.633L11.749 24L11.015 23.634C4.116 20.172 0 14.208 0 7.674V0H4.208V7.673C4.208 8.163 4.24 8.651 4.307 9.136C4.837 13.106 7.517 16.769 11.733 19.236C11.7372 19.2397 11.7419 19.2427 11.747 19.245L11.758 19.238L11.776 19.227C13.3001 20.0794 14.9597 20.6626 16.682 20.951V20.95Z" fill="url(#paint1_linear_1223_32775)"/>
<path d="M23.368 9.64602C23.1731 11.1625 22.757 12.6422 22.133 14.038C20.98 16.63 19.126 18.989 16.684 20.952C14.9624 20.6635 13.3035 20.0803 11.78 19.228C12.33 18.903 12.864 18.551 13.379 18.173C13.43 18.14 13.479 18.103 13.527 18.065C16.3775 16.0124 18.431 13.0379 19.34 9.64502H23.368V9.64602Z" fill="url(#paint2_linear_1223_32775)"/>
<path d="M23.498 0.000976562H4.20801V4.20698H23.498V0.000976562Z" fill="url(#paint3_linear_1223_32775)"/>
<path d="M23.4991 4.20801V7.67301C23.4991 7.81601 23.4941 7.96001 23.4891 8.10301H19.2791C19.2841 7.96001 19.2861 7.81601 19.2861 7.67301V4.20801H23.4991Z" fill="url(#paint4_linear_1223_32775)"/>
<path d="M67.306 11.28C67.306 12.705 67.146 13.87 66.824 14.772C66.3901 16.0682 65.5356 17.1821 64.396 17.937C63.2418 18.6636 61.8984 19.0324 60.535 18.997C58.115 18.997 56.26 18.175 54.967 16.529C53.9796 15.2519 53.4616 13.6739 53.5 12.06C53.5 10.142 54.073 8.531 55.218 7.225C56.518 5.742 58.332 5 60.662 5C62.218 5 63.536 5.4 64.618 6.198C65.39 6.762 66.049 7.598 66.596 8.705L63.358 10.047C63.142 9.52 62.812 9.047 62.39 8.665C61.8587 8.229 61.1892 7.99707 60.502 8.011C59.012 8.011 57.972 8.778 57.386 10.312C57.167 10.8704 57.055 11.4651 57.056 12.065C57.0382 12.6402 57.1343 13.2132 57.3389 13.7511C57.5435 14.289 57.8525 14.7811 58.248 15.199C58.836 15.823 59.621 16.134 60.601 16.132C61.471 16.132 62.161 15.879 62.671 15.373C63.044 14.963 63.275 14.445 63.331 13.894H60.512V11.279H67.306V11.28ZM84.925 13.016C84.933 13.696 84.865 14.374 84.722 15.039C84.5004 15.959 84.0062 16.7906 83.304 17.425C82.235 18.435 80.806 18.941 79.017 18.941C77.197 18.941 75.776 18.426 74.753 17.397C74.2009 16.8348 73.8165 16.1297 73.643 15.361C73.4827 14.5934 73.4112 13.8099 73.43 13.026V5.42H76.856V12.545C76.856 13.119 76.866 13.545 76.886 13.826C76.948 14.721 77.353 15.345 78.101 15.698C78.421 15.848 78.771 15.923 79.125 15.918C79.96 15.918 80.59 15.627 81.015 15.042C81.331 14.612 81.488 13.78 81.488 12.545V5.421H84.915L84.925 13.016ZM102.968 18.593H99.309L98.461 16.296H93.732L92.825 18.593H89.207L94.267 5.421H98.008L102.968 18.593ZM97.535 13.692L96.118 9.492L94.679 13.692H97.535ZM119.391 18.593H115.141L111.869 13.533V18.593H108.434V5.421H113.763C115.32 5.421 116.471 5.887 117.217 6.819C117.821 7.57022 118.142 8.51001 118.124 9.474C118.124 10.639 117.777 11.568 117.082 12.263C116.572 12.741 115.936 13.063 115.248 13.19L119.391 18.593ZM114.574 9.663C114.579 9.44045 114.536 9.21949 114.447 9.01517C114.359 8.81085 114.227 8.62797 114.062 8.479C113.739 8.176 113.219 8.026 112.502 8.027H111.863V11.307H112.502C113.227 11.307 113.745 11.156 114.062 10.854C114.227 10.7029 114.357 10.5186 114.445 10.3133C114.533 10.108 114.576 9.88632 114.572 9.663H114.574ZM136.332 12.002C136.312 13.365 135.88 14.6901 135.093 15.8028C134.305 16.9154 133.199 17.7634 131.92 18.235C131.25 18.47 130.545 18.5904 129.835 18.591H124.776V5.42H129.835C131.059 5.4152 132.257 5.77442 133.276 6.452C134.299 7.10931 135.122 8.03451 135.656 9.127C136.099 10.0206 136.33 11.0039 136.332 12.001V12.002ZM132.78 12.002C132.797 11.1456 132.528 10.308 132.015 9.622C131.34 8.725 130.329 8.277 128.979 8.278H128.196V15.738H128.979C130.329 15.738 131.34 15.289 132.015 14.392C132.526 13.702 132.794 12.861 132.776 12.002H132.78ZM153.4 18.593H149.743L148.893 16.296H144.164L143.257 18.593H139.638L144.698 5.421H148.44L153.4 18.593ZM147.966 13.692L146.55 9.492L145.121 13.692H147.966ZM169.823 18.593H165.561L162.29 13.533V18.593H158.868V5.421H164.195C165.751 5.421 166.903 5.887 167.649 6.819C168.253 7.571 168.574 8.51 168.556 9.474C168.556 10.639 168.208 11.568 167.513 12.263C167.004 12.7416 166.367 13.0634 165.68 13.19L169.823 18.593ZM165.008 9.663C165.011 9.44045 164.967 9.21974 164.879 9.01558C164.79 8.81142 164.659 8.62849 164.494 8.479C164.17 8.177 163.652 8.027 162.936 8.027H162.296V11.307H162.93C163.653 11.307 164.172 11.157 164.488 10.854C164.653 10.703 164.785 10.5189 164.874 10.3137C164.963 10.1085 165.008 9.88677 165.006 9.663H165.008ZM178.64 18.593H175.212V5.421H178.638L178.64 18.593ZM197.878 18.593H194.219L193.369 16.296H188.641L187.735 18.593H184.114L189.174 5.421H192.907L197.878 18.593ZM192.446 13.692L191.029 9.492L189.59 13.692H192.446ZM216.498 18.593H213.072L206.77 10.527V18.593H203.344V5.421H206.77L213.072 13.479V5.421H216.498V18.593Z" fill="url(#paint5_linear_1223_32775)"/>
</g>
<defs>
<linearGradient id="paint0_linear_1223_32775" x1="19.649" y1="9.646" x2="10.194" y2="18.406" gradientUnits="userSpaceOnUse">
<stop stop-color="#555559"/>
<stop offset="1" stop-color="#797F80"/>
</linearGradient>
<linearGradient id="paint1_linear_1223_32775" x1="16.682" y1="6.24269e-07" x2="-4.265" y2="4.607" gradientUnits="userSpaceOnUse">
<stop stop-color="#555559"/>
<stop offset="1" stop-color="#797F80"/>
</linearGradient>
<linearGradient id="paint2_linear_1223_32775" x1="23.368" y1="9.64602" x2="9.56503" y2="14.121" gradientUnits="userSpaceOnUse">
<stop stop-color="#555559"/>
<stop offset="1" stop-color="#797F80"/>
</linearGradient>
<linearGradient id="paint3_linear_1223_32775" x1="23.498" y1="0.000976562" x2="15.322" y2="11.866" gradientUnits="userSpaceOnUse">
<stop stop-color="#555559"/>
<stop offset="1" stop-color="#797F80"/>
</linearGradient>
<linearGradient id="paint4_linear_1223_32775" x1="23.4991" y1="4.20801" x2="18.5281" y2="5.91101" gradientUnits="userSpaceOnUse">
<stop stop-color="#555559"/>
<stop offset="1" stop-color="#797F80"/>
</linearGradient>
<linearGradient id="paint5_linear_1223_32775" x1="216.498" y1="5" x2="201.772" y2="59.249" gradientUnits="userSpaceOnUse">
<stop stop-color="#555559"/>
<stop offset="1" stop-color="#797F80"/>
</linearGradient>
<clipPath id="clip0_1223_32775">
<rect width="217" height="24" fill="white"/>
</clipPath>
</defs>
</svg>
