<svg width="38" height="38" viewBox="0 0 38 38" fill="none" xmlns="http://www.w3.org/2000/svg">
<path d="M19.0076 0C8.51176 0 0 8.51176 0 18.9924C0 29.4882 8.51176 37.9849 19.0076 37.9849C29.5034 37.9849 38 29.4731 38 18.9924C38 8.51176 29.4882 0 19.0076 0ZM9.60223 29.0339C9.60223 24.4448 12.8282 20.6281 17.1144 19.7346C14.9789 18.9621 13.4492 16.9175 13.4492 14.5094C13.4492 11.4348 15.933 8.95098 19.0076 8.95098C22.0821 8.95098 24.566 11.4348 24.566 14.5094C24.566 16.9175 23.0363 18.9621 20.9008 19.7346C21.9609 19.9466 22.9605 20.3555 23.8541 20.9008C25.9593 22.1881 27.5345 24.2782 28.1251 26.7469C28.3069 27.4739 28.3978 28.2463 28.3978 29.0339H9.60223Z" fill="white" fill-opacity="0.51"/>
</svg>
