<svg xmlns="http://www.w3.org/2000/svg" xmlns:xlink="http://www.w3.org/1999/xlink" width="142" height="150" viewBox="0 0 142 150">
  <defs>
    <filter id="Linux" x="0" y="0" width="142" height="150" filterUnits="userSpaceOnUse">
      <feOffset dy="10" input="SourceAlpha"/>
      <feGaussianBlur stdDeviation="15" result="blur"/>
      <feFlood flood-color="#27ebc1" flood-opacity="0.4"/>
      <feComposite operator="in" in2="blur"/>
      <feComposite in="SourceGraphic"/>
    </filter>
  </defs>
  <g transform="matrix(1, 0, 0, 1, 0, 0)" filter="url(#Linux)">
    <path id="Linux-2" data-name="Linux" d="M27.3,15.965a.606.606,0,0,0-.53.352q-.154.318-.29.318-.171.033-.171-.167,0-.4.649-.5H27.3Zm2.973.469q-.137.033-.393-.218a.571.571,0,0,0-.6-.151q.82-.368,1.093.067a.2.2,0,0,1-.1.3Zm-11.993,14.3a.167.167,0,0,0-.205.1,2.688,2.688,0,0,0-.154.419,1.949,1.949,0,0,1-.188.452,3.325,3.325,0,0,1-.342.435q-.239.335-.034.4.137.033.427-.234a1.681,1.681,0,0,0,.427-.6q.034-.1.068-.234a1.026,1.026,0,0,1,.068-.2.591.591,0,0,0,.051-.151.705.705,0,0,0,.017-.134v-.1l-.034-.084-.1-.067ZM47.492,42.748q0-.6-1.879-1.406.137-.5.256-.921a5.361,5.361,0,0,0,.171-.87q.051-.452.1-.72a3.091,3.091,0,0,0,.017-.753q-.034-.485-.034-.653a4.781,4.781,0,0,0-.12-.737q-.12-.569-.137-.686t-.171-.837q-.154-.72-.188-.887A9.843,9.843,0,0,0,43.9,30.83a7.984,7.984,0,0,0-2.46-2.511A9.7,9.7,0,0,1,43.392,31.1q2.973,5.424,1.845,9.307a1.738,1.738,0,0,1-1.708,1.406q-1.059.134-1.315-.619a10.361,10.361,0,0,1-.273-2.8,15.783,15.783,0,0,0-.393-3.582,21.73,21.73,0,0,0-.666-2.31,9.2,9.2,0,0,0-.666-1.523q-.308-.519-.53-.82a3.372,3.372,0,0,0-.444-.5q-.222-.2-.256-.234a21.243,21.243,0,0,0-1.059-3.448A7.905,7.905,0,0,0,36.917,24.1a9.293,9.293,0,0,1-.8-1.1,3.821,3.821,0,0,1-.512-1.339,3.766,3.766,0,0,1,.2-1.791,2.869,2.869,0,0,0,.154-1.657q-.188-.569-1.52-.837a6.789,6.789,0,0,1-1.52-.6,7.418,7.418,0,0,0-1.213-.536q-.273-.033-.376-.87a3.255,3.255,0,0,1,.273-1.707,1.335,1.335,0,0,1,1.23-.9,1.587,1.587,0,0,1,1.743,1,2.456,2.456,0,0,1,.137,1.942q-.376.636-.068.887t1.025.017q.444-.134.444-1.205V14.157a7.357,7.357,0,0,0-.461-1.674,2.666,2.666,0,0,0-.718-1.021,3.129,3.129,0,0,0-.8-.5,4.888,4.888,0,0,0-.923-.251q-3.656.268-3.041,4.486a1.419,1.419,0,0,1-.034.5,1.574,1.574,0,0,0-1.008-.352A5.184,5.184,0,0,0,28,15.362q-.427.067-.53-.167a6.283,6.283,0,0,0-.547-3.013,1.811,1.811,0,0,0-1.538-1.138,1.477,1.477,0,0,0-1.418.921,5,5,0,0,0-.564,1.992,4.685,4.685,0,0,0,.12,1.239,4.407,4.407,0,0,0,.444,1.256q.291.519.53.452a.922.922,0,0,0,.547-.469q.137-.3-.239-.268-.239,0-.53-.485a2.4,2.4,0,0,1-.325-1.122,1.982,1.982,0,0,1,.308-1.239,1.236,1.236,0,0,1,1.162-.469,1.035,1.035,0,0,1,.922.7,2.822,2.822,0,0,1,.325,1.306,4.939,4.939,0,0,1-.051.737,3.728,3.728,0,0,0-1.059.971,2.826,2.826,0,0,1-.94.787q-.666.385-.7.419a1.894,1.894,0,0,0-.53.9.492.492,0,0,0,.256.6,3.739,3.739,0,0,1,.854.653,5.068,5.068,0,0,1,.547.636,1.345,1.345,0,0,0,.632.435,3.785,3.785,0,0,0,1.213.218,10.542,10.542,0,0,0,3.485-.5q.068-.033.786-.234t1.179-.352a6.747,6.747,0,0,0,1.008-.435,1.706,1.706,0,0,0,.718-.586q.308-.469.683-.268a.465.465,0,0,1,.222.285.471.471,0,0,1-.1.4.933.933,0,0,1-.564.318,20.515,20.515,0,0,0-1.93.72q-1.247.519-1.555.653a10.7,10.7,0,0,1-2.392.77,9.386,9.386,0,0,1-2.7-.067q-.342-.067-.308.067a2.5,2.5,0,0,0,.581.636,3.173,3.173,0,0,0,2.289.737,5.179,5.179,0,0,0,1.23-.234,9.982,9.982,0,0,0,1.23-.469q.581-.268,1.145-.586t1.025-.569a8.024,8.024,0,0,1,.837-.4.942.942,0,0,1,.6-.084.444.444,0,0,1,.29.368.4.4,0,0,1-.034.151.442.442,0,0,1-.137.167,2.42,2.42,0,0,1-.205.151q-.1.067-.29.167t-.308.151q-.119.05-.342.167a2.4,2.4,0,0,1-.325.151A15.434,15.434,0,0,0,30.7,23.966a14.15,14.15,0,0,1-2.272,1.44,1.782,1.782,0,0,1-1.674.033A8.42,8.42,0,0,1,24.6,23q-.752-1.038-.854-.737a1.155,1.155,0,0,0-.034.335,4.408,4.408,0,0,1-.513,1.892q-.513,1.055-1.008,1.858a5.785,5.785,0,0,0-.718,1.942,2.8,2.8,0,0,0,.393,2.109q-.786.2-2.135,3.013a17.055,17.055,0,0,0-1.623,4.721,22.919,22.919,0,0,0-.051,2.31,4.867,4.867,0,0,1-.188,1.975q-.273.8-.991.1a4.578,4.578,0,0,1-1.23-3.147,6.514,6.514,0,0,1,.137-1.875q.137-.636-.034-.6l-.137.167q-1.23,2.176.342,5.558a2.739,2.739,0,0,0,.854.937q.683.536.82.67a35.258,35.258,0,0,0,3.553,3.03q2.87,2.26,3.177,2.561a1.827,1.827,0,0,1,.6,1.272,2.045,2.045,0,0,1-.478,1.44,2.147,2.147,0,0,1-1.555.77,15.339,15.339,0,0,0,.991,1.49,6.067,6.067,0,0,1,.957,1.808,8.91,8.91,0,0,1,.239,2.36q1.572-.8.239-3.08a2.936,2.936,0,0,0-.359-.536q-.222-.268-.325-.4t-.068-.2a.969.969,0,0,1,.444-.318.667.667,0,0,1,.683.084Q27.3,56.241,31.4,55.7q4.544-.5,6.048-2.913.786-1.272,1.162-1,.41.2.342,1.741a13.723,13.723,0,0,1-.786,3.08,2.26,2.26,0,0,0-.205,1.256q.1.485.82.519.1-.636.5-2.578a24.03,24.03,0,0,0,.461-3.013,11.105,11.105,0,0,0-.222-2.461,17.544,17.544,0,0,1-.256-3.248,3.623,3.623,0,0,1,.786-2.36,2.182,2.182,0,0,1,1.743-.6,1.891,1.891,0,0,1,1.179-1.774,4.326,4.326,0,0,1,2.477-.352,4.188,4.188,0,0,1,2.05.753ZM26.035,15.061a1.722,1.722,0,0,0-.085-1q-.188-.435-.393-.5-.308-.067-.308.234a.316.316,0,0,0,.171.2q.342,0,.239.5-.1.67.273.67a.09.09,0,0,0,.1-.1Zm14.316,6.6a.675.675,0,0,0-.222-.385,1.018,1.018,0,0,0-.444-.167,1.3,1.3,0,0,1-.5-.184,1.423,1.423,0,0,1-.325-.268q-.154-.167-.239-.268t-.188-.218a.7.7,0,0,0-.137-.134q-.034-.017-.137.05-.478.536.239,1.456a2.61,2.61,0,0,0,1.333,1.055.494.494,0,0,0,.5-.268.909.909,0,0,0,.12-.67Zm-6.082-7.131a1.244,1.244,0,0,0-.171-.653,1.263,1.263,0,0,0-.376-.419q-.205-.134-.308-.1-.478.033-.239.234l.137.067q.478.134.615,1.038,0,.1.273-.067Zm1.845-7.8a.288.288,0,0,0-.085-.167,1.3,1.3,0,0,0-.308-.234q-.222-.134-.325-.2a1.409,1.409,0,0,0-.82-.5.427.427,0,0,0-.393.251.718.718,0,0,0-.034.435.746.746,0,0,1-.017.419,1.066,1.066,0,0,1-.205.352,1.645,1.645,0,0,0-.205.3q-.034.084.1.285a.211.211,0,0,0,.273,0q.137-.1.376-.3a1.714,1.714,0,0,1,.512-.3.7.7,0,0,1,.308-.033,1.893,1.893,0,0,0,.512-.067.427.427,0,0,0,.308-.234Zm19.3,44.9a4.442,4.442,0,0,1,1.059.82,1.43,1.43,0,0,1,.41.8A1.875,1.875,0,0,1,56.8,54a1.761,1.761,0,0,1-.53.737,9.862,9.862,0,0,1-.8.653,8.819,8.819,0,0,1-1.025.619q-.632.335-1.076.552t-1.093.519q-.649.3-.923.435a18.061,18.061,0,0,0-2.921,1.875,33.07,33.07,0,0,0-2.58,2.143,3.982,3.982,0,0,1-2.323.653,6.153,6.153,0,0,1-3.041-.485,2.934,2.934,0,0,1-1.008-.787,4.3,4.3,0,0,1-.564-.854,1.512,1.512,0,0,0-.752-.653,4.013,4.013,0,0,0-1.606-.318q-1.5-.033-4.442-.033-.649,0-1.947.05t-1.982.084a7.984,7.984,0,0,0-2.716.5,6.23,6.23,0,0,0-1.828,1,6.594,6.594,0,0,1-1.486.954,3.852,3.852,0,0,1-1.828.385,15.831,15.831,0,0,1-3.793-1.038,35.677,35.677,0,0,0-4.988-1.44q-.649-.134-1.743-.318t-1.708-.3q-.615-.117-1.35-.318A3.774,3.774,0,0,1,5.6,58.132a1.655,1.655,0,0,1-.581-.653,2.992,2.992,0,0,1,.239-2.226,9.836,9.836,0,0,0,.615-1.825,5.091,5.091,0,0,0-.137-1.339q-.171-.8-.342-1.423a4.135,4.135,0,0,1-.154-1.222,1.191,1.191,0,0,1,.359-.9,3.5,3.5,0,0,1,1.947-.469,4.9,4.9,0,0,0,2.05-.4A4.689,4.689,0,0,0,11.035,46.5a2.92,2.92,0,0,0,.41-1.707q.718,2.444-1.093,3.549a4.511,4.511,0,0,1-2.836.5q-1.162-.1-1.469.335-.444.5.171,1.908a5.112,5.112,0,0,0,.273.6q.2.4.29.6a2.843,2.843,0,0,1,.154.569,2.669,2.669,0,0,1,.034.737,4.329,4.329,0,0,1-.581,1.64,2.907,2.907,0,0,0-.478,1.607q.1.569,1.264.87.683.2,2.887.619t3.4.686q.82.2,2.528.737t2.819.77a5.8,5.8,0,0,0,1.9.134,3.739,3.739,0,0,0,2.2-.937,2.457,2.457,0,0,0,.786-1.607,5.972,5.972,0,0,0-.256-1.959,9.3,9.3,0,0,0-.649-1.741q-.342-.653-.683-1.222a71,71,0,0,0-5.774-8.1q-2.323-2.478-3.861-1.339-.376.3-.512-.5a5.5,5.5,0,0,1-.068-1.272,5.157,5.157,0,0,1,.342-1.741,9.475,9.475,0,0,1,.82-1.574,8.624,8.624,0,0,0,.752-1.406q.273-.7.905-2.411t1.008-2.611a18.671,18.671,0,0,1,1.025-2.042,8.24,8.24,0,0,1,1.333-1.808q3.758-4.788,4.237-6.529-.41-3.75-.547-10.379a12.1,12.1,0,0,1,.82-5.072,7.5,7.5,0,0,1,3.622-3.5,7.642,7.642,0,0,1,3.553-.7,13,13,0,0,1,3.622.452,9.037,9.037,0,0,1,3.041,1.389,9.722,9.722,0,0,1,3.126,4.068,10.313,10.313,0,0,1,1.008,4.938,21.2,21.2,0,0,0,1.025,7.165,18.436,18.436,0,0,0,4.544,7.3,18.773,18.773,0,0,1,3.4,5.457,28.556,28.556,0,0,1,2.033,6.395,11.509,11.509,0,0,1,.171,2.829,5.756,5.756,0,0,1-.41,1.858q-.308.67-.683.737a1.622,1.622,0,0,0-.8.636q-.461.569-.923,1.189a4.18,4.18,0,0,1-1.384,1.122,4.037,4.037,0,0,1-2.084.469,4.822,4.822,0,0,1-1.076-.167,1.709,1.709,0,0,1-.769-.452,6.374,6.374,0,0,1-.461-.519,4.5,4.5,0,0,1-.393-.686q-.239-.485-.308-.653-.752-1.239-1.4-1t-.957,1.64a6.534,6.534,0,0,0,.239,3.248,15.738,15.738,0,0,1,.034,6.529,4.16,4.16,0,0,0,.615,3.365,2.835,2.835,0,0,0,2.494,1.1,5,5,0,0,0,2.9-1.189,24.751,24.751,0,0,1,3.058-2.226,22.709,22.709,0,0,1,3.536-1.423,9.554,9.554,0,0,0,2.631-1.222q.82-.619.632-1.155a1.927,1.927,0,0,0-.854-.954,8.388,8.388,0,0,0-1.76-.787,2.793,2.793,0,0,1-1.691-1.607,5.27,5.27,0,0,1-.512-2.427,2.165,2.165,0,0,1,.53-1.59,7.983,7.983,0,0,0,.273,1.892,7.542,7.542,0,0,0,.5,1.356,3.887,3.887,0,0,0,.7.954,5.149,5.149,0,0,0,.718.636q.273.184.735.435t.564.318Z" transform="translate(40.1 32.8)" fill="#27ebc1"/>
  </g>
</svg>
