<svg width="77" height="77" viewBox="0 0 77 77" fill="none" xmlns="http://www.w3.org/2000/svg">
<path d="M38.4847 30.9351C34.3109 30.9351 30.9351 34.3109 30.9351 38.4847C30.9351 42.6585 34.3109 46.0343 38.4847 46.0343C42.6585 46.0343 46.0343 42.6585 46.0343 38.4847C46.065 34.3109 42.6891 30.9351 38.4847 30.9351ZM38.4847 43.3643C35.784 43.3643 33.605 41.1854 33.605 38.4847C33.605 35.784 35.784 33.605 38.4847 33.605C41.1854 33.605 43.3643 35.784 43.3643 38.4847C43.3643 41.1854 41.1854 43.3643 38.4847 43.3643Z" fill="white" fill-opacity="0.17"/>
<path d="M38.4847 0C17.2475 0 0 17.2475 0 38.4847C0 59.7525 17.2475 76.9693 38.4847 76.9693C59.7525 76.9693 76.9693 59.7218 76.9693 38.4847C77 17.2475 59.7525 0 38.4847 0ZM38.4847 49.6556C22.833 49.6556 15.0379 38.7302 15.0379 38.7302C15.0379 38.7302 21.3599 27.3444 38.1471 27.3444C54.9342 27.3444 61.9621 38.7302 61.9621 38.7302C61.9621 38.7302 54.1363 49.6556 38.4847 49.6556Z" fill="white" fill-opacity="0.17"/>
</svg>
