<svg width="71" height="71" viewBox="0 0 71 71" fill="none" xmlns="http://www.w3.org/2000/svg">
<g clip-path="url(#clip0_2_10127)">
<path d="M24.2161 27.3824C16.7413 27.3824 10.6797 33.444 10.6797 40.9189C10.6797 48.3937 16.7413 54.4553 24.2161 54.4553C31.691 54.4553 37.7526 48.3937 37.7526 40.9189C37.7526 33.444 31.691 27.3824 24.2161 27.3824ZM24.2161 52.7798C17.6742 52.7798 12.3524 47.458 12.3524 40.9161C12.3524 34.3742 17.677 29.0552 24.2161 29.0552C30.758 29.0552 36.0771 34.377 36.0771 40.9161C36.0771 47.458 30.7552 52.7798 24.2161 52.7798Z" fill="#128A74"/>
<path d="M25.3524 39.5774C23.6245 38.926 22.9151 38.5009 22.9151 37.8301C22.9151 37.2615 23.3402 36.6929 24.6623 36.6929C26.1253 36.6929 27.0583 37.1621 27.5882 37.383L28.1762 35.0892C27.5082 34.7635 26.5918 34.4792 25.231 34.4184V32.6298H23.2408V34.5592C21.0684 34.9843 19.807 36.3865 19.807 38.1752C19.807 40.146 21.292 41.1618 23.4644 41.8933C24.9687 42.4012 25.6202 42.8897 25.6202 43.6599C25.6202 44.4741 24.8252 44.9185 23.6686 44.9185C22.3492 44.9185 21.1513 44.4907 20.2956 44.0242L19.6855 46.4008C20.4584 46.8452 21.7806 47.2123 23.1414 47.2731V49.2025H25.1316V47.1295C27.4668 46.721 28.7476 45.178 28.7476 43.37C28.7448 41.5482 27.7677 40.4303 25.3524 39.5774Z" fill="#128A74"/>
<path d="M35.5 0.000427246C15.8937 0.000427246 0 15.8941 0 35.5004C0 55.1067 15.8937 71.0004 35.5 71.0004C55.1063 71.0004 71 55.1067 71 35.5004C71 15.8941 55.1063 0.000427246 35.5 0.000427246ZM48.3546 12.499C56.8867 12.499 64.0993 16.0211 64.345 20.2361C64.1021 24.451 56.8867 27.9759 48.3546 27.9759C39.8254 27.9759 32.61 24.4538 32.3671 20.2361C32.61 16.0183 39.8254 12.499 48.3546 12.499ZM41.6002 43.5687C41.5202 44.0959 41.4125 44.6149 41.2883 45.1283C40.7749 47.2151 39.8916 49.1555 38.7074 50.8752C35.5359 55.4849 30.2279 58.5046 24.216 58.5046C14.5025 58.5046 6.6302 50.6323 6.6302 40.9189C6.6302 31.2082 14.5025 23.3359 24.216 23.3359C29.248 23.3359 33.7831 25.453 36.9878 28.8426C38.7682 30.7224 40.1373 32.9968 40.9488 35.5197C41.1227 36.0608 41.2718 36.6128 41.3932 37.1759C41.6527 38.3822 41.7962 39.6326 41.7962 40.9189C41.799 41.8187 41.73 42.7048 41.6002 43.5687ZM64.3698 43.2651C64.3698 47.5794 57.0357 51.223 48.3546 51.223C46.0636 51.223 43.8664 50.9663 41.8735 50.5136C43.0577 48.7939 43.9409 46.8535 44.4544 44.7667C45.7075 44.9158 47.0104 44.993 48.3574 44.993C55.5673 44.993 61.6288 42.7545 64.3726 39.4614V43.2651H64.3698ZM64.3698 35.4645C64.3698 39.7761 57.0357 43.4197 48.3546 43.4197C47.1263 43.4197 45.9228 43.3451 44.7635 43.2071C44.8932 42.3432 44.9622 41.4571 44.9622 40.5573C44.9622 39.271 44.8187 38.0206 44.5592 36.8143C45.7793 36.9551 47.0463 37.0296 48.3546 37.0296C55.5645 37.0296 61.6261 34.7883 64.3698 31.5008V35.4645ZM48.3546 35.4563C46.8944 35.4563 45.4729 35.3514 44.1148 35.1582C43.3006 32.6353 41.9315 30.3635 40.1511 28.481C42.5884 29.1628 45.3708 29.5465 48.3519 29.5465C55.5617 29.5465 61.6233 27.3079 64.367 24.0177V27.4984C64.3698 31.8127 57.0357 35.4563 48.3546 35.4563Z" fill="#128A74"/>
</g>
<defs>
<clipPath id="clip0_2_10127">
<rect width="71" height="71" fill="white" transform="translate(0 0.000427246)"/>
</clipPath>
</defs>
</svg>
