<svg width="67" height="75" viewBox="0 0 67 75" fill="none" xmlns="http://www.w3.org/2000/svg">
<g clip-path="url(#clip0_2_136)">
<path d="M16.91 39.9878H15.0407C14.2743 39.9878 13.6388 40.6254 13.6388 41.3943C13.6388 42.1632 14.2743 42.8008 15.0407 42.8008H16.91C17.6764 42.8008 18.312 42.1632 18.312 41.3943C18.312 40.6254 17.6764 39.9878 16.91 39.9878ZM59.5486 17.4461C59.829 17.7274 60.1841 17.8587 60.5393 17.8587C60.8945 17.8587 61.2496 17.7274 61.53 17.4461C62.0721 16.9023 62.0721 16.0021 61.53 15.4583L56.6325 10.5449C56.0904 10.001 55.1931 10.001 54.651 10.5449C54.1089 11.0887 54.1089 11.9889 54.651 12.5327L59.5486 17.4461ZM33.7336 25.9227C34.5001 25.9227 35.1356 25.2851 35.1356 24.5162V22.6408C35.1356 21.8719 34.5001 21.2343 33.7336 21.2343C32.9672 21.2343 32.3317 21.8719 32.3317 22.6408V24.5162C32.3317 25.2851 32.9672 25.9227 33.7336 25.9227ZM39.6032 8.66951C39.6219 8.5945 39.6406 8.53824 39.6406 8.46323V3.88738C39.6406 3.7186 39.6032 3.56857 39.5471 3.41855H43.0801C43.8465 3.41855 44.4821 2.78093 44.4821 2.01204C44.4821 1.24315 43.8465 0.60553 43.0801 0.60553H24.3872C23.6208 0.60553 22.9852 1.24315 22.9852 2.01204C22.9852 2.78093 23.6208 3.41855 24.3872 3.41855H27.5837C27.5276 3.56857 27.4902 3.7186 27.4902 3.88738V8.46323C27.4902 8.55699 27.5276 8.63201 27.5463 8.70702C12.1994 11.6326 0.553711 25.1726 0.553711 41.3943C0.553711 59.7539 15.4333 74.6817 33.7336 74.6817C52.034 74.6817 66.9136 59.7539 66.9136 41.3943C66.9136 25.06 55.0996 11.445 39.6032 8.66951ZM36.9301 3.41855C36.8741 3.56857 36.8367 3.7186 36.8367 3.88738V8.25694C35.8086 8.16317 34.7804 8.10691 33.7336 8.10691C32.5747 8.10691 31.4344 8.16317 30.2941 8.29444V3.88738C30.2941 3.7186 30.2568 3.56857 30.2007 3.41855H36.9301ZM33.7336 71.8686C16.9848 71.8686 3.35765 58.1974 3.35765 41.3943C3.35765 24.5912 16.9848 10.9199 33.7336 10.9199C50.4825 10.9199 64.1096 24.5912 64.1096 41.3943C64.1096 58.1974 50.4825 71.8686 33.7336 71.8686ZM33.7336 56.8659C32.9672 56.8659 32.3317 57.5035 32.3317 58.2724V60.1477C32.3317 60.9166 32.9672 61.5542 33.7336 61.5542C34.5001 61.5542 35.1356 60.9166 35.1356 60.1477V58.2724C35.1356 57.5035 34.5001 56.8659 33.7336 56.8659ZM33.7336 15.6083C19.5644 15.6083 8.03088 27.1792 8.03088 41.3943C8.03088 55.6094 19.5644 67.1803 33.7336 67.1803C47.9029 67.1803 59.4364 55.6094 59.4364 41.3943C59.4364 27.1792 47.9029 15.6083 33.7336 15.6083ZM33.7336 64.3673C21.1159 64.3673 10.8348 54.0529 10.8348 41.3943C10.8348 28.7357 21.1159 18.4213 33.7336 18.4213C46.3514 18.4213 56.6325 28.7357 56.6325 41.3943C56.6325 54.0529 46.3514 64.3673 33.7336 64.3673ZM50.5573 39.9878H39.3415C39.1172 39.9878 38.8929 40.0628 38.706 40.1566C38.1452 37.9061 36.145 36.2371 33.7336 36.2371C30.8923 36.2371 28.5931 38.5438 28.5931 41.3943C28.5931 44.2448 30.8923 46.5515 33.7336 46.5515C36.145 46.5515 38.1452 44.8824 38.706 42.632C38.8929 42.7258 39.1172 42.8008 39.3415 42.8008H50.5573C51.3237 42.8008 51.9592 42.1632 51.9592 41.3943C51.9592 40.6254 51.3237 39.9878 50.5573 39.9878ZM33.7336 43.7385C32.4438 43.7385 31.397 42.6883 31.397 41.3943C31.397 40.1003 32.4438 39.0501 33.7336 39.0501C35.0235 39.0501 36.0703 40.1003 36.0703 41.3943C36.0703 42.6883 35.0235 43.7385 33.7336 43.7385Z" fill="white"/>
</g>
<defs>
<clipPath id="clip0_2_136">
<rect width="66.3599" height="74.0761" fill="white" transform="translate(0.553711 0.60553)"/>
</clipPath>
</defs>
</svg>
