<svg width="71" height="62" viewBox="0 0 71 62" fill="none" xmlns="http://www.w3.org/2000/svg">
<g clip-path="url(#clip0_2_142)">
<path d="M66.86 27.6044C66.94 27.4076 67 27.2108 67 26.9943V1.40698C67 0.599993 66.32 -0.0692139 65.5 -0.0692139H6.5C2.92 -0.0692139 0 2.80444 0 6.32761C0 6.54412 0.04 6.76063 0.06 6.97714C0.04 7.09523 0 7.19364 0 7.31174V52.9555C0 57.9156 4.1 61.9308 9.12 61.9308H65.5C66.32 61.9308 67 61.2616 67 60.4546V46.0076C69.3 45.4368 71 43.4095 71 40.9886V32.6628C71 30.2025 69.22 28.1162 66.86 27.6044ZM6.5 2.88317H64V9.77206H6.5C4.58 9.77206 3 8.21714 3 6.32761C3 4.43809 4.58 2.88317 6.5 2.88317ZM64 58.9784H9.12C5.74 58.9784 3 56.2819 3 52.9555V37.1111C4.12 37.859 5.46 38.3117 6.92 38.3117H13.5C14.32 38.3117 15 37.6425 15 36.8355C15 36.0286 14.32 35.3594 13.5 35.3594H6.92C4.76 35.3594 3 33.6273 3 31.5016V11.7009C4.02 12.3505 5.2 12.7244 6.5 12.7244H64V26.9943C64 27.1714 64.04 27.3289 64.1 27.4863H57.46C52.76 27.4863 48.88 30.8914 48.14 35.3594H39.48C38.68 35.3594 38 36.0286 38 36.8355C38 37.6425 38.68 38.3117 39.5 38.3117H48.14C48.86 42.76 52.74 46.1848 57.46 46.1848H64V58.9784ZM68 40.9886C68 42.2286 66.98 43.2324 65.72 43.2324H57.46C53.9 43.2324 50.98 40.3784 50.98 36.8159C50.98 33.3124 53.88 30.4387 57.46 30.4387H65.72C66.98 30.4387 68 31.4425 68 32.6825V40.9886ZM28.5 25.5181H27V21.0895C27 20.2825 26.32 19.6133 25.5 19.6133C24.68 19.6133 24 20.2825 24 21.0895V25.5181H17.5C16.68 25.5181 16 26.1873 16 26.9943V46.6768C16 47.4838 16.68 48.153 17.5 48.153H24V52.5816C24 53.3886 24.68 54.0578 25.5 54.0578C26.32 54.0578 27 53.3886 27 52.5816V48.153H28.5C32.08 48.153 35 45.2794 35 41.7562C35 39.7682 34.06 38.0165 32.6 36.8355C34.06 35.6546 35 33.9029 35 31.9149C35 28.3917 32.08 25.5181 28.5 25.5181ZM28.5 45.2006H19V38.3117H28.5C30.42 38.3117 32 39.8667 32 41.7562C32 43.6457 30.42 45.2006 28.5 45.2006ZM28.5 35.3594H19V28.4705H28.5C30.42 28.4705 32 30.0254 32 31.9149C32 33.8044 30.42 35.3594 28.5 35.3594ZM57.5 33.3911C56.68 33.3911 56 34.0603 56 34.8673V38.8038C56 39.6108 56.68 40.28 57.5 40.28C58.32 40.28 59 39.6108 59 38.8038V34.8673C59 34.0603 58.32 33.3911 57.5 33.3911Z" fill="white"/>
</g>
<defs>
<clipPath id="clip0_2_142">
<rect width="71" height="62" fill="white"/>
</clipPath>
</defs>
</svg>
