<svg xmlns="http://www.w3.org/2000/svg" xmlns:xlink="http://www.w3.org/1999/xlink" width="1680" height="350" viewBox="0 0 1680 350">
  <defs>
    <clipPath id="clip-path">
      <rect id="Rectangle_15" data-name="Rectangle 15" width="1680" height="350" rx="40" transform="translate(120 1080)" fill="#121334"/>
    </clipPath>
  </defs>
  <g id="Group_4429" data-name="Group 4429" transform="translate(-120 -1180)">
    <rect id="Rectangle_12" data-name="Rectangle 12" width="1680" height="350" rx="40" transform="translate(120 1180)" fill="#0f1134"/>
    <g id="Mask_Group_7" data-name="Mask Group 7" transform="translate(0 100)" clip-path="url(#clip-path)">
      <g id="Group_10" data-name="Group 10">
        <g id="Group_8" data-name="Group 8" transform="translate(120.435 1203.092)" opacity="0.5">
          <path id="Union_2" data-name="Union 2" d="M147.565-933.23v-63.888a3.5,3.5,0,0,1,3.5-3.5,3.5,3.5,0,0,1,3.5,3.5v63.888a3.5,3.5,0,0,1-3.5,3.5A3.5,3.5,0,0,1,147.565-933.23Zm-12,0v-47.529a3.5,3.5,0,0,1,3.5-3.5,3.5,3.5,0,0,1,3.5,3.5v47.529a3.5,3.5,0,0,1-3.5,3.5A3.5,3.5,0,0,1,135.565-933.23Zm-24,0v-54.346a3.5,3.5,0,0,1,3.5-3.5,3.5,3.5,0,0,1,3.5,3.5v54.346a3.5,3.5,0,0,1-3.5,3.5A3.5,3.5,0,0,1,111.565-933.23Zm-12,0v-76.157a3.5,3.5,0,0,1,3.5-3.5,3.5,3.5,0,0,1,3.5,3.5v76.157a3.5,3.5,0,0,1-3.5,3.5A3.5,3.5,0,0,1,99.565-933.23Zm-13-.5v-106.51a4,4,0,0,1,4-4,4,4,0,0,1,4,4v106.51a4,4,0,0,1-4,4A4,4,0,0,1,86.565-933.73Zm37,.5v-40.713a3.5,3.5,0,0,1,3.5-3.5,3.5,3.5,0,0,1,3.5,3.5v40.713a3.5,3.5,0,0,1-3.5,3.5A3.5,3.5,0,0,1,123.565-933.23Zm-242-4.568v-82.68a4,4,0,0,1,4-4,4,4,0,0,1,4,4v82.68a4,4,0,0,1-4,4A4,4,0,0,1-118.436-937.8Zm-12,0v-74.437a4,4,0,0,1,4-4,4,4,0,0,1,4,4V-937.8a4,4,0,0,1-4,4A4,4,0,0,1-130.435-937.8Zm1194-6.746v-123.646a3.5,3.5,0,0,1,3.5-3.5,3.5,3.5,0,0,1,3.5,3.5v123.646a3.5,3.5,0,0,1-3.5,3.5A3.5,3.5,0,0,1,1063.565-944.544Zm-12,0v-96.079a3.5,3.5,0,0,1,3.5-3.5,3.5,3.5,0,0,1,3.5,3.5v96.079a3.5,3.5,0,0,1-3.5,3.5A3.5,3.5,0,0,1,1051.565-944.544Zm-12,0v-73.305a3.5,3.5,0,0,1,3.5-3.5,3.5,3.5,0,0,1,3.5,3.5v73.305a3.5,3.5,0,0,1-3.5,3.5A3.5,3.5,0,0,1,1039.565-944.544Zm-12,0V-999.87a3.5,3.5,0,0,1,3.5-3.5,3.5,3.5,0,0,1,3.5,3.5v55.327a3.5,3.5,0,0,1-3.5,3.5A3.5,3.5,0,0,1,1027.565-944.544Zm482-1.738v-124.682a3.5,3.5,0,0,1,3.5-3.5,3.5,3.5,0,0,1,3.5,3.5v124.682a3.5,3.5,0,0,1-3.5,3.5A3.5,3.5,0,0,1,1509.565-946.282Zm-12,0v-137.5a3.5,3.5,0,0,1,3.5-3.5,3.5,3.5,0,0,1,3.5,3.5v137.5a3.5,3.5,0,0,1-3.5,3.5A3.5,3.5,0,0,1,1497.565-946.282Zm-12,0v-152.65a3.5,3.5,0,0,1,3.5-3.5,3.5,3.5,0,0,1,3.5,3.5v152.65a3.5,3.5,0,0,1-3.5,3.5A3.5,3.5,0,0,1,1485.565-946.282Zm60-9.733V-1008.4a4,4,0,0,1,4-4,4,4,0,0,1,4,4v52.386a4,4,0,0,1-4,4A4,4,0,0,1,1545.565-956.014Zm-12,.5v-98.4a3.5,3.5,0,0,1,3.5-3.5,3.5,3.5,0,0,1,3.5,3.5v98.4a3.5,3.5,0,0,1-3.5,3.5A3.5,3.5,0,0,1,1533.565-955.514Zm-12,0v-85.227a3.5,3.5,0,0,1,3.5-3.5,3.5,3.5,0,0,1,3.5,3.5v85.227a3.5,3.5,0,0,1-3.5,3.5A3.5,3.5,0,0,1,1521.565-955.514Zm-48,0v-129.145a3.5,3.5,0,0,1,3.5-3.5,3.5,3.5,0,0,1,3.5,3.5v129.145a3.5,3.5,0,0,1-3.5,3.5A3.5,3.5,0,0,1,1473.565-955.514Zm-12,0v-137.929a3.5,3.5,0,0,1,3.5-3.5,3.5,3.5,0,0,1,3.5,3.5v137.929a3.5,3.5,0,0,1-3.5,3.5A3.5,3.5,0,0,1,1461.565-955.514Zm-12,0v-146.712a3.5,3.5,0,0,1,3.5-3.5,3.5,3.5,0,0,1,3.5,3.5v146.712a3.5,3.5,0,0,1-3.5,3.5A3.5,3.5,0,0,1,1449.565-955.514Zm-12,0V-1116.5a3.5,3.5,0,0,1,3.5-3.5,3.5,3.5,0,0,1,3.5,3.5v160.985a3.5,3.5,0,0,1-3.5,3.5A3.5,3.5,0,0,1,1437.565-955.514Zm-12,0V-1131.87a3.5,3.5,0,0,1,3.5-3.5,3.5,3.5,0,0,1,3.5,3.5v176.356a3.5,3.5,0,0,1-3.5,3.5A3.5,3.5,0,0,1,1425.565-955.514Zm-12,0v-190.629a3.5,3.5,0,0,1,3.5-3.5,3.5,3.5,0,0,1,3.5,3.5v190.629a3.5,3.5,0,0,1-3.5,3.5A3.5,3.5,0,0,1,1413.565-955.514Zm-12,0v-174.16a3.5,3.5,0,0,1,3.5-3.5,3.5,3.5,0,0,1,3.5,3.5v174.16a3.5,3.5,0,0,1-3.5,3.5A3.5,3.5,0,0,1,1401.565-955.514Zm-12,0v-163.181a3.5,3.5,0,0,1,3.5-3.5,3.5,3.5,0,0,1,3.5,3.5v163.181a3.5,3.5,0,0,1-3.5,3.5A3.5,3.5,0,0,1,1389.565-955.514Zm-12,0V-1100.03a3.5,3.5,0,0,1,3.5-3.5,3.5,3.5,0,0,1,3.5,3.5v144.516a3.5,3.5,0,0,1-3.5,3.5A3.5,3.5,0,0,1,1377.565-955.514Zm-13-.5v-135.831a4,4,0,0,1,4-4,4,4,0,0,1,4,4v135.831a4,4,0,0,1-4,4A4,4,0,0,1,1364.565-956.013Zm-12,0v-131.438a4,4,0,0,1,4-4,4,4,0,0,1,4,4v131.438a4,4,0,0,1-4,4A4,4,0,0,1,1352.565-956.014Zm-12,0v-141.32a4,4,0,0,1,4-4,4,4,0,0,1,4,4v141.32a4,4,0,0,1-4,4A4,4,0,0,1,1340.564-956.014Zm-12,0V-1116a4,4,0,0,1,4-4,4,4,0,0,1,4,4v159.985a4,4,0,0,1-4,4A4,4,0,0,1,1328.565-956.014Zm-12,.5V-1131.87a3.5,3.5,0,0,1,3.5-3.5,3.5,3.5,0,0,1,3.5,3.5v176.356a3.5,3.5,0,0,1-3.5,3.5A3.5,3.5,0,0,1,1316.565-955.514Zm-12,0v-129.145a3.5,3.5,0,0,1,3.5-3.5,3.5,3.5,0,0,1,3.5,3.5v129.145a3.5,3.5,0,0,1-3.5,3.5A3.5,3.5,0,0,1,1304.564-955.514Zm-12,0v-99.5a3.5,3.5,0,0,1,3.5-3.5,3.5,3.5,0,0,1,3.5,3.5v99.5a3.5,3.5,0,0,1-3.5,3.5A3.5,3.5,0,0,1,1292.565-955.514Zm-12,0v-84.129a3.5,3.5,0,0,1,3.5-3.5,3.5,3.5,0,0,1,3.5,3.5v84.129a3.5,3.5,0,0,1-3.5,3.5A3.5,3.5,0,0,1,1280.565-955.514Zm-12,0v-85.227a3.5,3.5,0,0,1,3.5-3.5,3.5,3.5,0,0,1,3.5,3.5v85.227a3.5,3.5,0,0,1-3.5,3.5A3.5,3.5,0,0,1,1268.564-955.514Zm-12,0v-74.247a3.5,3.5,0,0,1,3.5-3.5,3.5,3.5,0,0,1,3.5,3.5v74.247a3.5,3.5,0,0,1-3.5,3.5A3.5,3.5,0,0,1,1256.565-955.514Zm-12,0v-84.129a3.5,3.5,0,0,1,3.5-3.5,3.5,3.5,0,0,1,3.5,3.5v84.129a3.5,3.5,0,0,1-3.5,3.5A3.5,3.5,0,0,1,1244.565-955.514Zm-12,0v-98.4a3.5,3.5,0,0,1,3.5-3.5,3.5,3.5,0,0,1,3.5,3.5v98.4a3.5,3.5,0,0,1-3.5,3.5A3.5,3.5,0,0,1,1232.564-955.514Zm-12,0v-113.774a3.5,3.5,0,0,1,3.5-3.5,3.5,3.5,0,0,1,3.5,3.5v113.774a3.5,3.5,0,0,1-3.5,3.5A3.5,3.5,0,0,1,1220.565-955.514Zm-12,0v-103.892a3.5,3.5,0,0,1,3.5-3.5,3.5,3.5,0,0,1,3.5,3.5v103.892a3.5,3.5,0,0,1-3.5,3.5A3.5,3.5,0,0,1,1208.565-955.514Zm-12,0v-117.068a3.5,3.5,0,0,1,3.5-3.5,3.5,3.5,0,0,1,3.5,3.5v117.068a3.5,3.5,0,0,1-3.5,3.5A3.5,3.5,0,0,1,1196.564-955.514Zm-12,0v-135.733a3.5,3.5,0,0,1,3.5-3.5,3.5,3.5,0,0,1,3.5,3.5v135.733a3.5,3.5,0,0,1-3.5,3.5A3.5,3.5,0,0,1,1184.565-955.514Zm-12,0v-155.495a3.5,3.5,0,0,1,3.5-3.5,3.5,3.5,0,0,1,3.5,3.5v155.495a3.5,3.5,0,0,1-3.5,3.5A3.5,3.5,0,0,1,1172.565-955.514Zm-12,0v-177.454a3.5,3.5,0,0,1,3.5-3.5,3.5,3.5,0,0,1,3.5,3.5v177.454a3.5,3.5,0,0,1-3.5,3.5A3.5,3.5,0,0,1,1160.564-955.514Zm-13-.5v-144.613a4,4,0,0,1,4-4,4,4,0,0,1,4,4v144.613a4,4,0,0,1-4,4A4,4,0,0,1,1147.565-956.014Zm-12,0V-1114.9a4,4,0,0,1,4-4,4,4,0,0,1,4,4v158.888a4,4,0,0,1-4,4A4,4,0,0,1,1135.565-956.013Zm-12,0v-187.433a4,4,0,0,1,4-4,4,4,0,0,1,4,4v187.433a4,4,0,0,1-4,4A4,4,0,0,1,1123.565-956.014Zm-12,0v-217.077a4,4,0,0,1,4-4,4,4,0,0,1,4,4v217.077a4,4,0,0,1-4,4A4,4,0,0,1,1111.565-956.014Zm-12,.5v-203.805a3.5,3.5,0,0,1,3.5-3.5,3.5,3.5,0,0,1,3.5,3.5v203.805a3.5,3.5,0,0,1-3.5,3.5A3.5,3.5,0,0,1,1099.565-955.514Zm-12,0V-1131.87a3.5,3.5,0,0,1,3.5-3.5,3.5,3.5,0,0,1,3.5,3.5v176.356a3.5,3.5,0,0,1-3.5,3.5A3.5,3.5,0,0,1,1087.565-955.514Zm-12,0V-1100.03a3.5,3.5,0,0,1,3.5-3.5,3.5,3.5,0,0,1,3.5,3.5v144.516a3.5,3.5,0,0,1-3.5,3.5A3.5,3.5,0,0,1,1075.565-955.514Zm-60,0v-35.82a3.5,3.5,0,0,1,3.5-3.5,3.5,3.5,0,0,1,3.5,3.5v35.82a3.5,3.5,0,0,1-3.5,3.5A3.5,3.5,0,0,1,1015.565-955.514Zm-12,0v-30.33a3.5,3.5,0,0,1,3.5-3.5,3.5,3.5,0,0,1,3.5,3.5v30.33a3.5,3.5,0,0,1-3.5,3.5A3.5,3.5,0,0,1,1003.565-955.514Zm-12,0v-41.309a3.5,3.5,0,0,1,3.5-3.5,3.5,3.5,0,0,1,3.5,3.5v41.309a3.5,3.5,0,0,1-3.5,3.5A3.5,3.5,0,0,1,991.565-955.514Zm-12,0v-59.974a3.5,3.5,0,0,1,3.5-3.5,3.5,3.5,0,0,1,3.5,3.5v59.974a3.5,3.5,0,0,1-3.5,3.5A3.5,3.5,0,0,1,979.565-955.514Zm-12,0v-85.227a3.5,3.5,0,0,1,3.5-3.5,3.5,3.5,0,0,1,3.5,3.5v85.227a3.5,3.5,0,0,1-3.5,3.5A3.5,3.5,0,0,1,967.565-955.514Zm-12,0V-1060.5a3.5,3.5,0,0,1,3.5-3.5,3.5,3.5,0,0,1,3.5,3.5v104.99a3.5,3.5,0,0,1-3.5,3.5A3.5,3.5,0,0,1,955.565-955.514Zm-13-.5v-117.165a4,4,0,0,1,4-4,4,4,0,0,1,4,4v117.165a4,4,0,0,1-4,4A4,4,0,0,1,942.565-956.014Zm-12,0v-124.851a4,4,0,0,1,4-4,4,4,0,0,1,4,4v124.851a4,4,0,0,1-4,4A4,4,0,0,1,930.565-956.014Zm-12,0v-113.871a4,4,0,0,1,4-4,4,4,0,0,1,4,4v113.871a4,4,0,0,1-4,4A4,4,0,0,1,918.565-956.014Zm-12,0v-101.794a4,4,0,0,1,4-4,4,4,0,0,1,4,4v101.794a4,4,0,0,1-4,4A4,4,0,0,1,906.565-956.014Zm-12,.5v-98.4a3.5,3.5,0,0,1,3.5-3.5,3.5,3.5,0,0,1,3.5,3.5v98.4a3.5,3.5,0,0,1-3.5,3.5A3.5,3.5,0,0,1,894.565-955.514Zm-12,0v-114.872a3.5,3.5,0,0,1,3.5-3.5,3.5,3.5,0,0,1,3.5,3.5v114.872a3.5,3.5,0,0,1-3.5,3.5A3.5,3.5,0,0,1,882.565-955.514Zm-12,0V-1078.07a3.5,3.5,0,0,1,3.5-3.5,3.5,3.5,0,0,1,3.5,3.5v122.557a3.5,3.5,0,0,1-3.5,3.5A3.5,3.5,0,0,1,870.565-955.514Zm-12,0v-137.929a3.5,3.5,0,0,1,3.5-3.5,3.5,3.5,0,0,1,3.5,3.5v137.929a3.5,3.5,0,0,1-3.5,3.5A3.5,3.5,0,0,1,858.565-955.514Zm-12,0v-153.3a3.5,3.5,0,0,1,3.5-3.5,3.5,3.5,0,0,1,3.5,3.5v153.3a3.5,3.5,0,0,1-3.5,3.5A3.5,3.5,0,0,1,846.565-955.514Zm-12,0V-1117.6a3.5,3.5,0,0,1,3.5-3.5,3.5,3.5,0,0,1,3.5,3.5v162.083a3.5,3.5,0,0,1-3.5,3.5A3.5,3.5,0,0,1,834.565-955.514Zm-12,0v-155.495a3.5,3.5,0,0,1,3.5-3.5,3.5,3.5,0,0,1,3.5,3.5v155.495a3.5,3.5,0,0,1-3.5,3.5A3.5,3.5,0,0,1,822.565-955.514Zm-12,0v-145.614a3.5,3.5,0,0,1,3.5-3.5,3.5,3.5,0,0,1,3.5,3.5v145.614a3.5,3.5,0,0,1-3.5,3.5A3.5,3.5,0,0,1,810.565-955.514Zm-12,0v-132.439a3.5,3.5,0,0,1,3.5-3.5,3.5,3.5,0,0,1,3.5,3.5v132.439a3.5,3.5,0,0,1-3.5,3.5A3.5,3.5,0,0,1,798.565-955.514Zm-12,0v-100.6a3.5,3.5,0,0,1,3.5-3.5,3.5,3.5,0,0,1,3.5,3.5v100.6a3.5,3.5,0,0,1-3.5,3.5A3.5,3.5,0,0,1,786.565-955.514Zm-12,0v-80.835a3.5,3.5,0,0,1,3.5-3.5,3.5,3.5,0,0,1,3.5,3.5v80.835a3.5,3.5,0,0,1-3.5,3.5A3.5,3.5,0,0,1,774.565-955.514Zm-12,0v-65.464a3.5,3.5,0,0,1,3.5-3.5,3.5,3.5,0,0,1,3.5,3.5v65.464a3.5,3.5,0,0,1-3.5,3.5A3.5,3.5,0,0,1,762.565-955.514Zm-12,0v-57.778a3.5,3.5,0,0,1,3.5-3.5,3.5,3.5,0,0,1,3.5,3.5v57.778a3.5,3.5,0,0,1-3.5,3.5A3.5,3.5,0,0,1,750.565-955.514Zm-12,0v-78.639a3.5,3.5,0,0,1,3.5-3.5,3.5,3.5,0,0,1,3.5,3.5v78.639a3.5,3.5,0,0,1-3.5,3.5A3.5,3.5,0,0,1,738.565-955.514Zm-13-.5v-69.953a4,4,0,0,1,4-4,4,4,0,0,1,4,4v69.953a4,4,0,0,1-4,4A4,4,0,0,1,725.565-956.014Zm-12,0v-64.463a4,4,0,0,1,4-4,4,4,0,0,1,4,4v64.463a4,4,0,0,1-4,4A4,4,0,0,1,713.565-956.014Zm-12,0v-56.778a4,4,0,0,1,4-4,4,4,0,0,1,4,4v56.778a4,4,0,0,1-4,4A4,4,0,0,1,701.564-956.014Zm-12,0v-50.19a4,4,0,0,1,4-4,4,4,0,0,1,4,4v50.19a4,4,0,0,1-4,4A4,4,0,0,1,689.565-956.014Zm-12,.5v-44.6a3.5,3.5,0,0,1,3.5-3.5,3.5,3.5,0,0,1,3.5,3.5v44.6a3.5,3.5,0,0,1-3.5,3.5A3.5,3.5,0,0,1,677.565-955.514Zm-12,0V-1008.9a3.5,3.5,0,0,1,3.5-3.5,3.5,3.5,0,0,1,3.5,3.5v53.387a3.5,3.5,0,0,1-3.5,3.5A3.5,3.5,0,0,1,665.564-955.514Zm-12,0v-98.4a3.5,3.5,0,0,1,3.5-3.5,3.5,3.5,0,0,1,3.5,3.5v98.4a3.5,3.5,0,0,1-3.5,3.5A3.5,3.5,0,0,1,653.565-955.514Zm-12,0v-85.227a3.5,3.5,0,0,1,3.5-3.5,3.5,3.5,0,0,1,3.5,3.5v85.227a3.5,3.5,0,0,1-3.5,3.5A3.5,3.5,0,0,1,641.565-955.514Zm-12,0v-119.264a3.5,3.5,0,0,1,3.5-3.5,3.5,3.5,0,0,1,3.5,3.5v119.264a3.5,3.5,0,0,1-3.5,3.5A3.5,3.5,0,0,1,629.564-955.514Zm-12,0v-129.145a3.5,3.5,0,0,1,3.5-3.5,3.5,3.5,0,0,1,3.5,3.5v129.145a3.5,3.5,0,0,1-3.5,3.5A3.5,3.5,0,0,1,617.565-955.514Zm-12,0v-146.712a3.5,3.5,0,0,1,3.5-3.5,3.5,3.5,0,0,1,3.5,3.5v146.712a3.5,3.5,0,0,1-3.5,3.5A3.5,3.5,0,0,1,605.565-955.514Zm-12,0v-129.145a3.5,3.5,0,0,1,3.5-3.5,3.5,3.5,0,0,1,3.5,3.5v129.145a3.5,3.5,0,0,1-3.5,3.5A3.5,3.5,0,0,1,593.564-955.514Zm-12,0v-137.929a3.5,3.5,0,0,1,3.5-3.5,3.5,3.5,0,0,1,3.5,3.5v137.929a3.5,3.5,0,0,1-3.5,3.5A3.5,3.5,0,0,1,581.565-955.514Zm-12,0V-1100.03a3.5,3.5,0,0,1,3.5-3.5,3.5,3.5,0,0,1,3.5,3.5v144.516a3.5,3.5,0,0,1-3.5,3.5A3.5,3.5,0,0,1,569.565-955.514Zm-12,0V-1115.4a3.5,3.5,0,0,1,3.5-3.5,3.5,3.5,0,0,1,3.5,3.5v159.887a3.5,3.5,0,0,1-3.5,3.5A3.5,3.5,0,0,1,557.564-955.514Zm-12,0V-1131.87a3.5,3.5,0,0,1,3.5-3.5,3.5,3.5,0,0,1,3.5,3.5v176.356a3.5,3.5,0,0,1-3.5,3.5A3.5,3.5,0,0,1,545.565-955.514Zm-12,0v-190.629a3.5,3.5,0,0,1,3.5-3.5,3.5,3.5,0,0,1,3.5,3.5v190.629a3.5,3.5,0,0,1-3.5,3.5A3.5,3.5,0,0,1,533.565-955.514Zm-13-.5v-172.063a4,4,0,0,1,4-4,4,4,0,0,1,4,4v172.063a4,4,0,0,1-4,4A4,4,0,0,1,520.565-956.013Zm-12,0v-162.181a4,4,0,0,1,4-4,4,4,0,0,1,4,4v162.181a4,4,0,0,1-4,4A4,4,0,0,1,508.565-956.013Zm-12,0V-1099.53a4,4,0,0,1,4-4,4,4,0,0,1,4,4v143.516a4,4,0,0,1-4,4A4,4,0,0,1,496.565-956.014Zm-12,0v-136.928a4,4,0,0,1,4-4,4,4,0,0,1,4,4v136.928a4,4,0,0,1-4,4A4,4,0,0,1,484.565-956.014Zm-12,0v-130.34a4,4,0,0,1,4-4,4,4,0,0,1,4,4v130.34a4,4,0,0,1-4,4A4,4,0,0,1,472.565-956.014Zm-12,.5v-141.222a3.5,3.5,0,0,1,3.5-3.5,3.5,3.5,0,0,1,3.5,3.5v141.222a3.5,3.5,0,0,1-3.5,3.5A3.5,3.5,0,0,1,460.565-955.514Zm-12,0V-1115.4a3.5,3.5,0,0,1,3.5-3.5,3.5,3.5,0,0,1,3.5,3.5v159.887a3.5,3.5,0,0,1-3.5,3.5A3.5,3.5,0,0,1,448.565-955.514Zm-12,0V-1131.87a3.5,3.5,0,0,1,3.5-3.5,3.5,3.5,0,0,1,3.5,3.5v176.356a3.5,3.5,0,0,1-3.5,3.5A3.5,3.5,0,0,1,436.565-955.514Zm-12,0V-1083.56a3.5,3.5,0,0,1,3.5-3.5,3.5,3.5,0,0,1,3.5,3.5v128.047a3.5,3.5,0,0,1-3.5,3.5A3.5,3.5,0,0,1,424.565-955.514Zm-12,0v-99.5a3.5,3.5,0,0,1,3.5-3.5,3.5,3.5,0,0,1,3.5,3.5v99.5a3.5,3.5,0,0,1-3.5,3.5A3.5,3.5,0,0,1,412.565-955.514Zm-12,0v-85.227a3.5,3.5,0,0,1,3.5-3.5,3.5,3.5,0,0,1,3.5,3.5v85.227a3.5,3.5,0,0,1-3.5,3.5A3.5,3.5,0,0,1,400.565-955.514Zm-12,0v-85.227a3.5,3.5,0,0,1,3.5-3.5,3.5,3.5,0,0,1,3.5,3.5v85.227a3.5,3.5,0,0,1-3.5,3.5A3.5,3.5,0,0,1,388.565-955.514Zm-12,0v-76.443a3.5,3.5,0,0,1,3.5-3.5,3.5,3.5,0,0,1,3.5,3.5v76.443a3.5,3.5,0,0,1-3.5,3.5A3.5,3.5,0,0,1,376.565-955.514Zm-12,0v-85.227a3.5,3.5,0,0,1,3.5-3.5,3.5,3.5,0,0,1,3.5,3.5v85.227a3.5,3.5,0,0,1-3.5,3.5A3.5,3.5,0,0,1,364.565-955.514Zm-12,0v-99.5a3.5,3.5,0,0,1,3.5-3.5,3.5,3.5,0,0,1,3.5,3.5v99.5a3.5,3.5,0,0,1-3.5,3.5A3.5,3.5,0,0,1,352.565-955.514Zm-12,0v-115.969a3.5,3.5,0,0,1,3.5-3.5,3.5,3.5,0,0,1,3.5,3.5v115.969a3.5,3.5,0,0,1-3.5,3.5A3.5,3.5,0,0,1,340.565-955.514Zm-12,0v-103.892a3.5,3.5,0,0,1,3.5-3.5,3.5,3.5,0,0,1,3.5,3.5v103.892a3.5,3.5,0,0,1-3.5,3.5A3.5,3.5,0,0,1,328.565-955.514Zm-12,0v-112.676a3.5,3.5,0,0,1,3.5-3.5,3.5,3.5,0,0,1,3.5,3.5v112.676a3.5,3.5,0,0,1-3.5,3.5A3.5,3.5,0,0,1,316.565-955.514Zm-13-.5v-133.634a4,4,0,0,1,4-4,4,4,0,0,1,4,4v133.634a4,4,0,0,1-4,4A4,4,0,0,1,303.565-956.014Zm-12,0v-153.4a4,4,0,0,1,4-4,4,4,0,0,1,4,4v153.4a4,4,0,0,1-4,4A4,4,0,0,1,291.565-956.014Zm-12,0V-1131.37a4,4,0,0,1,4-4,4,4,0,0,1,4,4v175.357a4,4,0,0,1-4,4A4,4,0,0,1,279.565-956.013Zm-12,0v-145.712a4,4,0,0,1,4-4,4,4,0,0,1,4,4v145.712a4,4,0,0,1-4,4A4,4,0,0,1,267.565-956.013Zm-12,.5V-1115.4a3.5,3.5,0,0,1,3.5-3.5,3.5,3.5,0,0,1,3.5,3.5v159.887a3.5,3.5,0,0,1-3.5,3.5A3.5,3.5,0,0,1,255.565-955.514Zm-12,0V-1142.85a3.5,3.5,0,0,1,3.5-3.5,3.5,3.5,0,0,1,3.5,3.5v187.336a3.5,3.5,0,0,1-3.5,3.5A3.5,3.5,0,0,1,243.565-955.514Zm-12,0v-218.078a3.5,3.5,0,0,1,3.5-3.5,3.5,3.5,0,0,1,3.5,3.5v218.078a3.5,3.5,0,0,1-3.5,3.5A3.5,3.5,0,0,1,231.565-955.514Zm-12,0v-202.707a3.5,3.5,0,0,1,3.5-3.5,3.5,3.5,0,0,1,3.5,3.5v202.707a3.5,3.5,0,0,1-3.5,3.5A3.5,3.5,0,0,1,219.565-955.514Zm-12,0V-1131.87a3.5,3.5,0,0,1,3.5-3.5,3.5,3.5,0,0,1,3.5,3.5v176.356a3.5,3.5,0,0,1-3.5,3.5A3.5,3.5,0,0,1,207.565-955.514Zm-12,0v-146.712a3.5,3.5,0,0,1,3.5-3.5,3.5,3.5,0,0,1,3.5,3.5v146.712a3.5,3.5,0,0,1-3.5,3.5A3.5,3.5,0,0,1,195.565-955.514Zm-12,0v-113.774a3.5,3.5,0,0,1,3.5-3.5,3.5,3.5,0,0,1,3.5,3.5v113.774a3.5,3.5,0,0,1-3.5,3.5A3.5,3.5,0,0,1,183.565-955.514Zm-12,0v-85.227a3.5,3.5,0,0,1,3.5-3.5,3.5,3.5,0,0,1,3.5,3.5v85.227a3.5,3.5,0,0,1-3.5,3.5A3.5,3.5,0,0,1,171.565-955.514Zm-12,0v-65.464a3.5,3.5,0,0,1,3.5-3.5,3.5,3.5,0,0,1,3.5,3.5v65.464a3.5,3.5,0,0,1-3.5,3.5A3.5,3.5,0,0,1,159.565-955.514Zm-85-.5v-102.892a4,4,0,0,1,4-4,4,4,0,0,1,4,4v102.892a4,4,0,0,1-4,4A4,4,0,0,1,74.565-956.014Zm-12,0v-113.871a4,4,0,0,1,4-4,4,4,0,0,1,4,4v113.871a4,4,0,0,1-4,4A4,4,0,0,1,62.565-956.014Zm-12,0v-125.95a4,4,0,0,1,4-4,4,4,0,0,1,4,4v125.95a4,4,0,0,1-4,4A4,4,0,0,1,50.565-956.013Zm-12,.5v-118.166a3.5,3.5,0,0,1,3.5-3.5,3.5,3.5,0,0,1,3.5,3.5v118.166a3.5,3.5,0,0,1-3.5,3.5A3.5,3.5,0,0,1,38.565-955.514Zm-12,0v-101.7a3.5,3.5,0,0,1,3.5-3.5,3.5,3.5,0,0,1,3.5,3.5v101.7a3.5,3.5,0,0,1-3.5,3.5A3.5,3.5,0,0,1,26.565-955.514Zm-12,0v-98.4a3.5,3.5,0,0,1,3.5-3.5,3.5,3.5,0,0,1,3.5,3.5v98.4a3.5,3.5,0,0,1-3.5,3.5A3.5,3.5,0,0,1,14.565-955.514Zm-12,0v-113.774a3.5,3.5,0,0,1,3.5-3.5,3.5,3.5,0,0,1,3.5,3.5v113.774a3.5,3.5,0,0,1-3.5,3.5A3.5,3.5,0,0,1,2.565-955.514Zm-12,0V-1078.07a3.5,3.5,0,0,1,3.5-3.5,3.5,3.5,0,0,1,3.5,3.5v122.557a3.5,3.5,0,0,1-3.5,3.5A3.5,3.5,0,0,1-9.435-955.514Zm-12,0V-1094.54a3.5,3.5,0,0,1,3.5-3.5,3.5,3.5,0,0,1,3.5,3.5v139.026a3.5,3.5,0,0,1-3.5,3.5A3.5,3.5,0,0,1-21.435-955.514Zm-12,0v-153.3a3.5,3.5,0,0,1,3.5-3.5,3.5,3.5,0,0,1,3.5,3.5v153.3a3.5,3.5,0,0,1-3.5,3.5A3.5,3.5,0,0,1-33.435-955.514Zm-12,0V-1116.5a3.5,3.5,0,0,1,3.5-3.5,3.5,3.5,0,0,1,3.5,3.5v160.985a3.5,3.5,0,0,1-3.5,3.5A3.5,3.5,0,0,1-45.435-955.514Zm-12,0v-154.4a3.5,3.5,0,0,1,3.5-3.5,3.5,3.5,0,0,1,3.5,3.5v154.4a3.5,3.5,0,0,1-3.5,3.5A3.5,3.5,0,0,1-57.435-955.514Zm-12,0v-145.614a3.5,3.5,0,0,1,3.5-3.5,3.5,3.5,0,0,1,3.5,3.5v145.614a3.5,3.5,0,0,1-3.5,3.5A3.5,3.5,0,0,1-69.435-955.514Zm-12,0v-132.439a3.5,3.5,0,0,1,3.5-3.5,3.5,3.5,0,0,1,3.5,3.5v132.439a3.5,3.5,0,0,1-3.5,3.5A3.5,3.5,0,0,1-81.435-955.514Zm-12,0v-101.7a3.5,3.5,0,0,1,3.5-3.5,3.5,3.5,0,0,1,3.5,3.5v101.7a3.5,3.5,0,0,1-3.5,3.5A3.5,3.5,0,0,1-93.435-955.514Zm-12,0v-80.835a3.5,3.5,0,0,1,3.5-3.5,3.5,3.5,0,0,1,3.5,3.5v80.835a3.5,3.5,0,0,1-3.5,3.5A3.5,3.5,0,0,1-105.435-955.514Z" transform="translate(130 1147.053)" fill="#1a1b46"/>
        </g>
        <path id="Path_13" data-name="Path 13" d="M273.639,1433.764s45.737-17.553,76.029-17.683,54.526-1.4,75.318-14.985,37.442-20.665,50.074-2.519,22.358,45.7,42.711,45.58,41.056-25.384,58.246-25.982,26.327-5.847,40.982-33.332,27.254-65.786,48.412-42.67,35.977,42.824,56.8,46.671,30.129,14.191,39.375,22.8,16.568,16.892,29.057,16.821,25.061-15.726,30-21.478,23.121-30.932,44.123-4.944,25.965,29.791,50.694-20.264c5.665-11.737,20.16-56.5,49.791-14.786s31.544,51.214,48.348,51.143,32.853-21.677,72.81-1.911,54.966,8.944,67.157.518a41.144,41.144,0,0,1,25.719-7.707c3.1-.023,7.346-.772,15.861-12.086s20.224-29.723,35.149-31.556,24.69,26.04,43.138,25.505,23.288-16.105,41.6-15.218c5.261.308,12.461,9.371,25.484,31.021s22.778,21.868,34.559,17.289,28.618-8.643,51.114,1.934,34.6,15.356,45.189-8.244,17.816-32.666,23.27-34.607,14.728-12.31,21.868-29,18.379-32.871,28.771-18.451,17.835,25.1,21.261,29.211,10.066-.636,23.03,15.268,24.719,36.182,35.947,36.182,23.89-15.221,28.318-19.432,19.209-20.494,34.486-4.648,20.646,20.882,34.906-.693,23.732-34.791,27.734-39.9,9.916-13.717,29.893,7.057,25.408,17.945,44.682,6.1c3.114-2.114,16.636-9.81,31.534,25.549s30.957,50.694,85.048,34.83c3.595-1.172,15.576-7.337,15.576-7.337v46.1H273.639Z" transform="translate(-153.639 -33.908)" fill="#070829"/>
        <g id="Group_9" data-name="Group 9" transform="translate(127.669 1277.092)" opacity="0.3">
          <path id="Union_3" data-name="Union 3" d="M1525.331-1098.092v-150.5a2.5,2.5,0,0,1,2.5-2.5,2.5,2.5,0,0,1,2.5,2.5v150.5Zm-12,0v-150.5a2.5,2.5,0,0,1,2.5-2.5,2.5,2.5,0,0,1,2.5,2.5v150.5Zm-12,0v-150.5a2.5,2.5,0,0,1,2.5-2.5,2.5,2.5,0,0,1,2.5,2.5v150.5Zm-12,0v-150.5a2.5,2.5,0,0,1,2.5-2.5,2.5,2.5,0,0,1,2.5,2.5v150.5Zm-12,0v-150.5a2.5,2.5,0,0,1,2.5-2.5,2.5,2.5,0,0,1,2.5,2.5v150.5Zm-12,0v-150.5a2.5,2.5,0,0,1,2.5-2.5,2.5,2.5,0,0,1,2.5,2.5v150.5Zm-12,0v-150.5a2.5,2.5,0,0,1,2.5-2.5,2.5,2.5,0,0,1,2.5,2.5v150.5Zm-12,0v-150.5a2.5,2.5,0,0,1,2.5-2.5,2.5,2.5,0,0,1,2.5,2.5v150.5Zm-12,0v-150.5a2.5,2.5,0,0,1,2.5-2.5,2.5,2.5,0,0,1,2.5,2.5v150.5Zm-12,0v-150.5a2.5,2.5,0,0,1,2.5-2.5,2.5,2.5,0,0,1,2.5,2.5v150.5Zm-12,0v-150.5a2.5,2.5,0,0,1,2.5-2.5,2.5,2.5,0,0,1,2.5,2.5v150.5Zm-12,0v-150.5a2.5,2.5,0,0,1,2.5-2.5,2.5,2.5,0,0,1,2.5,2.5v150.5Zm-12,0v-150.5a2.5,2.5,0,0,1,2.5-2.5,2.5,2.5,0,0,1,2.5,2.5v150.5Zm-12,0v-150.5a2.5,2.5,0,0,1,2.5-2.5,2.5,2.5,0,0,1,2.5,2.5v150.5Zm-12,0v-150.5a2.5,2.5,0,0,1,2.5-2.5,2.5,2.5,0,0,1,2.5,2.5v150.5Zm-12,0v-151a2,2,0,0,1,2-2,2,2,0,0,1,2,2v151Zm-12,0v-151a2,2,0,0,1,2-2,2,2,0,0,1,2,2v151Zm-12,0v-151a2,2,0,0,1,2-2,2,2,0,0,1,2,2v151Zm-13,0v-150.5a2.5,2.5,0,0,1,2.5-2.5,2.5,2.5,0,0,1,2.5,2.5v150.5Zm-12,0v-150.5a2.5,2.5,0,0,1,2.5-2.5,2.5,2.5,0,0,1,2.5,2.5v150.5Zm-12,0v-150.5a2.5,2.5,0,0,1,2.5-2.5,2.5,2.5,0,0,1,2.5,2.5v150.5Zm-12,0v-150.5a2.5,2.5,0,0,1,2.5-2.5,2.5,2.5,0,0,1,2.5,2.5v150.5Zm-12,0v-150.5a2.5,2.5,0,0,1,2.5-2.5,2.5,2.5,0,0,1,2.5,2.5v150.5Zm-12,0v-150.5a2.5,2.5,0,0,1,2.5-2.5,2.5,2.5,0,0,1,2.5,2.5v150.5Zm-12,0v-150.5a2.5,2.5,0,0,1,2.5-2.5,2.5,2.5,0,0,1,2.5,2.5v150.5Zm-12,0v-150.5a2.5,2.5,0,0,1,2.5-2.5,2.5,2.5,0,0,1,2.5,2.5v150.5Zm-12,0v-150.5a2.5,2.5,0,0,1,2.5-2.5,2.5,2.5,0,0,1,2.5,2.5v150.5Zm-12,0v-150.5a2.5,2.5,0,0,1,2.5-2.5,2.5,2.5,0,0,1,2.5,2.5v150.5Zm-12,0v-150.5a2.5,2.5,0,0,1,2.5-2.5,2.5,2.5,0,0,1,2.5,2.5v150.5Zm-12,0v-150.5a2.5,2.5,0,0,1,2.5-2.5,2.5,2.5,0,0,1,2.5,2.5v150.5Zm-12,0v-150.5a2.5,2.5,0,0,1,2.5-2.5,2.5,2.5,0,0,1,2.5,2.5v150.5Zm-12,0v-150.5a2.5,2.5,0,0,1,2.5-2.5,2.5,2.5,0,0,1,2.5,2.5v150.5Zm-12,0v-150.5a2.5,2.5,0,0,1,2.5-2.5,2.5,2.5,0,0,1,2.5,2.5v150.5Zm-12,0v-151a2,2,0,0,1,2-2,2,2,0,0,1,2,2v151Zm-12,0v-151a2,2,0,0,1,2-2,2,2,0,0,1,2,2v151Zm-12,0v-151a2,2,0,0,1,2-2,2,2,0,0,1,2,2v151Zm-13,0v-150.5a2.5,2.5,0,0,1,2.5-2.5,2.5,2.5,0,0,1,2.5,2.5v150.5Zm-12,0v-150.5a2.5,2.5,0,0,1,2.5-2.5,2.5,2.5,0,0,1,2.5,2.5v150.5Zm-12,0v-150.5a2.5,2.5,0,0,1,2.5-2.5,2.5,2.5,0,0,1,2.5,2.5v150.5Zm-12,0v-150.5a2.5,2.5,0,0,1,2.5-2.5,2.5,2.5,0,0,1,2.5,2.5v150.5Zm-12,0v-150.5a2.5,2.5,0,0,1,2.5-2.5,2.5,2.5,0,0,1,2.5,2.5v150.5Zm-12,0v-150.5a2.5,2.5,0,0,1,2.5-2.5,2.5,2.5,0,0,1,2.5,2.5v150.5Zm-12,0v-150.5a2.5,2.5,0,0,1,2.5-2.5,2.5,2.5,0,0,1,2.5,2.5v150.5Zm-12,0v-150.5a2.5,2.5,0,0,1,2.5-2.5,2.5,2.5,0,0,1,2.5,2.5v150.5Zm-12,0v-150.5a2.5,2.5,0,0,1,2.5-2.5,2.5,2.5,0,0,1,2.5,2.5v150.5Zm-12,0v-150.5a2.5,2.5,0,0,1,2.5-2.5,2.5,2.5,0,0,1,2.5,2.5v150.5Zm-12,0v-150.5a2.5,2.5,0,0,1,2.5-2.5,2.5,2.5,0,0,1,2.5,2.5v150.5Zm-12,0v-150.5a2.5,2.5,0,0,1,2.5-2.5,2.5,2.5,0,0,1,2.5,2.5v150.5Zm-12,0v-150.5a2.5,2.5,0,0,1,2.5-2.5,2.5,2.5,0,0,1,2.5,2.5v150.5Zm-12,0v-150.5a2.5,2.5,0,0,1,2.5-2.5,2.5,2.5,0,0,1,2.5,2.5v150.5Zm-12,0v-151a2,2,0,0,1,2-2,2,2,0,0,1,2,2v151Zm-12,0v-151a2,2,0,0,1,2-2,2,2,0,0,1,2,2v151Zm-12,0v-151a2,2,0,0,1,2-2,2,2,0,0,1,2,2v151Zm-13,0v-150.5a2.5,2.5,0,0,1,2.5-2.5,2.5,2.5,0,0,1,2.5,2.5v150.5Zm-12,0v-150.5a2.5,2.5,0,0,1,2.5-2.5,2.5,2.5,0,0,1,2.5,2.5v150.5Zm-12,0v-150.5a2.5,2.5,0,0,1,2.5-2.5,2.5,2.5,0,0,1,2.5,2.5v150.5Zm-12,0v-150.5a2.5,2.5,0,0,1,2.5-2.5,2.5,2.5,0,0,1,2.5,2.5v150.5Zm-12,0v-150.5a2.5,2.5,0,0,1,2.5-2.5,2.5,2.5,0,0,1,2.5,2.5v150.5Zm-12,0v-150.5a2.5,2.5,0,0,1,2.5-2.5,2.5,2.5,0,0,1,2.5,2.5v150.5Zm-12,0v-150.5a2.5,2.5,0,0,1,2.5-2.5,2.5,2.5,0,0,1,2.5,2.5v150.5Zm-12,0v-150.5a2.5,2.5,0,0,1,2.5-2.5,2.5,2.5,0,0,1,2.5,2.5v150.5Zm-12,0v-150.5a2.5,2.5,0,0,1,2.5-2.5,2.5,2.5,0,0,1,2.5,2.5v150.5Zm-12,0v-150.5a2.5,2.5,0,0,1,2.5-2.5,2.5,2.5,0,0,1,2.5,2.5v150.5Zm-12,0v-150.5a2.5,2.5,0,0,1,2.5-2.5,2.5,2.5,0,0,1,2.5,2.5v150.5Zm-12,0v-150.5a2.5,2.5,0,0,1,2.5-2.5,2.5,2.5,0,0,1,2.5,2.5v150.5Zm-12,0v-150.5a2.5,2.5,0,0,1,2.5-2.5,2.5,2.5,0,0,1,2.5,2.5v150.5Zm-12,0v-150.5a2.5,2.5,0,0,1,2.5-2.5,2.5,2.5,0,0,1,2.5,2.5v150.5Zm-12,0v-150.5a2.5,2.5,0,0,1,2.5-2.5,2.5,2.5,0,0,1,2.5,2.5v150.5Zm-12,0v-151a2,2,0,0,1,2-2,2,2,0,0,1,2,2v151Zm-12,0v-151a2,2,0,0,1,2-2,2,2,0,0,1,2,2v151Zm-12,0v-151a2,2,0,0,1,2-2,2,2,0,0,1,2,2v151Zm-13,0v-150.5a2.5,2.5,0,0,1,2.5-2.5,2.5,2.5,0,0,1,2.5,2.5v150.5Zm-12,0v-150.5a2.5,2.5,0,0,1,2.5-2.5,2.5,2.5,0,0,1,2.5,2.5v150.5Zm-12,0v-150.5a2.5,2.5,0,0,1,2.5-2.5,2.5,2.5,0,0,1,2.5,2.5v150.5Zm-12,0v-150.5a2.5,2.5,0,0,1,2.5-2.5,2.5,2.5,0,0,1,2.5,2.5v150.5Zm-12,0v-150.5a2.5,2.5,0,0,1,2.5-2.5,2.5,2.5,0,0,1,2.5,2.5v150.5Zm-12,0v-150.5a2.5,2.5,0,0,1,2.5-2.5,2.5,2.5,0,0,1,2.5,2.5v150.5Zm-12,0v-150.5a2.5,2.5,0,0,1,2.5-2.5,2.5,2.5,0,0,1,2.5,2.5v150.5Zm-12,0v-150.5a2.5,2.5,0,0,1,2.5-2.5,2.5,2.5,0,0,1,2.5,2.5v150.5Zm-12,0v-150.5a2.5,2.5,0,0,1,2.5-2.5,2.5,2.5,0,0,1,2.5,2.5v150.5Zm-12,0v-150.5a2.5,2.5,0,0,1,2.5-2.5,2.5,2.5,0,0,1,2.5,2.5v150.5Zm-12,0v-150.5a2.5,2.5,0,0,1,2.5-2.5,2.5,2.5,0,0,1,2.5,2.5v150.5Zm-12,0v-150.5a2.5,2.5,0,0,1,2.5-2.5,2.5,2.5,0,0,1,2.5,2.5v150.5Zm-12,0v-150.5a2.5,2.5,0,0,1,2.5-2.5,2.5,2.5,0,0,1,2.5,2.5v150.5Zm-12,0v-150.5a2.5,2.5,0,0,1,2.5-2.5,2.5,2.5,0,0,1,2.5,2.5v150.5Zm-12,0v-151a2,2,0,0,1,2-2,2,2,0,0,1,2,2v151Zm-12,0v-151a2,2,0,0,1,2-2,2,2,0,0,1,2,2v151Zm-12,0v-151a2,2,0,0,1,2-2,2,2,0,0,1,2,2v151Zm-12,0v-151a2,2,0,0,1,2-2,2,2,0,0,1,2,2v151Zm-13,0v-150.5a2.5,2.5,0,0,1,2.5-2.5,2.5,2.5,0,0,1,2.5,2.5v150.5Zm-12,0v-150.5a2.5,2.5,0,0,1,2.5-2.5,2.5,2.5,0,0,1,2.5,2.5v150.5Zm-12,0v-150.5a2.5,2.5,0,0,1,2.5-2.5,2.5,2.5,0,0,1,2.5,2.5v150.5Zm-12,0v-150.5a2.5,2.5,0,0,1,2.5-2.5,2.5,2.5,0,0,1,2.5,2.5v150.5Zm-12,0v-150.5a2.5,2.5,0,0,1,2.5-2.5,2.5,2.5,0,0,1,2.5,2.5v150.5Zm-12,0v-150.5a2.5,2.5,0,0,1,2.5-2.5,2.5,2.5,0,0,1,2.5,2.5v150.5Zm-12,0v-150.5a2.5,2.5,0,0,1,2.5-2.5,2.5,2.5,0,0,1,2.5,2.5v150.5Zm-12,0v-150.5a2.5,2.5,0,0,1,2.5-2.5,2.5,2.5,0,0,1,2.5,2.5v150.5Zm-12,0v-150.5a2.5,2.5,0,0,1,2.5-2.5,2.5,2.5,0,0,1,2.5,2.5v150.5Zm-12,0v-150.5a2.5,2.5,0,0,1,2.5-2.5,2.5,2.5,0,0,1,2.5,2.5v150.5Zm-12,0v-150.5a2.5,2.5,0,0,1,2.5-2.5,2.5,2.5,0,0,1,2.5,2.5v150.5Zm-12,0v-150.5a2.5,2.5,0,0,1,2.5-2.5,2.5,2.5,0,0,1,2.5,2.5v150.5Zm-12,0v-150.5a2.5,2.5,0,0,1,2.5-2.5,2.5,2.5,0,0,1,2.5,2.5v150.5Zm-12,0v-150.5a2.5,2.5,0,0,1,2.5-2.5,2.5,2.5,0,0,1,2.5,2.5v150.5Zm-12,0v-151a2,2,0,0,1,2-2,2,2,0,0,1,2,2v151Zm-12,0v-151a2,2,0,0,1,2-2,2,2,0,0,1,2,2v151Zm-12,0v-151a2,2,0,0,1,2-2,2,2,0,0,1,2,2v151Zm-13,0v-150.5a2.5,2.5,0,0,1,2.5-2.5,2.5,2.5,0,0,1,2.5,2.5v150.5Zm-12,0v-150.5a2.5,2.5,0,0,1,2.5-2.5,2.5,2.5,0,0,1,2.5,2.5v150.5Zm-12,0v-150.5a2.5,2.5,0,0,1,2.5-2.5,2.5,2.5,0,0,1,2.5,2.5v150.5Zm-12,0v-150.5a2.5,2.5,0,0,1,2.5-2.5,2.5,2.5,0,0,1,2.5,2.5v150.5Zm-12,0v-150.5a2.5,2.5,0,0,1,2.5-2.5,2.5,2.5,0,0,1,2.5,2.5v150.5Zm-12,0v-150.5a2.5,2.5,0,0,1,2.5-2.5,2.5,2.5,0,0,1,2.5,2.5v150.5Zm-12,0v-150.5a2.5,2.5,0,0,1,2.5-2.5,2.5,2.5,0,0,1,2.5,2.5v150.5Zm-12,0v-150.5a2.5,2.5,0,0,1,2.5-2.5,2.5,2.5,0,0,1,2.5,2.5v150.5Zm-12,0v-150.5a2.5,2.5,0,0,1,2.5-2.5,2.5,2.5,0,0,1,2.5,2.5v150.5Zm-12,0v-150.5a2.5,2.5,0,0,1,2.5-2.5,2.5,2.5,0,0,1,2.5,2.5v150.5Zm-12,0v-150.5a2.5,2.5,0,0,1,2.5-2.5,2.5,2.5,0,0,1,2.5,2.5v150.5Zm-12,0v-150.5a2.5,2.5,0,0,1,2.5-2.5,2.5,2.5,0,0,1,2.5,2.5v150.5Zm-12,0v-150.5a2.5,2.5,0,0,1,2.5-2.5,2.5,2.5,0,0,1,2.5,2.5v150.5Zm-12,0v-150.5a2.5,2.5,0,0,1,2.5-2.5,2.5,2.5,0,0,1,2.5,2.5v150.5Zm-12,0v-150.5a2.5,2.5,0,0,1,2.5-2.5,2.5,2.5,0,0,1,2.5,2.5v150.5Zm-12,0v-151a2,2,0,0,1,2-2,2,2,0,0,1,2,2v151Zm-12,0v-151a2,2,0,0,1,2-2,2,2,0,0,1,2,2v151Zm-12,0v-151a2,2,0,0,1,2-2,2,2,0,0,1,2,2v151Zm-13,0v-150.5a2.5,2.5,0,0,1,2.5-2.5,2.5,2.5,0,0,1,2.5,2.5v150.5Zm-12,0v-150.5a2.5,2.5,0,0,1,2.5-2.5,2.5,2.5,0,0,1,2.5,2.5v150.5Zm-12,0v-150.5a2.5,2.5,0,0,1,2.5-2.5,2.5,2.5,0,0,1,2.5,2.5v150.5Zm-12,0v-150.5a2.5,2.5,0,0,1,2.5-2.5,2.5,2.5,0,0,1,2.5,2.5v150.5Zm-12,0v-150.5a2.5,2.5,0,0,1,2.5-2.5,2.5,2.5,0,0,1,2.5,2.5v150.5Zm-12,0v-150.5a2.5,2.5,0,0,1,2.5-2.5,2.5,2.5,0,0,1,2.5,2.5v150.5Zm-12,0v-150.5a2.5,2.5,0,0,1,2.5-2.5,2.5,2.5,0,0,1,2.5,2.5v150.5Zm-12,0v-150.5a2.5,2.5,0,0,1,2.5-2.5,2.5,2.5,0,0,1,2.5,2.5v150.5Zm-12,0v-150.5a2.5,2.5,0,0,1,2.5-2.5,2.5,2.5,0,0,1,2.5,2.5v150.5Zm-12,0v-150.5a2.5,2.5,0,0,1,2.5-2.5,2.5,2.5,0,0,1,2.5,2.5v150.5Zm-12,0v-150.5a2.5,2.5,0,0,1,2.5-2.5,2.5,2.5,0,0,1,2.5,2.5v150.5Zm-12,0v-150.5a2.5,2.5,0,0,1,2.5-2.5,2.5,2.5,0,0,1,2.5,2.5v150.5Zm-12,0v-150.5a2.5,2.5,0,0,1,2.5-2.5,2.5,2.5,0,0,1,2.5,2.5v150.5Zm-12,0v-150.5a2.5,2.5,0,0,1,2.5-2.5,2.5,2.5,0,0,1,2.5,2.5v150.5Zm-12,0v-151a2,2,0,0,1,2-2,2,2,0,0,1,2,2v151Z" transform="translate(138 1251.092)" fill="#121334"/>
        </g>
      </g>
    </g>
  </g>
</svg>
