<svg width="38" height="38" viewBox="0 0 38 38" fill="none" xmlns="http://www.w3.org/2000/svg">
<path d="M18.9924 0C8.51176 0 0 8.51176 0 18.9924C0 29.4882 8.51176 37.9849 18.9924 37.9849C29.4882 37.9849 37.9849 29.4731 37.9849 18.9924C38 8.51176 29.4882 0 18.9924 0ZM17.4779 8.42088C17.4779 7.57274 18.1594 6.89119 19.0076 6.89119C19.8557 6.89119 20.5373 7.57274 20.5373 8.42088V17.2204C20.5373 18.0686 19.8557 18.7501 19.0076 18.7501C18.1594 18.7501 17.4779 18.0686 17.4779 17.2204V8.42088ZM18.9924 31.1088C12.6616 31.1088 7.51216 25.9593 7.51216 19.6285C7.51216 14.9637 10.3141 10.9502 14.3276 9.14787V12.4041C11.9649 13.9338 10.3898 16.5994 10.3898 19.6285C10.3898 24.3691 14.2519 28.2312 18.9924 28.2312C23.733 28.2312 27.5951 24.3691 27.5951 19.6285C27.5951 16.5994 26.0199 13.949 23.6572 12.4041V9.14787C27.6708 10.935 30.4727 14.9637 30.4727 19.6285C30.4878 25.9593 25.3232 31.1088 18.9924 31.1088Z" fill="white" fill-opacity="0.51"/>
</svg>
