<svg width="138" height="32" viewBox="0 0 138 32" fill="none" xmlns="http://www.w3.org/2000/svg">
<g clip-path="url(#clip0_1223_32766)">
<path d="M34.4432 18.8309L28.3844 24.912C27.8711 25.4272 27.8716 26.2647 28.3854 26.7792L33.0154 31.4158C33.8045 32.1947 35.0945 32.1947 35.8836 31.4158L50.0746 17.4093C50.8637 16.6305 50.8637 15.3571 50.0746 14.5783L35.8836 0.584122C35.0945 -0.194707 33.8045 -0.194707 33.0154 0.584122L28.3854 5.22078C27.8716 5.73535 27.8711 6.57281 28.3844 7.08795L34.4432 13.1691C36.0214 14.7267 36.0214 17.2733 34.4432 18.8309Z" fill="#797F80" fill-opacity="0.5"/>
<path d="M16.2232 18.8309L22.282 24.912C22.7953 25.4272 22.7948 26.2647 22.281 26.7792L17.651 31.4158C16.8619 32.1947 15.5719 32.1947 14.7828 31.4158L0.591812 17.4093C-0.197271 16.6305 -0.197271 15.3571 0.591812 14.5783L14.7828 0.584122C15.5719 -0.194707 16.8619 -0.194707 17.651 0.584122L22.281 5.22078C22.7948 5.73535 22.7953 6.57281 22.282 7.08795L16.2232 13.1691C14.645 14.7267 14.645 17.2733 16.2232 18.8309Z" fill="#CAD1D2" fill-opacity="0.5"/>
<path d="M17.8128 17.157C17.1737 16.518 17.1737 15.482 17.8128 14.843L24.1765 8.47926C24.8155 7.84025 25.8515 7.84025 26.4905 8.47926L32.8542 14.843C33.4932 15.482 33.4932 16.518 32.8542 17.157L26.4905 23.5207C25.8515 24.1598 24.8155 24.1598 24.1765 23.5207L17.8128 17.157Z" fill="#CAD1D2" fill-opacity="0.5"/>
<path d="M77.8051 25.6003H73.2829L70.7889 19.0761C70.5879 18.5622 70.2773 18.2043 69.857 18.0025C69.4551 17.8006 68.9435 17.6996 68.3223 17.6996H65.5542V25.6003H61.3335V6H70.0215C72.2871 6 74.0046 6.49551 75.174 7.48654C76.3433 8.47757 76.928 9.89988 76.928 11.7535C76.928 13.0565 76.5809 14.176 75.8866 15.112C75.2105 16.0479 74.233 16.7178 72.954 17.1215C74.1051 17.3601 74.9365 18.1585 75.4481 19.5165L77.8051 25.6003ZM69.3911 14.4237C70.6153 14.4237 71.5106 14.2219 72.077 13.8181C72.6434 13.396 72.9266 12.7445 72.9266 11.8636C72.9266 10.9827 72.6434 10.3403 72.077 9.93659C71.5106 9.51448 70.6153 9.30343 69.3911 9.30343H65.4993V14.4237H69.3911Z" fill="#555559"/>
<path d="M94.3864 11.6435V25.6004H90.3028V23.5358C89.8826 24.2515 89.2888 24.8113 88.5214 25.215C87.754 25.6188 86.8861 25.8207 85.9177 25.8207C84.7118 25.8207 83.6429 25.527 82.7111 24.9398C81.7975 24.3525 81.0758 23.5174 80.546 22.4347C80.0344 21.3335 79.7786 20.0672 79.7786 18.6357C79.7786 17.2042 80.0344 15.9287 80.546 14.8092C81.0758 13.6897 81.8067 12.8272 82.7385 12.2216C83.6703 11.5976 84.7301 11.2856 85.9177 11.2856C86.8861 11.2856 87.754 11.4966 88.5214 11.9187C89.2888 12.3408 89.8826 12.9098 90.3028 13.6255V11.6435H94.3864ZM87.1236 22.6549C88.1468 22.6549 88.9325 22.3062 89.4806 21.6088C90.0287 20.9114 90.3028 19.902 90.3028 18.5807C90.3028 17.2593 90.0287 16.2499 89.4806 15.5525C88.9325 14.8368 88.1468 14.4789 87.1236 14.4789C86.1004 14.4789 85.3056 14.8459 84.7392 15.58C84.1728 16.3141 83.8896 17.3327 83.8896 18.6357C83.8896 19.9387 84.1637 20.9389 84.7118 21.6363C85.2782 22.3154 86.0822 22.6549 87.1236 22.6549Z" fill="#555559"/>
<path d="M114.719 11.2856C116.309 11.2856 117.487 11.7719 118.255 12.7446C119.04 13.6989 119.433 15.1671 119.433 17.1492V25.6004H115.295V17.2868C115.295 16.3141 115.139 15.6167 114.829 15.1946C114.518 14.7542 114.007 14.534 113.294 14.534C112.454 14.534 111.805 14.8276 111.348 15.4149C110.891 16.0021 110.663 16.828 110.663 17.8924V25.6004H106.524V17.2868C106.524 16.3325 106.36 15.6351 106.031 15.1946C105.721 14.7542 105.218 14.534 104.524 14.534C103.683 14.534 103.026 14.8276 102.55 15.4149C102.094 16.0021 101.865 16.828 101.865 17.8924V25.6004H97.7269V15.6351C97.7269 14.1486 97.6538 12.818 97.5076 11.6435H101.399L101.646 13.7356C102.066 12.9465 102.651 12.3408 103.4 11.9187C104.167 11.4966 105.045 11.2856 106.031 11.2856C108.096 11.2856 109.466 12.1481 110.142 13.8733C110.599 13.0841 111.229 12.4601 112.033 12.0013C112.855 11.5242 113.751 11.2856 114.719 11.2856Z" fill="#555559"/>
<path d="M131.194 11.2856C132.382 11.2856 133.442 11.5976 134.374 12.2216C135.305 12.8272 136.027 13.6897 136.539 14.8092C137.069 15.9287 137.333 17.2042 137.333 18.6357C137.333 20.0672 137.078 21.3335 136.566 22.4347C136.055 23.5174 135.333 24.3525 134.401 24.9398C133.469 25.527 132.4 25.8207 131.194 25.8207C130.226 25.8207 129.358 25.6188 128.591 25.215C127.823 24.8113 127.239 24.2515 126.837 23.5358V32.0001H122.698V15.6351C122.698 14.1486 122.625 12.818 122.479 11.6435H126.371L126.645 13.9559C127.01 13.13 127.595 12.4785 128.399 12.0013C129.221 11.5242 130.153 11.2856 131.194 11.2856ZM130.016 22.6549C131.039 22.6549 131.825 22.3154 132.373 21.6363C132.921 20.9389 133.195 19.9387 133.195 18.6357C133.195 17.3327 132.912 16.3141 132.345 15.58C131.797 14.8459 131.021 14.4789 130.016 14.4789C128.993 14.4789 128.198 14.8368 127.631 15.5525C127.083 16.2499 126.809 17.2593 126.809 18.5807C126.809 19.902 127.083 20.9114 127.631 21.6088C128.198 22.3062 128.993 22.6549 130.016 22.6549Z" fill="#555559"/>
</g>
<defs>
<clipPath id="clip0_1223_32766">
<rect width="138" height="32" fill="white"/>
</clipPath>
</defs>
</svg>
