<svg width="44" height="67" viewBox="0 0 44 67" fill="none" xmlns="http://www.w3.org/2000/svg">
<path d="M39.8371 28.6394V16.9698C39.8371 7.83098 32.4055 0.399414 23.2667 0.399414H20.8163C11.6775 0.399414 4.24593 7.83098 4.24593 16.9698V28.6394H0.570312V66.681H43.5328V28.6394H39.8371ZM11.6172 16.9899C11.6172 11.9083 15.7548 7.79081 20.8163 7.79081H23.2667C28.3483 7.79081 32.4658 11.9284 32.4658 16.9899V28.6595H11.6172V16.9899ZM26.2594 55.1319H17.8437L19.7719 48.0016C18.1249 47.158 17.0001 45.4709 17.0001 43.5025C17.0001 40.7107 19.2697 38.441 22.0616 38.441C24.8535 38.441 27.1231 40.7107 27.1231 43.5025C27.1231 45.4709 25.9782 47.158 24.3513 48.0016L26.2594 55.1319Z" fill="url(#paint0_linear_2_10262)"/>
<defs>
<linearGradient id="paint0_linear_2_10262" x1="45.3789" y1="74.966" x2="-0.274331" y2="74.9354" gradientUnits="userSpaceOnUse">
<stop stop-color="#128A74"/>
<stop offset="0.411458" stop-color="#19B497"/>
<stop offset="1" stop-color="#56C6B1"/>
</linearGradient>
</defs>
</svg>
