<svg width="39" height="39" viewBox="0 0 39 39" fill="none" xmlns="http://www.w3.org/2000/svg">
<g clip-path="url(#clip0_2_9221)">
<path d="M9.1759 35.4082C18.1767 40.893 29.9235 38.0438 35.4083 29.0429C40.8931 20.0421 38.0438 8.29535 29.043 2.81056C20.0422 -2.67422 8.29542 0.174993 2.81063 9.17584C-2.67415 18.1767 0.175062 29.9234 9.1759 35.4082ZM14.3697 28.5825C11.1768 26.6324 9.38479 23.2687 9.31191 19.785L12.2329 19.6051C12.2458 22.176 13.5213 24.6721 15.878 26.1042C19.4814 28.2981 24.1983 27.1463 26.3922 23.5581C28.5861 19.9548 27.4343 15.253 23.8461 13.0591C20.6076 11.0785 16.4691 11.8353 14.0782 14.6323L15.2641 15.3483L12.8898 16.548L10.0286 17.9601L10.0001 15.8151L9.95787 12.1184L11.5391 13.0783C14.7832 8.89776 20.7172 7.73182 25.3545 10.5504C28.5777 12.5158 30.3697 15.9251 30.4121 19.4392C30.4121 19.4848 30.412 19.5305 30.412 19.5761C30.4103 21.4473 29.9217 23.3484 28.8857 25.0665C25.8386 30.0382 19.3414 31.6144 14.3697 28.5825Z" fill="white" fill-opacity="0.51"/>
</g>
<defs>
<clipPath id="clip0_2_9221">
<rect width="38.1684" height="38.1684" fill="white" transform="translate(0.0351562) rotate(0.0524744)"/>
</clipPath>
</defs>
</svg>
