<svg width="117" height="117" viewBox="0 0 117 117" fill="none" xmlns="http://www.w3.org/2000/svg">
<g clip-path="url(#clip0_2_12272)">
<path d="M58.5009 116.809C90.7043 116.809 116.81 90.7034 116.81 58.5C116.81 26.2966 90.7043 0.190552 58.5009 0.190552C26.2974 0.190552 0.191406 26.2966 0.191406 58.5C0.191406 90.7034 26.2974 116.809 58.5009 116.809Z" fill="white" stroke="#E62400" stroke-width="0.5" stroke-linecap="round" stroke-linejoin="round"/>
<path d="M58.5003 112.998C88.5989 112.998 112.999 88.5986 112.999 58.5C112.999 28.4013 88.5989 4.00159 58.5003 4.00159C28.4017 4.00159 4.00195 28.4013 4.00195 58.5C4.00195 88.5986 28.4017 112.998 58.5003 112.998Z" fill="#DBDCDD"/>
<path d="M58.5013 111.474C87.758 111.474 111.475 87.7566 111.475 58.4999C111.475 29.2432 87.758 5.526 58.5013 5.526C29.2446 5.526 5.52734 29.2432 5.52734 58.4999C5.52734 87.7566 29.2446 111.474 58.5013 111.474Z" fill="#E62400"/>
<path d="M6.05273 65.8858C9.65039 91.6411 31.7546 111.474 58.5007 111.474C85.4527 111.474 107.694 91.3362 111.025 65.2913C60.8026 41.5712 18.9875 59.0106 6.05273 65.8858Z" fill="#EA2600"/>
<path d="M59.7002 93.3258C59.7002 93.3258 77.5208 93.9966 80.6611 72.9366C83.8014 55.3066 89.8077 48.3551 85.806 45.4968C81.8806 42.6919 75.3942 50.6037 73.5268 56.3965C73.4886 56.5108 73.4505 56.6252 73.42 56.7395C73.42 52.6388 73.42 37.1125 73.42 37.1125C73.42 37.1125 73.8012 28.9187 68.5571 29.0178C64.647 29.2083 64.9366 33.0194 64.9366 33.0194C64.9366 33.0194 65.8894 23.6823 58.7398 23.6823C58.7398 23.6823 53.7854 23.6823 53.6863 31.8761C53.6863 30.5422 52.6344 26.632 48.4423 26.632C44.2501 26.632 43.7699 32.7297 43.869 37.8747C43.9681 36.6323 42.8171 33.774 40.439 33.8731C38.0609 33.9722 34.8139 35.3975 36.4374 47.4024C38.0609 59.4073 37.7712 58.7441 37.8703 67.9822C37.9694 77.2202 41.689 92.9447 59.7002 93.3258Z" fill="#E7E7E8" stroke="#E62400" stroke-width="0.5"/>
<path d="M44.2655 59.0261C44.235 59.0261 44.1969 59.0185 44.1664 58.9956C44.1054 58.9575 44.0673 58.8889 44.0749 58.8127C44.639 53.2714 43.7015 37.6612 43.6938 37.5011C43.6862 37.3944 43.7701 37.303 43.8692 37.303C43.9835 37.2954 44.0673 37.3792 44.0673 37.4783C44.0749 37.6307 44.9744 52.654 44.4789 58.5002C47.4287 57.212 62.6349 54.9635 70.6 56.93C70.6991 56.9529 70.7677 57.0596 70.7372 57.1587C70.7144 57.2578 70.6077 57.3264 70.5086 57.2959C61.8803 55.1617 45.9119 57.9514 44.3646 58.9804C44.3341 59.0109 44.3036 59.0261 44.2655 59.0261Z" fill="#E62400"/>
<path d="M50.173 74.0799C50.173 74.0799 50.1654 74.0799 50.173 74.0799C50.0586 74.0799 49.9824 73.9885 49.9824 73.8817C50.2644 65.1925 60.7068 62.3113 66.835 61.9759C71.8732 61.7015 73.3291 56.3965 73.3443 56.3432C73.3748 56.2441 73.4739 56.1831 73.5806 56.206C73.6797 56.2365 73.7407 56.3356 73.7178 56.4423C73.7026 56.4956 72.1781 62.0674 66.8655 62.3647C60.8669 62.6924 50.6455 65.4898 50.3712 73.897C50.3559 73.9961 50.2721 74.0799 50.173 74.0799Z" fill="#E62400"/>
<path d="M64.9519 56.5184C64.8452 56.5184 64.7613 56.4346 64.7613 56.3279L64.7461 33.0803C64.7461 32.8745 65.1272 32.8669 65.1272 33.0803L65.1424 56.3279C65.1424 56.427 65.0586 56.5184 64.9519 56.5184Z" fill="#E62400"/>
<path d="M53.6945 56.9301C53.5877 56.9301 53.5039 56.8463 53.5039 56.7395V31.2054C53.5039 30.9919 53.885 30.9919 53.885 31.2054V56.7395C53.885 56.8386 53.8012 56.9301 53.6945 56.9301Z" fill="#E62400"/>
<path d="M51.4833 74.3616C51.4833 74.3616 51.994 65.4056 66.6666 63.2485C73.0845 62.3567 73.336 60.1387 75.051 56.3276C76.766 52.5165 79.1136 46.4188 83.0542 46.2282C86.9949 46.0377 86.5452 49.7878 83.4353 58.4237C80.3255 67.0596 79.1136 92.1517 60.2488 91.8316C45.7057 91.5114 38.2055 78.6224 39.2269 63.1875C38.9067 56.4572 34.3334 37.2112 39.547 35.2371C43.3581 33.7127 43.419 48.3853 43.419 57.2118C43.419 61.2134 44.6919 59.9405 45.5761 59.628C46.4603 59.3155 60.5003 55.6873 70.1576 57.974C71.1103 58.5456 70.5387 60.6417 66.0263 61.2134C61.514 61.785 52.436 63.0579 49.6997 70.299C48.0533 75.1924 50.9116 76.0766 51.4833 74.3616Z" fill="white"/>
<path d="M46.2162 56.5184C46.2162 56.5184 45.7055 42.7985 45.5836 37.5926C45.454 32.3866 45.6445 28.5756 48.6324 28.0039C50.2864 27.6838 52.253 29.2768 52.3825 38.1642C52.5121 47.0593 52.131 55.4436 52.131 55.4436C52.131 55.4436 47.1004 56.0687 46.2162 56.5184Z" fill="white"/>
<path d="M55.2938 54.9251C55.2938 54.9251 55.0423 36.4414 55.1033 33.1411C55.1643 29.8407 55.8045 24.8177 58.9753 24.6957C62.1538 24.5661 63.6096 28.3772 63.9907 32.8895C63.9907 38.7967 63.9907 53.6599 63.8002 54.6736C63.8002 54.6736 63.8611 54.9251 61.3839 54.9251C58.9067 54.9251 57.3823 55.2453 56.1094 55.3063C54.8518 55.3749 55.2938 54.9251 55.2938 54.9251Z" fill="white"/>
<path d="M65.9648 33.3315C65.9648 33.3315 65.9648 53.9113 65.9648 54.6735C65.9648 55.4358 66.5365 55.4967 68.1905 55.8169C69.8445 56.137 72.5732 56.8992 72.5732 55.6873C72.5732 54.483 72.7028 36.7615 72.5123 35.0465C72.3217 33.3315 71.4299 29.9625 69.5244 29.772C67.6188 29.5814 66.224 30.2217 65.9648 33.3315Z" fill="white"/>
</g>
<defs>
<clipPath id="clip0_2_12272">
<rect width="117" height="117" fill="white"/>
</clipPath>
</defs>
</svg>
