<svg width="103" height="77" viewBox="0 0 103 77" fill="none" xmlns="http://www.w3.org/2000/svg">
<g clip-path="url(#clip0_2_12364)">
<path d="M51.5066 17C29.3911 17 10.1385 29.1095 0 47.0065C10.1385 64.9035 29.3911 77 51.5066 77C73.6221 77 92.8747 64.9035 103.013 47.0065C92.8747 29.1095 73.6089 17 51.5066 17Z" fill="white" fill-opacity="0.94"/>
<path d="M77.0758 46.5372C77.0758 60.5498 65.6241 71.9163 51.4933 71.9163C37.3756 71.9163 25.9238 60.5498 25.9238 46.5372C25.9238 32.5115 37.3756 21.145 51.4933 21.145C65.6241 21.1581 77.0758 32.5246 77.0758 46.5372Z" fill="url(#paint0_linear_2_12364)"/>
<path d="M66.609 46.5372C66.609 54.8274 59.8457 61.5404 51.4933 61.5404C43.154 61.5404 36.3906 54.8274 36.3906 46.5372C36.3906 38.26 43.154 31.5339 51.4933 31.5339C59.8457 31.5339 66.609 38.26 66.609 46.5372Z" fill="#474F59"/>
<path d="M49.7208 37.5822C49.7208 41.206 46.7659 44.1388 43.115 44.1388C39.4641 44.1388 36.4961 41.206 36.4961 37.5822C36.4961 33.9585 39.4641 31.0256 43.115 31.0256C46.7528 31.0256 49.7208 33.9585 49.7208 37.5822Z" fill="white"/>
<path d="M58.2179 39.9806C58.2179 41.623 56.8652 42.9656 55.2105 42.9656C53.5558 42.9656 52.2031 41.623 52.2031 39.9806C52.2031 38.3382 53.5558 36.9956 55.2105 36.9956C56.8652 36.9956 58.2179 38.3252 58.2179 39.9806Z" fill="white"/>
</g>
<rect x="51" width="2" height="21" fill="#C4C4C4"/>
<rect x="69.9785" y="4" width="2" height="21" transform="rotate(22.3293 69.9785 4)" fill="#C4C4C4"/>
<rect x="31" y="4.84131" width="2" height="21" transform="rotate(-24.8794 31 4.84131)" fill="#C4C4C4"/>
<defs>
<linearGradient id="paint0_linear_2_12364" x1="23.6384" y1="20.9102" x2="67.2901" y2="66.8584" gradientUnits="userSpaceOnUse">
<stop stop-color="#4BBBFF"/>
<stop offset="0.390625" stop-color="#0017AC"/>
<stop offset="0.390725" stop-color="#000AFF" stop-opacity="0.760417"/>
<stop offset="0.588542" stop-color="#7000FF"/>
<stop offset="0.802083" stop-color="#FF00F5"/>
<stop offset="0.822917" stop-color="#FFE600"/>
<stop offset="1" stop-color="#FF6B00"/>
</linearGradient>
<clipPath id="clip0_2_12364">
<rect width="103" height="60" fill="white" transform="translate(0 17)"/>
</clipPath>
</defs>
</svg>
