<svg width="66" height="63" viewBox="0 0 66 63" fill="none" xmlns="http://www.w3.org/2000/svg">
<g clip-path="url(#clip0_2_10270)">
<path d="M32.9492 53.2702C23.4146 53.2689 13.8799 53.2689 4.34387 53.2689C1.45996 53.2689 0.414374 52.2363 0.414374 49.3634C0.41164 34.2491 0.41164 19.1348 0.413007 4.02047C0.413007 1.13537 1.55154 0.00541295 4.45731 0.00541295C23.3736 0.00135324 42.2912 0 61.2088 0C64.2485 0 65.387 1.08259 65.3898 4.05566C65.398 19.1199 65.372 34.1842 65.4116 49.2498C65.4185 51.8737 64.2553 53.3392 61.2498 53.3081C51.8163 53.2093 42.3828 53.2716 32.9492 53.2702ZM55.5585 27.2353C55.5804 25.2298 55.5134 25.1391 53.5986 24.6993C52.9575 24.5518 52.3083 24.4368 51.67 24.2771C50.3087 23.9347 50.0026 23.1661 50.7338 21.9455C50.9661 21.5571 51.2258 21.1849 51.4691 20.8033C52.8783 18.5881 52.8113 18.2633 50.7652 16.6056C50.2144 16.159 49.7032 16.09 49.1087 16.4716C48.3433 16.9615 47.5724 17.4487 46.7934 17.9169C45.4539 18.7207 44.642 18.3716 44.2798 16.8424C44.0844 16.0129 43.8766 15.1847 43.729 14.3457C43.5787 13.4972 43.0771 13.1508 42.2502 13.1616C41.7937 13.167 41.3372 13.1684 40.882 13.1548C39.9075 13.1237 39.3909 13.577 39.231 14.5351C39.0915 15.3741 38.866 16.1996 38.6583 17.0264C38.3248 18.3513 37.5197 18.672 36.3019 17.9737C35.8632 17.722 35.4368 17.45 35.009 17.1807C32.9465 15.883 32.9465 15.883 31.2585 17.6246C31.1533 17.7328 31.0494 17.8438 30.9387 17.948C30.4166 18.4379 30.3646 18.9738 30.7555 19.5678C31.1423 20.1565 31.5141 20.756 31.8982 21.346C33.1829 23.3217 32.967 23.8792 30.7063 24.407C30.0161 24.568 29.33 24.7467 28.6343 24.8847C27.8088 25.0484 27.411 25.5302 27.4151 26.3557C27.4179 26.8577 27.4179 27.3598 27.4192 27.8605C27.4206 28.6778 27.7951 29.1623 28.6357 29.326C29.6293 29.5182 30.6202 29.7374 31.5934 30.0094C32.5747 30.2841 32.9123 31.0785 32.4449 31.9675C32.1415 32.544 31.7574 33.0786 31.4075 33.6307C30.1501 35.6145 30.1501 35.6145 31.8941 37.2384C31.9679 37.3074 32.0554 37.3629 32.121 37.4373C32.7401 38.141 33.3989 38.1018 34.1356 37.6011C34.8873 37.0909 35.6609 36.6078 36.4509 36.1558C37.4842 35.5645 38.3275 35.9068 38.6337 37.0435C38.8688 37.915 39.0943 38.7946 39.2296 39.6851C39.3799 40.6797 39.9526 41.0559 40.8957 41.0437C41.3522 41.0383 41.8087 41.0464 42.2638 41.0397C43.0771 41.0261 43.5814 40.6865 43.7318 39.8326C43.8958 38.8961 44.1117 37.9637 44.3701 37.0476C44.694 35.8974 45.5154 35.5658 46.5514 36.1491C47.3004 36.5699 48.0549 36.9975 48.7383 37.5118C49.6595 38.2033 50.4017 38.0558 51.1124 37.2343C51.342 36.9678 51.5949 36.7161 51.8655 36.4901C52.6336 35.8473 52.6268 35.1558 52.0855 34.3722C51.6003 33.6686 51.1397 32.9459 50.7024 32.2111C49.9875 31.0122 50.3155 30.2652 51.7069 29.9147C52.3931 29.7415 53.0915 29.617 53.7844 29.4654C55.4437 29.0973 55.5394 28.9769 55.5585 27.2353ZM11.3172 27.5222C11.3158 27.5222 11.3145 27.5222 11.3131 27.5222C11.3131 30.5318 11.3076 33.5427 11.3145 36.5523C11.3199 38.9272 12.3928 40.2954 14.2735 40.3454C16.1993 40.3969 17.4035 38.9557 17.4322 36.5645C17.4349 36.3642 17.4322 36.1626 17.4322 35.9623C17.4322 32.3004 17.4322 28.6386 17.4322 24.9754C17.4322 22.7182 17.439 20.461 17.4267 18.2024C17.4199 16.8722 17.0235 15.7097 15.7456 15.0575C13.6448 13.9857 11.3664 15.4229 11.3295 17.8898C11.2803 21.0997 11.3172 24.3109 11.3172 27.5222Z" fill="url(#paint0_linear_2_10270)"/>
<path d="M44.1895 56.2284C49.2342 56.2284 54.0685 56.2284 59.2172 56.2284C58.9001 57.8902 58.7498 59.4775 58.2673 60.9566C57.8532 62.2259 56.7215 62.9337 55.3342 62.9594C52.9095 63.004 50.4807 63.0243 48.0561 62.958C46.4487 62.9134 45.1858 61.8403 44.8318 60.2664C44.5489 59.0052 44.4191 57.7115 44.1895 56.2284Z" fill="#0F6858"/>
<path d="M21.537 56.2852C21.3511 57.6628 21.2322 58.901 21.0053 60.1203C20.7087 61.7158 19.387 62.8971 17.725 62.9459C15.299 63.0162 12.8675 63.0162 10.4415 62.9486C8.90519 62.9053 7.59035 61.8592 7.24865 60.3896C6.94659 59.0905 6.85912 57.7413 6.6582 56.2852C11.7057 56.2852 16.5619 56.2852 21.537 56.2852Z" fill="#0F6858"/>
<path d="M46.5706 27.2015C46.5187 29.9161 44.1883 32.1516 41.4411 32.1232C38.7253 32.0948 36.384 29.7347 36.4263 27.0688C36.4701 24.3515 38.7881 22.0686 41.4985 22.0767C44.325 22.0862 46.6253 24.4097 46.5706 27.2015Z" fill="url(#paint1_linear_2_10270)"/>
</g>
<defs>
<linearGradient id="paint0_linear_2_10270" x1="68.2046" y1="59.972" x2="-0.865704" y2="59.885" gradientUnits="userSpaceOnUse">
<stop stop-color="#128A74"/>
<stop offset="0.411458" stop-color="#19B497"/>
<stop offset="1" stop-color="#56C6B1"/>
</linearGradient>
<linearGradient id="paint1_linear_2_10270" x1="47.0075" y1="33.3793" x2="36.2263" y2="33.368" gradientUnits="userSpaceOnUse">
<stop stop-color="#128A74"/>
<stop offset="0.411458" stop-color="#19B497"/>
<stop offset="1" stop-color="#56C6B1"/>
</linearGradient>
<clipPath id="clip0_2_10270">
<rect width="65" height="63" fill="white" transform="translate(0.412109)"/>
</clipPath>
</defs>
</svg>
