<?xml version="1.0" standalone="no"?>
<!DOCTYPE svg PUBLIC "-//W3C//DTD SVG 20010904//EN"
 "http://www.w3.org/TR/2001/REC-SVG-20010904/DTD/svg10.dtd">
<svg version="1.0" xmlns="http://www.w3.org/2000/svg"
 width="512.000000pt" height="512.000000pt" viewBox="0 0 512.000000 512.000000"
 preserveAspectRatio="xMidYMid meet">

<g transform="translate(0.000000,512.000000) scale(0.100000,-0.100000)"
fill="#000000" stroke="none">
<path d="M3095 4151 c-49 -22 -99 -77 -115 -126 -30 -90 14 -203 98 -252 l47
-28 627 -5 626 -5 -846 -854 -847 -853 -327 418 c-179 231 -337 429 -350 441
-52 49 -132 65 -210 41 -47 -14 23 51 -963 -882 -423 -401 -782 -747 -797
-768 -119 -174 75 -398 267 -309 25 12 315 279 785 725 410 388 749 705 754
703 5 -2 161 -196 345 -432 358 -456 363 -462 457 -473 104 -11 52 -58 1091
986 l952 957 1 -621 0 -622 28 -53 c39 -76 102 -114 187 -114 85 0 148 38 187
114 l28 53 0 895 c0 680 -3 906 -12 937 -16 53 -84 121 -134 135 -27 7 -330
11 -939 11 -849 0 -902 -1 -940 -19z"/>
</g>
</svg>
