<svg width="45" height="45" viewBox="0 0 45 45" fill="none" xmlns="http://www.w3.org/2000/svg">
<path d="M22.5 45C34.9257 45 45 34.9257 45 22.5C45 10.0725 34.9257 0 22.5 0C10.0725 0 0 10.0725 0 22.5C0 34.9257 10.0725 45 22.5 45ZM35.8332 14.8739L25.4701 25.3141L25.4737 25.3159L22.4211 28.6106L14.7053 21.4651L17.7543 18.1704L22.1718 22.2615L32.6443 11.7118L35.8332 14.8739ZM21.8167 9.85014C24.9051 9.85014 27.7371 10.9603 29.9324 12.8005L27.7425 15.0066C26.1104 13.7134 24.0532 12.935 21.8167 12.935C16.5418 12.935 12.2517 17.227 12.2517 22.5C12.2517 27.773 16.5436 32.065 21.8167 32.065C27.0897 32.065 31.3816 27.773 31.3816 22.5C31.3816 22.0283 31.335 21.5692 31.2668 21.1172L33.8262 18.5399C34.2352 19.7864 34.4665 21.1172 34.4665 22.5C34.4665 29.4859 28.8025 35.1499 21.8167 35.1499C14.8308 35.1499 9.16501 29.4859 9.16501 22.5C9.1668 15.5124 14.8308 9.85014 21.8167 9.85014Z" fill="#128A74"/>
</svg>
