<svg width="36" height="38" viewBox="0 0 36 38" fill="none" xmlns="http://www.w3.org/2000/svg">
<g clip-path="url(#clip0_777_14339)">
<path d="M5.9998 18.4426C6.1918 18.4426 6.3838 18.3919 6.5518 18.3159C6.7198 18.2146 6.8638 18.0879 6.9838 17.9359L12.6478 9.60128L17.1358 14.6426C17.2558 14.7693 17.3758 14.8706 17.5198 14.9466C17.6638 15.0226 17.8318 15.0479 17.9758 15.0479C18.1438 15.0479 18.2878 15.0226 18.4558 14.9719C18.6238 14.9213 18.7438 14.8199 18.8638 14.6933L28.8478 4.28128V7.59994C28.8478 7.67594 28.8478 7.77728 28.8718 7.85328C28.8958 7.92928 28.8958 8.00528 28.9438 8.10661C28.9678 8.18261 29.0158 8.25861 29.0638 8.33461C29.1118 8.41061 29.1598 8.46128 29.2078 8.53728C29.2558 8.58794 29.3278 8.66394 29.3998 8.68928C29.4718 8.73994 29.5438 8.76528 29.6158 8.81594C29.6878 8.86661 29.7598 8.86661 29.8558 8.89194C29.9278 8.91728 30.0238 8.91728 30.0958 8.91728C30.1678 8.91728 30.2638 8.91728 30.3358 8.89194C30.4078 8.86661 30.4798 8.84128 30.5758 8.81594C30.6718 8.79061 30.7198 8.73994 30.7918 8.68928C30.8638 8.63861 30.9118 8.58794 30.9838 8.53728C31.0318 8.48661 31.0798 8.41061 31.1278 8.33461C31.1758 8.25861 31.1998 8.18261 31.2478 8.10661C31.2958 8.03061 31.2958 7.95461 31.3198 7.85328C31.3438 7.77728 31.3438 7.67594 31.3438 7.59994V1.26661C31.3438 1.19061 31.3438 1.08928 31.3198 1.01328C31.2958 0.937276 31.2718 0.861276 31.2478 0.785276C31.2238 0.709276 31.1758 0.633276 31.1278 0.557276C31.0798 0.481276 31.0318 0.430609 30.9838 0.354609C30.9358 0.303943 30.8638 0.253276 30.7918 0.202609C30.7198 0.151943 30.6478 0.126609 30.5758 0.0759427C30.5038 0.0506094 30.4318 0.025276 30.3598 -5.72912e-05C30.2878 -0.0253906 30.2158 -0.0253906 30.1198 -0.0253906H24.1198C24.0478 -0.0253906 23.9758 -0.0253906 23.8798 -5.72912e-05C23.8078 0.025276 23.7358 0.0506094 23.6638 0.0759427C23.5918 0.101276 23.5198 0.151943 23.4718 0.202609C23.3998 0.253276 23.3518 0.303943 23.3038 0.354609C23.1358 0.430609 23.0878 0.506609 23.0398 0.582609C22.9918 0.658609 22.9678 0.734609 22.9438 0.810609C22.9198 0.886609 22.8958 0.937276 22.8718 1.01328C22.8478 1.08928 22.8478 1.16528 22.8478 1.26661C22.8478 1.34261 22.8478 1.41861 22.8718 1.51994C22.8958 1.59594 22.9198 1.67194 22.9438 1.74794C22.9678 1.82394 23.0158 1.89994 23.0398 1.97594C23.0878 2.05194 23.1358 2.10261 23.1838 2.17861C23.2318 2.22928 23.3038 2.27994 23.3518 2.33061C23.4238 2.38128 23.4718 2.40661 23.5438 2.45728C23.6158 2.48261 23.6878 2.50794 23.7598 2.53328C23.8318 2.55861 23.9038 2.55861 23.9998 2.55861H27.0478L18.0238 11.9573L13.3918 6.73861C13.3198 6.66261 13.2718 6.61194 13.1998 6.56128C13.1278 6.51061 13.0558 6.45994 12.9598 6.43461C12.8878 6.40928 12.7918 6.38394 12.6958 6.35861C12.6238 6.33328 12.5278 6.33328 12.4558 6.33328C12.3598 6.33328 12.2878 6.35861 12.1918 6.38394C12.0958 6.40928 12.0238 6.43461 11.9518 6.48528C11.8798 6.53594 11.8078 6.58661 11.7358 6.63728C11.6638 6.68794 11.6158 6.76394 11.5678 6.83994L5.0158 16.4413C4.9438 16.5426 4.8958 16.6439 4.8718 16.7453C4.8238 16.8466 4.7998 16.9733 4.7998 17.0746C4.7998 17.2013 4.7998 17.3026 4.8238 17.4293C4.8478 17.5559 4.8718 17.6573 4.9438 17.7586C5.0158 17.8599 5.0638 17.9613 5.1358 18.0373C5.2078 18.1133 5.3038 18.1893 5.3998 18.2653C5.4958 18.3159 5.5918 18.3666 5.7118 18.3919C5.7838 18.4173 5.8798 18.4426 5.9998 18.4426Z" fill="#128A74"/>
<path d="M0 32.9332V34.1999C0 34.4532 0.024 34.7066 0.072 34.9346C0.12 35.1879 0.192 35.4159 0.288 35.6439C0.384 35.8719 0.48 36.0999 0.624 36.3026C0.744 36.5052 0.912 36.7079 1.08 36.8852C1.248 37.0626 1.44 37.2146 1.632 37.3666C1.824 37.4932 2.04 37.6199 2.256 37.7212C2.472 37.8226 2.688 37.8986 2.928 37.9492C3.168 37.9999 3.384 38.0252 3.624 38.0252H32.424C32.664 38.0252 32.904 37.9999 33.12 37.9492C33.36 37.8986 33.576 37.8226 33.792 37.7212C34.008 37.6199 34.224 37.5186 34.416 37.3666C34.608 37.2399 34.8 37.0626 34.968 36.8852C35.136 36.7079 35.28 36.5052 35.424 36.3026C35.568 36.0999 35.664 35.8719 35.76 35.6439C35.856 35.4159 35.928 35.1879 35.976 34.9346C36.024 34.6812 36.048 34.4532 36.048 34.1999V32.9332H0Z" fill="#F2F2F2"/>
<path d="M10.8004 25.3333C10.8004 25.1559 10.7764 25.0039 10.7524 24.8519C10.7284 24.6999 10.6804 24.5226 10.6084 24.3706C10.5364 24.2186 10.4644 24.0666 10.3924 23.9399C10.2964 23.8133 10.2004 23.6613 10.1044 23.5599C9.98439 23.4333 9.86439 23.3319 9.74439 23.2559C9.62439 23.1546 9.48039 23.0786 9.33639 23.0279C9.19239 22.9519 9.04839 22.9266 8.88039 22.8759C8.71239 22.8253 8.56839 22.7999 8.40039 22.7999H4.80039C4.63239 22.7999 4.48839 22.8253 4.32039 22.8506C4.17639 22.8759 4.00839 22.9266 3.86439 23.0026C3.72039 23.0786 3.57639 23.1546 3.45639 23.2306C3.33639 23.3319 3.19239 23.4333 3.09639 23.5346C2.97639 23.6613 2.88039 23.7879 2.80839 23.9146C2.71239 24.0413 2.64039 24.1933 2.59239 24.3453C2.52039 24.4973 2.49639 24.6493 2.44839 24.8266C2.40039 25.0039 2.40039 25.1559 2.40039 25.3333V30.3999H10.8004V25.3333Z" fill="#F2F2F2"/>
<path d="M16.1998 17.7333C16.0318 17.7333 15.8878 17.7586 15.7198 17.7839C15.5758 17.8093 15.4078 17.8599 15.2638 17.9359C15.1198 18.0119 14.9758 18.0879 14.8558 18.1639C14.7358 18.2653 14.5918 18.3666 14.4958 18.4679C14.3758 18.5946 14.2798 18.7213 14.2078 18.8479C14.1118 18.9746 14.0398 19.1266 13.9918 19.2786C13.9198 19.4306 13.8958 19.5826 13.8478 19.7599C13.8238 19.9119 13.7998 20.0893 13.7998 20.2666V30.3999H22.1998V20.2666C22.1998 20.0893 22.1758 19.9373 22.1518 19.7599C22.1278 19.6079 22.0798 19.4306 22.0078 19.2786C21.9358 19.1266 21.8638 18.9746 21.7918 18.8479C21.6958 18.7213 21.5998 18.5693 21.5038 18.4679C21.3838 18.3413 21.2638 18.2399 21.1438 18.1639C21.0238 18.0626 20.8798 17.9866 20.7358 17.9359C20.5918 17.8599 20.4478 17.8346 20.2798 17.7839C20.1358 17.7586 19.9678 17.7333 19.7998 17.7333H16.1998Z" fill="#F2F2F2" fill-opacity="0.87"/>
<path d="M27.5996 12.6666C27.4316 12.6666 27.2876 12.692 27.1436 12.7173C26.9996 12.7426 26.8316 12.7933 26.6876 12.8693C26.5436 12.9453 26.3996 13.0213 26.2796 13.0973C26.1596 13.1986 26.0156 13.3 25.9196 13.4013C25.7996 13.528 25.7036 13.6546 25.6316 13.7813C25.5356 13.908 25.4636 14.06 25.4156 14.212C25.3436 14.364 25.3196 14.516 25.2716 14.6933C25.2476 14.8453 25.2236 15.0226 25.2236 15.1746V30.3746H33.6236V15.2C33.6236 15.0226 33.5996 14.8706 33.5756 14.6933C33.5516 14.5413 33.5036 14.364 33.4316 14.212C33.3596 14.06 33.2876 13.908 33.2156 13.7813C33.1196 13.6546 33.0236 13.5026 32.9276 13.4013C32.8076 13.2746 32.6876 13.1733 32.5676 13.0973C32.4476 12.996 32.3036 12.92 32.1596 12.8693C32.0156 12.8186 31.8716 12.768 31.7036 12.7173C31.5596 12.692 31.3916 12.6666 31.2236 12.6666H27.5996Z" fill="#F2F2F2" fill-opacity="0.62"/>
</g>
<defs>
<clipPath id="clip0_777_14339">
<rect width="36" height="38" fill="white"/>
</clipPath>
</defs>
</svg>
