<svg width="133" height="137" viewBox="0 0 133 137" fill="none" xmlns="http://www.w3.org/2000/svg">
<g filter="url(#filter0_d_2_9846)">
<path d="M39.712 68.5823H36.3964C35.037 68.5823 33.9096 69.6927 33.9096 71.0316C33.9096 72.3706 35.037 73.481 36.3964 73.481H39.712C41.0714 73.481 42.1987 72.3706 42.1987 71.0316C42.1987 69.6927 41.0714 68.5823 39.712 68.5823ZM115.342 29.3271C115.839 29.817 116.469 30.0456 117.099 30.0456C117.729 30.0456 118.359 29.817 118.856 29.3271C119.818 28.38 119.818 26.8124 118.856 25.8653L110.169 17.3089C109.208 16.3618 107.616 16.3618 106.655 17.3089C105.693 18.256 105.693 19.8235 106.655 20.7706L115.342 29.3271ZM69.5527 44.0886C70.9121 44.0886 72.0395 42.9782 72.0395 41.6392V38.3734C72.0395 37.0344 70.9121 35.924 69.5527 35.924C68.1933 35.924 67.066 37.0344 67.066 38.3734V41.6392C67.066 42.9782 68.1933 44.0886 69.5527 44.0886ZM79.9638 14.043C79.997 13.9124 80.0301 13.8144 80.0301 13.6838V5.71519C80.0301 5.42127 79.9638 5.16 79.8644 4.89873H86.1309C87.4903 4.89873 88.6176 3.78835 88.6176 2.44937C88.6176 1.11038 87.4903 0 86.1309 0H52.9745C51.6151 0 50.4878 1.11038 50.4878 2.44937C50.4878 3.78835 51.6151 4.89873 52.9745 4.89873H58.6443C58.5448 5.16 58.4785 5.42127 58.4785 5.71519V13.6838C58.4785 13.8471 58.5448 13.9777 58.578 14.1084C31.3566 19.203 10.7002 42.7823 10.7002 71.0316C10.7002 103.004 37.0927 129 69.5527 129C102.013 129 128.405 103.004 128.405 71.0316C128.405 42.5863 107.45 18.8765 79.9638 14.043ZM75.2225 4.89873C75.123 5.16 75.0567 5.42127 75.0567 5.71519V13.3246C73.2331 13.1613 71.4095 13.0633 69.5527 13.0633C67.497 13.0633 65.4745 13.1613 63.452 13.3899V5.71519C63.452 5.42127 63.3856 5.16 63.2862 4.89873H75.2225ZM69.5527 124.101C39.8446 124.101 15.6736 100.293 15.6736 71.0316C15.6736 41.7699 39.8446 17.962 69.5527 17.962C99.2608 17.962 123.432 41.7699 123.432 71.0316C123.432 100.293 99.2608 124.101 69.5527 124.101ZM69.5527 97.9747C68.1933 97.9747 67.066 99.0851 67.066 100.424V103.69C67.066 105.029 68.1933 106.139 69.5527 106.139C70.9121 106.139 72.0395 105.029 72.0395 103.69V100.424C72.0395 99.0851 70.9121 97.9747 69.5527 97.9747ZM69.5527 26.1266C44.4202 26.1266 23.9627 46.2767 23.9627 71.0316C23.9627 95.7866 44.4202 115.937 69.5527 115.937C94.6852 115.937 115.143 95.7866 115.143 71.0316C115.143 46.2767 94.6852 26.1266 69.5527 26.1266ZM69.5527 111.038C47.1722 111.038 28.9362 93.0759 28.9362 71.0316C28.9362 48.9873 47.1722 31.0253 69.5527 31.0253C91.9333 31.0253 110.169 48.9873 110.169 71.0316C110.169 93.0759 91.9333 111.038 69.5527 111.038ZM99.3934 68.5823H79.4996C79.1018 68.5823 78.7039 68.7129 78.3723 68.8762C77.3776 64.9572 73.8299 62.0506 69.5527 62.0506C64.513 62.0506 60.4347 66.0676 60.4347 71.0316C60.4347 75.9957 64.513 80.0127 69.5527 80.0127C73.8299 80.0127 77.3776 77.1061 78.3723 73.1871C78.7039 73.3504 79.1018 73.481 79.4996 73.481H99.3934C100.753 73.481 101.88 72.3706 101.88 71.0316C101.88 69.6927 100.753 68.5823 99.3934 68.5823ZM69.5527 75.1139C67.2649 75.1139 65.4082 73.2851 65.4082 71.0316C65.4082 68.7782 67.2649 66.9494 69.5527 66.9494C71.8405 66.9494 73.6973 68.7782 73.6973 71.0316C73.6973 73.2851 71.8405 75.1139 69.5527 75.1139Z" fill="#F66897"/>
</g>
<rect y="73.2891" width="51.9257" height="46.8938" transform="rotate(-77.5217 0 73.2891)" fill="#0F1015"/>
<g filter="url(#filter1_d_2_9846)">
<path d="M16.3862 53.6278L32.486 10.106L61.8643 37.5111L16.3862 53.6278Z" fill="#F66897"/>
</g>
<defs>
<filter id="filter0_d_2_9846" x="6.7002" y="0" width="125.705" height="137" filterUnits="userSpaceOnUse" color-interpolation-filters="sRGB">
<feFlood flood-opacity="0" result="BackgroundImageFix"/>
<feColorMatrix in="SourceAlpha" type="matrix" values="0 0 0 0 0 0 0 0 0 0 0 0 0 0 0 0 0 0 127 0" result="hardAlpha"/>
<feOffset dy="4"/>
<feGaussianBlur stdDeviation="2"/>
<feComposite in2="hardAlpha" operator="out"/>
<feColorMatrix type="matrix" values="0 0 0 0 0 0 0 0 0 0 0 0 0 0 0 0 0 0 0.25 0"/>
<feBlend mode="normal" in2="BackgroundImageFix" result="effect1_dropShadow_2_9846"/>
<feBlend mode="normal" in="SourceGraphic" in2="effect1_dropShadow_2_9846" result="shape"/>
</filter>
<filter id="filter1_d_2_9846" x="12.3857" y="10.106" width="53.4785" height="51.5219" filterUnits="userSpaceOnUse" color-interpolation-filters="sRGB">
<feFlood flood-opacity="0" result="BackgroundImageFix"/>
<feColorMatrix in="SourceAlpha" type="matrix" values="0 0 0 0 0 0 0 0 0 0 0 0 0 0 0 0 0 0 127 0" result="hardAlpha"/>
<feOffset dy="4"/>
<feGaussianBlur stdDeviation="2"/>
<feComposite in2="hardAlpha" operator="out"/>
<feColorMatrix type="matrix" values="0 0 0 0 0 0 0 0 0 0 0 0 0 0 0 0 0 0 0.25 0"/>
<feBlend mode="normal" in2="BackgroundImageFix" result="effect1_dropShadow_2_9846"/>
<feBlend mode="normal" in="SourceGraphic" in2="effect1_dropShadow_2_9846" result="shape"/>
</filter>
</defs>
</svg>
