<svg width="113" height="113" viewBox="0 0 113 113" fill="none" xmlns="http://www.w3.org/2000/svg">
<path d="M113 56.5C113 87.7126 87.7126 113 56.5 113C25.2874 113 0 87.7126 0 56.5C0 25.3075 25.2874 0 56.5 0C87.7126 0 113 25.3075 113 56.5Z" fill="url(#paint0_linear_2_12411)"/>
<path d="M74.8371 51.6394V39.9698C74.8371 30.831 67.4055 23.3994 58.2667 23.3994H55.8163C46.6775 23.3994 39.2459 30.831 39.2459 39.9698V51.6394H35.5703V89.681H78.5328V51.6394H74.8371ZM46.6172 39.9899C46.6172 34.9083 50.7548 30.7908 55.8163 30.7908H58.2667C63.3483 30.7908 67.4658 34.9284 67.4658 39.9899V51.6595H46.6172V39.9899ZM61.2594 78.1319H52.8437L54.7719 71.0016C53.1249 70.158 52.0001 68.4709 52.0001 66.5025C52.0001 63.7107 54.2697 61.441 57.0616 61.441C59.8535 61.441 62.1231 63.7107 62.1231 66.5025C62.1231 68.4709 60.9782 70.158 59.3513 71.0016L61.2594 78.1319Z" fill="url(#paint1_linear_2_12411)"/>
<defs>
<linearGradient id="paint0_linear_2_12411" x1="11" y1="2.40298e-07" x2="105" y2="113" gradientUnits="userSpaceOnUse">
<stop stop-color="#424953"/>
<stop offset="1" stop-color="#424953" stop-opacity="0"/>
</linearGradient>
<linearGradient id="paint1_linear_2_12411" x1="80.3789" y1="97.966" x2="34.7257" y2="97.9354" gradientUnits="userSpaceOnUse">
<stop stop-color="#128A74"/>
<stop offset="0.411458" stop-color="#19B497"/>
<stop offset="1" stop-color="#56C6B1"/>
</linearGradient>
</defs>
</svg>
