<svg width="162" height="162" viewBox="0 0 162 162" fill="none" xmlns="http://www.w3.org/2000/svg">
<path d="M81 162C125.888 162 162 125.888 162 81C162 36.1122 125.888 0 81 0C36.1122 0 0 36.1122 0 81C0 125.888 36.1122 162 81 162Z" fill="#2775CA"/>
<path d="M103.275 93.8248C103.275 82.0126 96.1875 77.9626 82.0125 76.2754C71.8875 74.9251 69.8625 72.2254 69.8625 67.4998C69.8625 62.7743 73.2378 59.7376 79.9875 59.7376C86.0625 59.7376 89.4378 61.7626 91.125 66.8251C91.4628 67.8376 92.4753 68.5123 93.4878 68.5123H98.8872C100.237 68.5123 101.25 67.4998 101.25 66.1504V65.8126C99.8997 58.3873 93.8247 52.6501 86.0625 51.9753V43.8753C86.0625 42.5251 85.05 41.5126 83.3628 41.1748H78.3003C76.95 41.1748 75.9375 42.1873 75.5997 43.8753V51.6376C65.4747 52.9879 59.0628 59.7376 59.0628 68.1754C59.0628 79.3129 65.8125 83.6998 79.9875 85.3879C89.4378 87.0751 92.4753 89.1001 92.4753 94.5004C92.4753 99.9007 87.7497 103.613 81.3378 103.613C72.5622 103.613 69.5247 99.8998 68.5122 94.8373C68.1753 93.4879 67.1628 92.8123 66.1503 92.8123H60.4122C59.0628 92.8123 58.0503 93.8248 58.0503 95.1751V95.5129C59.3997 103.95 64.8 110.025 75.9375 111.713V119.813C75.9375 121.162 76.95 122.175 78.6372 122.513H83.6997C85.05 122.513 86.0625 121.5 86.4003 119.813V111.713C96.5253 110.025 103.275 102.937 103.275 93.8248Z" fill="white"/>
<path d="M63.7875 129.262C37.4625 119.813 23.9622 90.45 33.7503 64.462C38.8128 50.287 49.9503 39.4872 63.7875 34.4247C65.1378 33.75 65.8125 32.7375 65.8125 31.0495V26.3247C65.8125 24.9745 65.1378 23.962 63.7875 23.625C63.4497 23.625 62.775 23.625 62.4372 23.962C30.375 34.087 12.8247 68.175 22.9497 100.237C29.0247 119.137 43.5375 133.65 62.4372 139.725C63.7875 140.399 65.1378 139.725 65.4747 138.374C65.8125 138.038 65.8125 137.7 65.8125 137.025V132.299C65.8125 131.287 64.8 129.938 63.7875 129.262ZM99.5628 23.962C98.2125 23.2872 96.8622 23.962 96.5253 25.3122C96.1875 25.65 96.1875 25.987 96.1875 26.6625V31.3872C96.1875 32.7375 97.2 34.087 98.2125 34.7625C124.538 44.212 138.038 73.5745 128.25 99.5625C123.187 113.738 112.05 124.537 98.2125 129.6C96.8622 130.274 96.1875 131.287 96.1875 132.975V137.7C96.1875 139.05 96.8622 140.063 98.2125 140.399C98.5503 140.399 99.225 140.399 99.5628 140.063C131.625 129.938 149.175 95.8495 139.05 63.7872C132.975 44.5497 118.125 30.037 99.5628 23.962Z" fill="white"/>
</svg>
