<svg width="162" height="162" viewBox="0 0 162 162" fill="none" xmlns="http://www.w3.org/2000/svg">
<path d="M81 162C125.735 162 162 125.735 162 81C162 36.2649 125.735 0 81 0C36.2649 0 0 36.2649 0 81C0 125.735 36.2649 162 81 162Z" fill="#27A17C"/>
<path d="M90.9253 54.6128C90.9253 58.6797 90.9253 62.5046 90.9253 66.3779C94.266 66.6442 97.5099 66.8378 100.754 67.1767C108.646 68.024 116.513 69.0408 123.921 72.1394C124.913 72.5509 125.906 73.0593 126.802 73.6645C129.949 75.7948 129.997 78.1914 126.826 80.2491C125.228 81.29 123.461 82.0889 121.67 82.7183C114.964 85.0907 107.992 86.059 100.972 86.7852C97.6794 87.1241 94.3629 87.342 90.9253 87.6083C90.9253 100.124 90.9253 112.615 90.9253 125.228C84.3649 125.228 77.974 125.228 71.3652 125.228C71.3652 112.736 71.3652 100.221 71.3652 87.6325C67.7582 87.342 64.3691 87.1484 60.98 86.761C53.185 85.8895 45.4142 84.897 38.1276 81.7984C36.7235 81.1932 35.3437 80.3701 34.1817 79.3776C32.4387 77.8767 32.3903 75.9885 34.2301 74.6086C35.9005 73.3498 37.7887 72.2846 39.7495 71.5342C46.6973 68.9197 54.0081 67.9514 61.3431 67.1767C64.587 66.8378 67.8551 66.6442 71.22 66.3779C71.22 62.5288 71.22 58.6797 71.22 54.6854C62.3356 54.6854 53.4755 54.6854 44.4943 54.6854C44.4943 48.6576 44.4943 42.7751 44.4943 36.7715C68.8718 36.7715 93.2493 36.7715 117.699 36.7715C117.699 42.7024 117.699 48.585 117.699 54.6128C108.767 54.6128 99.9307 54.6128 90.9253 54.6128ZM71.2926 67.903C70.9053 67.8788 70.6874 67.8304 70.4937 67.8546C63.6429 68.6292 56.7678 69.1618 49.9653 70.2512C46.3825 70.8322 42.8724 72.1394 39.5317 73.6161C36.6267 74.8991 36.6751 77.1989 39.5559 78.6029C42.0977 79.8375 44.809 80.8059 47.5687 81.4595C56.3805 83.5656 65.3858 84.195 74.4154 84.4371C87.8751 84.8002 101.286 84.3886 114.504 81.4353C117.385 80.7816 120.241 79.6439 122.88 78.3124C125.18 77.1747 125.131 75.238 122.977 73.8582C121.718 73.0593 120.338 72.3815 118.934 71.9215C109.904 69.065 100.56 68.3387 91.1674 67.8788C91.0948 67.8788 90.9979 67.9998 90.8285 68.1451C90.8285 72.3088 90.8285 76.5452 90.8285 81.0479C84.2923 81.0479 77.8288 81.0479 71.2926 81.0479C71.2926 76.5452 71.2926 72.2846 71.2926 67.903Z" fill="white"/>
</svg>
