<svg width="162" height="162" viewBox="0 0 162 162" fill="none" xmlns="http://www.w3.org/2000/svg">
<path d="M81 162C125.735 162 162 125.735 162 81C162 36.2649 125.735 0 81 0C36.2649 0 0 36.2649 0 81C0 125.735 36.2649 162 81 162Z" fill="white"/>
<path d="M53.3544 81.0242C53.3786 76.4247 57.0583 72.7451 61.6578 72.7451C66.2089 72.7451 69.8885 76.4489 69.8643 81.0484C69.8643 85.6964 66.1605 89.2791 61.4157 89.2791C57.0098 89.2791 53.3302 85.5269 53.3544 81.0242Z" fill="#0134AD"/>
<path d="M71.3652 89.6182C75.9405 89.6182 79.6201 93.2978 79.6201 97.8731C79.6201 102.448 75.9405 106.128 71.3652 106.128C66.7899 106.128 63.0861 102.424 63.0861 97.8731C63.0861 93.322 66.7899 89.6182 71.3652 89.6182Z" fill="#0134AD"/>
<path d="M79.5476 64.1753C79.5234 68.7506 75.8437 72.406 71.2684 72.406C66.7415 72.3818 63.0377 68.678 63.0377 64.1511C63.0377 59.5758 66.7899 55.8236 71.341 55.8478C75.8922 55.872 79.5718 59.6 79.5476 64.1753Z" fill="#0134AD"/>
<path d="M82.5493 97.8729C82.5251 93.3218 86.2289 89.5938 90.78 89.5938C95.3553 89.5938 99.0591 93.2492 99.0834 97.8245C99.1076 102.351 95.4037 106.104 90.8526 106.128C86.3257 106.128 82.5735 102.424 82.5493 97.8729Z" fill="#0134AD"/>
<path d="M92.2809 80.9033C92.3051 76.3038 95.9847 72.6483 100.56 72.6968C105.184 72.7452 108.791 76.4006 108.742 81.0001C108.694 85.6481 104.966 89.2551 100.245 89.1824C95.8637 89.134 92.2567 85.3818 92.2809 80.9033Z" fill="#0134AD"/>
<path d="M82.5009 64.1028C82.5009 59.5517 86.2289 55.8721 90.8042 55.8721C95.3311 55.8721 99.0107 59.6001 99.0107 64.127C98.9865 68.6781 95.3069 72.3578 90.78 72.3578C86.1805 72.3578 82.5009 68.6781 82.5009 64.1028Z" fill="#0134AD"/>
<path d="M85.648 114.359C85.6238 117.07 83.4692 119.201 80.7579 119.201C78.095 119.176 75.9163 116.998 75.9647 114.335C75.9889 111.599 78.1435 109.469 80.8548 109.517C83.5419 109.517 85.6722 111.696 85.648 114.359Z" fill="#0235AD"/>
<path d="M76.1342 47.6174C76.1342 44.9303 78.3129 42.7758 80.9758 42.8C83.6629 42.8242 85.8174 44.9545 85.8174 47.6174C85.8174 50.3529 83.6629 52.5074 80.9516 52.4832C78.2403 52.4832 76.11 50.3529 76.1342 47.6174Z" fill="#0235AD"/>
<path d="M56.9856 64.3934C56.9856 67.1047 54.8069 69.2592 52.1198 69.2592C49.457 69.235 47.2782 67.0562 47.2782 64.4176C47.2782 61.7305 49.457 59.5518 52.144 59.5518C54.8553 59.576 57.0099 61.7305 56.9856 64.3934Z" fill="#0235AD"/>
<path d="M110.001 102.449C107.29 102.449 105.135 100.294 105.135 97.5828C105.135 94.8957 107.314 92.7412 109.977 92.7412C112.664 92.7412 114.843 94.9441 114.843 97.607C114.819 100.27 112.64 102.449 110.001 102.449Z" fill="#0235AD"/>
<path d="M52.1683 102.594C49.4812 102.57 47.3509 100.367 47.3993 97.6555C47.4477 95.0169 49.6748 92.8381 52.3135 92.8865C54.9764 92.935 57.1309 95.1621 57.1067 97.7766C57.0583 100.464 54.8553 102.618 52.1683 102.594Z" fill="#0235AD"/>
<path d="M114.746 64.2238C114.746 66.8867 112.591 69.0896 109.953 69.1139C107.29 69.1381 105.039 66.9351 105.039 64.2723C105.039 61.6094 107.193 59.4307 109.88 59.4307C112.567 59.4307 114.722 61.561 114.746 64.2238Z" fill="#0235AD"/>
<path d="M59.5275 114.407C61.8031 114.407 63.6429 116.247 63.6429 118.523C63.6429 120.798 61.7547 122.662 59.4791 122.662C57.2278 122.662 55.3879 120.798 55.3637 118.523C55.3637 116.223 57.2035 114.383 59.5275 114.407Z" fill="#0235AD"/>
<path d="M102.642 47.5931C100.366 47.5931 98.5024 45.7775 98.4782 43.5261C98.454 41.2506 100.318 39.3623 102.618 39.3381C104.893 39.3139 106.782 41.2021 106.757 43.4777C106.757 45.7775 104.942 47.5931 102.642 47.5931Z" fill="#0235AD"/>
<path d="M102.836 122.566C100.56 122.59 98.696 120.75 98.6718 118.499C98.6476 116.199 100.487 114.311 102.763 114.311C105.039 114.311 106.927 116.126 106.951 118.378C106.951 120.653 105.135 122.541 102.836 122.566Z" fill="#0235AD"/>
<path d="M41.904 81.0973C41.904 83.4212 40.0884 85.2368 37.7645 85.2368C35.4647 85.2368 33.6491 83.4212 33.6491 81.1457C33.6491 78.8459 35.5132 76.9819 37.7887 77.0061C40.0885 77.0061 41.904 78.8217 41.904 81.0973Z" fill="#0235AD"/>
<path d="M120.217 80.9037C120.217 78.5797 122.057 76.7641 124.381 76.7883C126.656 76.8125 128.496 78.6523 128.472 80.9037C128.472 83.1792 126.559 85.0674 124.308 85.0432C122.008 85.019 120.217 83.2034 120.217 80.9037Z" fill="#0235AD"/>
<path d="M63.4734 43.6232C63.4492 45.8987 61.6094 47.7143 59.3338 47.7143C57.0583 47.6901 55.2185 45.8503 55.2427 43.599C55.2427 41.3234 57.1309 39.4594 59.4064 39.4836C61.682 39.4836 63.4976 41.3476 63.4734 43.6232Z" fill="#0235AD"/>
<path d="M38.4181 107.774C38.3939 109.638 36.8688 111.163 35.029 111.163C33.1408 111.163 31.5915 109.614 31.6157 107.726C31.6157 105.862 33.1408 104.336 35.0048 104.361C36.9172 104.336 38.4423 105.862 38.4181 107.774Z" fill="#0235AD"/>
<path d="M130.651 107.556C130.651 109.42 129.126 110.921 127.237 110.945C125.373 110.945 123.848 109.444 123.848 107.556C123.848 105.668 125.397 104.119 127.286 104.143C129.15 104.167 130.651 105.692 130.651 107.556Z" fill="#0235AD"/>
<path d="M80.9516 24.3291C82.8156 24.3291 84.3407 25.8784 84.3407 27.7424C84.3165 29.6064 82.7914 31.1316 80.9516 31.1558C79.1118 31.1558 77.5382 29.5822 77.5382 27.694C77.5382 25.8542 79.0876 24.3291 80.9516 24.3291Z" fill="#0235AD"/>
<path d="M80.8305 137.671C78.9665 137.671 77.4172 136.122 77.4414 134.282C77.4656 132.394 79.0149 130.844 80.8789 130.868C82.7188 130.893 84.2439 132.466 84.2439 134.306C84.2439 136.146 82.6945 137.671 80.8305 137.671Z" fill="#0235AD"/>
<path d="M31.4704 54.4196C31.4704 52.5798 33.0197 51.0547 34.8837 51.0547C36.7478 51.0547 38.2729 52.5798 38.2729 54.468C38.2729 56.3563 36.6993 57.8814 34.8111 57.8572C32.9471 57.833 31.4704 56.3078 31.4704 54.4196Z" fill="#0235AD"/>
<path d="M127.092 57.6635C125.204 57.6635 123.703 56.1626 123.703 54.2986C123.703 52.3862 125.228 50.8853 127.14 50.9095C129.029 50.9337 130.53 52.4588 130.505 54.3228C130.481 56.1868 128.98 57.6635 127.092 57.6635Z" fill="#0235AD"/>
<path d="M107.605 30.0904C107.605 28.6137 108.791 27.4517 110.292 27.476C111.744 27.5002 112.93 28.7106 112.93 30.163C112.93 31.6155 111.72 32.8259 110.267 32.8259C108.791 32.8259 107.605 31.6155 107.605 30.0904Z" fill="#0235AD"/>
<path d="M48.9728 30.2605C48.9728 28.7838 50.1348 27.5977 51.6115 27.5977C53.0882 27.5977 54.2744 28.7596 54.2986 30.2363C54.3228 31.7372 53.0882 32.9718 51.6115 32.9476C50.159 32.9234 48.9728 31.713 48.9728 30.2605Z" fill="#0235AD"/>
<path d="M113.172 131.764C113.172 133.241 111.986 134.427 110.51 134.427C109.033 134.427 107.847 133.241 107.847 131.764C107.847 130.263 109.057 129.053 110.534 129.053C111.986 129.077 113.172 130.287 113.172 131.764Z" fill="#0235AD"/>
<path d="M142.392 80.9029C142.392 82.3554 141.181 83.5416 139.704 83.5416C138.204 83.5416 137.017 82.307 137.042 80.8303C137.066 79.3778 138.252 78.2158 139.68 78.2158C141.181 78.2158 142.392 79.402 142.392 80.9029Z" fill="#0235AD"/>
<path d="M24.9585 80.9996C24.9585 82.4521 23.7481 83.6383 22.2714 83.6383C20.7705 83.6383 19.5843 82.4036 19.6085 80.927C19.6327 79.4745 20.8189 78.3125 22.2472 78.3125C23.7481 78.3125 24.9585 79.5229 24.9585 80.9996Z" fill="#0235AD"/>
<path d="M49.1665 131.861C49.1665 130.384 50.3527 129.198 51.8294 129.198C53.2818 129.198 54.4922 130.384 54.4922 131.861C54.4922 133.314 53.2818 134.524 51.8294 134.548C50.3769 134.524 49.1907 133.338 49.1665 131.861Z" fill="#0235AD"/>
</svg>
