<svg width="162" height="162" viewBox="0 0 162 162" fill="none" xmlns="http://www.w3.org/2000/svg">
<path d="M130.958 27.79H30.9341V118.7H130.958V27.79Z" fill="white"/>
<path fill-rule="evenodd" clip-rule="evenodd" d="M161.946 81.0002C161.946 125.676 125.706 161.892 81 161.892C36.2947 161.892 0.053894 125.676 0.053894 81.0002C0.053894 36.3246 36.2947 0.10791 81 0.10791C125.706 0.10791 161.946 36.3246 161.946 81.0002ZM58.0622 113.191H42.3528C39.0518 113.191 37.4213 113.191 36.4271 112.556C35.3532 111.86 34.697 110.707 34.6175 109.435C34.5577 108.263 35.3731 106.832 37.0037 103.97L75.7921 35.6461C77.4426 32.7448 78.2777 31.2941 79.3316 30.7576C80.4651 30.1813 81.8173 30.1813 82.9508 30.7576C84.0047 31.2941 84.8399 32.7448 86.4903 35.6461L94.4644 49.5566L94.5051 49.6276C96.2877 52.7401 97.1917 54.3186 97.5864 55.9752C98.0238 57.7836 98.0238 59.6913 97.5864 61.4997C97.1887 63.1689 96.2939 64.7587 94.4843 67.9184L74.1097 103.911L74.057 104.003C72.2626 107.141 71.3532 108.732 70.0929 109.932C68.7208 111.244 67.0703 112.197 65.2607 112.735C63.6102 113.191 61.7609 113.191 58.0622 113.191ZM97.7336 113.191H120.243C123.564 113.191 125.235 113.191 126.23 112.536C127.303 111.841 127.979 110.668 128.039 109.397C128.096 108.262 127.299 106.887 125.736 104.192C125.682 104.1 125.628 104.006 125.573 103.911L114.298 84.6355L114.17 84.4185C112.585 81.7409 111.785 80.3888 110.758 79.8662C109.625 79.2898 108.292 79.2898 107.159 79.8662C106.125 80.4027 105.29 81.8136 103.639 84.6553L92.4043 103.931L92.3658 103.998C90.7211 106.835 89.8991 108.253 89.9584 109.416C90.038 110.688 90.6941 111.86 91.7679 112.556C92.7424 113.191 94.4127 113.191 97.7336 113.191Z" fill="#E84142"/>
</svg>
