<svg width="164" height="162" viewBox="0 0 164 162" fill="none" xmlns="http://www.w3.org/2000/svg">
<rect width="164" height="162" rx="81" fill="#2AA253"/>
<path d="M69.4365 121.33L49.5552 56.8301L76.3233 48.563C84.1915 46.133 90.6087 45.7935 95.6012 47.5364C100.594 49.2793 103.976 53.0488 105.758 58.8312C106.732 61.9917 106.775 65.0302 105.897 67.9361C105.007 70.8461 103.281 73.3109 100.718 75.3316C104.292 75.1392 107.416 75.9935 110.106 77.9245C112.794 79.8353 114.707 82.5963 115.829 86.2373C117.74 92.4357 117.2 97.7486 114.202 102.164C111.205 106.579 106.044 109.953 98.7054 112.29L69.4365 121.33ZM70.5669 78.5968L84.8113 74.1976C91.5117 72.0046 94.1065 68.4165 92.4951 63.1888C91.5945 60.2669 90.09 58.4252 87.9869 57.669C85.8837 56.9128 82.9915 57.0996 79.3055 58.238L65.5966 62.4718L70.5669 78.5968ZM73.5491 88.2717L79.5135 107.622L95.3282 102.737C98.4657 101.768 105.166 98.0427 103.038 91.1413C100.911 84.2398 96.0476 81.4187 89.8731 83.2302L73.5491 88.2717Z" fill="#EFFDFF"/>
<path d="M56.3674 44.1304L66.1618 41.1055L71.1321 57.2304L61.3377 60.2553L56.3674 44.1304ZM72.6914 39.0889L82.4858 36.064L87.4561 52.1889L77.6617 55.2138L72.6914 39.0889ZM77.2427 111.855L87.0371 108.83L92.0074 124.955L82.213 127.98L77.2427 111.855ZM93.5667 106.814L103.361 103.789L108.331 119.914L98.537 122.939L93.5667 106.814Z" fill="#EFFDFF"/>
</svg>
