<svg width="160" height="160" viewBox="0 0 160 160" fill="none" xmlns="http://www.w3.org/2000/svg">
<rect width="160" height="160" rx="80" fill="#E2B100"/>
<path d="M48.948 105.296L66.2026 40.9006L92.6014 47.9742C100.361 50.0533 105.833 53.1241 109.042 57.1935C112.252 61.2628 113.075 66.1871 111.528 71.9601C110.683 75.1155 109.132 77.6816 106.892 79.6557C104.638 81.6262 101.929 82.7878 98.7597 83.1396C101.808 84.8469 103.94 87.1952 105.152 90.2186C106.373 93.2236 106.51 96.5353 105.536 100.17C103.878 106.359 100.66 110.525 95.8828 112.654C91.1055 114.783 85.0877 114.91 77.8131 113.03L48.948 105.296ZM72.1798 70.1096L86.2276 73.8737C92.9001 75.5408 96.9132 73.8933 98.3117 68.6741C99.0934 65.757 98.8132 63.4285 97.4726 61.6958C96.132 59.9631 93.6483 58.6074 90.0132 57.6334L76.4934 54.0108L72.1798 70.1096ZM69.5916 79.7688L64.4152 99.0873L80.0117 103.266C83.1059 104.095 90.5779 104.479 92.4241 97.5889C94.2703 90.6986 91.7299 85.7939 85.6904 84.0825L69.5916 79.7688Z" fill="#EFFDFF"/>
<path d="M78.4501 33.8296L88.1093 36.4178L83.7957 52.5165L74.1364 49.9284L78.4501 33.8296ZM94.5488 38.1432L104.208 40.7314L99.8944 56.8302L90.2352 54.242L94.5488 38.1432ZM60.3327 101.444L69.992 104.033L65.6783 120.131L56.0191 117.543L60.3327 101.444ZM76.4315 105.758L86.0908 108.346L81.7771 124.445L72.1178 121.857L76.4315 105.758Z" fill="#EFFDFF"/>
</svg>
