<svg width="162" height="162" viewBox="0 0 162 162" fill="none" xmlns="http://www.w3.org/2000/svg">
<path d="M81 162C125.735 162 162 125.735 162 81C162 36.2649 125.735 0 81 0C36.2649 0 0 36.2649 0 81C0 125.735 36.2649 162 81 162Z" fill="#335DD2"/>
<path d="M132.424 81.0485C132.424 90.5138 132.424 99.9791 132.448 109.469C132.448 110.34 132.158 110.776 131.432 111.212C115.14 120.653 98.8476 130.094 82.5556 139.559C81.7567 140.019 81.1757 139.995 80.4253 139.559C67.1835 131.958 53.9417 124.357 40.6757 116.78C37.4319 114.915 34.2364 113.027 30.9925 111.187C30.3389 110.8 30 110.413 30 109.566C30.0242 90.6591 30.0242 71.7768 30 52.8704C30 51.7568 30.3631 51.1758 31.3072 50.619C42.9271 43.9618 54.5469 37.232 66.1668 30.5506C70.7421 27.9119 75.3416 25.2732 79.9169 22.5861C80.8368 22.0294 81.5146 21.9809 82.483 22.5377C98.7023 31.9304 114.946 41.2989 131.189 50.6432C132.061 51.1516 132.473 51.7084 132.473 52.7977C132.4 62.1904 132.424 71.6316 132.424 81.0485ZM111.097 81.0485C111.121 75.7469 111.097 70.4454 111.145 65.1438C111.145 64.1513 110.831 63.5461 109.959 63.0861C108.168 62.1178 106.425 61.0769 104.658 60.0601C97.2256 55.7511 89.7938 51.4421 82.3377 47.1815C81.8294 46.891 80.9337 46.7457 80.4737 47.012C71.1294 52.3378 61.8335 57.7362 52.4892 63.1104C51.7146 63.5461 51.3757 64.0787 51.3757 64.9744C51.3999 75.6501 51.3999 86.35 51.3757 97.0258C51.3757 97.9457 51.7388 98.4056 52.4892 98.8414C61.7367 104.167 70.9842 109.493 80.2074 114.867C80.9337 115.279 81.442 115.351 82.1925 114.891C91.4641 109.493 100.736 104.143 110.032 98.793C110.831 98.333 111.097 97.8004 111.097 96.9289C111.073 91.6516 111.097 86.35 111.097 81.0485Z" fill="white"/>
</svg>
